<?xml version="1.0" encoding="utf-8"?>
<!-- Generator: Adobe Illustrator 23.0.1, SVG Export Plug-In . SVG Version: 6.00 Build 0)  -->
<svg version="1.1" id="Camada_1" xmlns="http://www.w3.org/2000/svg" xmlns:xlink="http://www.w3.org/1999/xlink" x="0px" y="0px"
	 viewBox="0 0 65 60" style="enable-background:new 0 0 65 60;" xml:space="preserve">
<style type="text/css">
	.st0{fill:#FFFFFF;}
</style>
<g>
	<path class="st0" d="M60.6,43.2h-2.1v-3.8c0-1-0.8-1.7-1.7-1.7c-1,0-1.7,0.8-1.7,1.7v3.8h-2.3v16.6h7.9c1,0,1.7-0.8,1.7-1.7V45
		C62.4,44,61.6,43.2,60.6,43.2z"/>
	<path class="st0" d="M12.5,43.2h-2.3v-3.8c0-1-0.8-1.7-1.7-1.7s-1.7,0.8-1.7,1.7v3.8H4.6c-1,0-1.7,0.8-1.7,1.7V58
		c0,1,0.8,1.7,1.7,1.7h7.9V43.2z"/>
	<path class="st0" d="M16,59.9h8.4v-9.3c0-1,0.8-1.7,1.7-1.7h13c1,0,1.7,0.8,1.7,1.7v9.3h8.4c0-2.9,0-55.2,0-57.8
		c0-1-0.8-1.7-1.7-1.7H17.7c-1,0-1.7,0.8-1.7,1.7V59.9z M27.9,41.1H26c-1,0-1.7-0.8-1.7-1.7c0-1,0.8-1.7,1.7-1.7h1.9
		c1,0,1.7,0.8,1.7,1.7C29.7,40.4,28.9,41.1,27.9,41.1z M27.9,33.7H26c-1,0-1.7-0.8-1.7-1.7c0-1,0.8-1.7,1.7-1.7h1.9
		c1,0,1.7,0.8,1.7,1.7C29.7,32.9,28.9,33.7,27.9,33.7z M27.9,26.2H26c-1,0-1.7-0.8-1.7-1.7s0.8-1.7,1.7-1.7h1.9c1,0,1.7,0.8,1.7,1.7
		S28.9,26.2,27.9,26.2z M27.9,18.8H26c-1,0-1.7-0.8-1.7-1.7s0.8-1.7,1.7-1.7h1.9c1,0,1.7,0.8,1.7,1.7S28.9,18.8,27.9,18.8z
		 M39.1,41.1h-1.9c-1,0-1.7-0.8-1.7-1.7c0-1,0.8-1.7,1.7-1.7h1.9c1,0,1.7,0.8,1.7,1.7C40.9,40.4,40.1,41.1,39.1,41.1z M39.1,33.7
		h-1.9c-1,0-1.7-0.8-1.7-1.7c0-1,0.8-1.7,1.7-1.7h1.9c1,0,1.7,0.8,1.7,1.7C40.9,32.9,40.1,33.7,39.1,33.7z M39.1,26.2h-1.9
		c-1,0-1.7-0.8-1.7-1.7s0.8-1.7,1.7-1.7h1.9c1,0,1.7,0.8,1.7,1.7S40.1,26.2,39.1,26.2z M39.1,18.8h-1.9c-1,0-1.7-0.8-1.7-1.7
		s0.8-1.7,1.7-1.7h1.9c1,0,1.7,0.8,1.7,1.7S40.1,18.8,39.1,18.8z M25.2,7.9H40c1,0,1.7,0.8,1.7,1.7S41,11.4,40,11.4H25.2
		c-1,0-1.7-0.8-1.7-1.7S24.2,7.9,25.2,7.9z"/>
	<path class="st0" d="M27.8,59.9h9.5v-7.6h-9.5V59.9z"/>
</g>
</svg>
