<?xml version="1.0" encoding="utf-8"?>
<!-- Generator: Adobe Illustrator 23.0.1, SVG Export Plug-In . SVG Version: 6.00 Build 0)  -->
<svg version="1.1" id="Camada_1" xmlns="http://www.w3.org/2000/svg" xmlns:xlink="http://www.w3.org/1999/xlink" x="0px" y="0px"
	 viewBox="0 0 65 60" style="enable-background:new 0 0 65 60;" xml:space="preserve">
<style type="text/css">
	.st0{fill:#FFFFFF;}
</style>
<g>
	<path class="st0" d="M60.9,21.5c0-0.1-0.1-0.1-0.1-0.1l-2.3-2.2c1.9-0.4,3.9-2,3.9-3.6c0-1.9-2.6-2.6-4.9-2.6
		c-2.3,0-2.6,1.6-2.6,2.7L49,10.1C47.8,8.9,45.6,8,43.9,8H32.5h0H21c-1.7,0-3.9,0.9-5.1,2.1L10,15.7c0-1.1-0.3-2.7-2.6-2.7
		c-2.2,0-4.9,0.7-4.9,2.6c0,1.6,2,3.2,3.9,3.6l-2.3,2.2c-0.1,0-0.1,0.1-0.1,0.1c-2.4,2.1-4,5.9-4,8.7v8.3c0,2,0.8,3.8,2.1,5.2V47
		c0,1.9,1.6,3.4,3.5,3.4h4.3c1.9,0,3.5-1.5,3.5-3.4v-0.8h19.1h0h19.1V47c0,1.9,1.6,3.4,3.5,3.4h4.3c1.9,0,3.5-1.5,3.5-3.4v-3.2
		c1.3-1.4,2.1-3.2,2.1-5.2v-8.3C64.9,27.4,63.3,23.6,60.9,21.5z M18,12.6c0.8-0.7,2.3-1.2,3-1.2h11.4h0h11.4c0.7,0,2.2,0.5,3,1.2
		l7.7,7.5H32.5h0H10.4L18,12.6z M2.7,29c0-2,1.6-3.7,3.6-3.7c2,0,8.4,3.8,8.4,5.8s-6.5,1.6-8.4,1.6C4.3,32.7,2.7,31,2.7,29z
		 M13.4,42.5h-0.7H12l-4,0c-1.1-0.3-1.9-0.8-2.5-1.2c-0.3-0.2-0.5-0.5-0.7-0.7c-0.2-0.2-0.3-0.5-0.4-0.7C4,38.5,5,37.2,5,37.2h6.9
		l4.6,5.3L13.4,42.5L13.4,42.5z M42.4,42.5h-9.9h0h-9.9c-2.1,0-3.7-1.7-3.7-3.7h13.7h0h13.7C46.1,40.8,44.5,42.5,42.4,42.5z
		 M43.3,36.2H32.5h0H21.7c-2.3,0-4.1-2.8-4.1-6.2h14.9h0h14.9C47.3,33.4,45.5,36.2,43.3,36.2z M60.5,40c-0.1,0.2-0.2,0.5-0.4,0.7
		c-0.2,0.2-0.4,0.5-0.7,0.7c-0.6,0.4-1.4,0.8-2.5,1.2l-4,0h-0.7h-0.7h-3.1l4.6-5.3h6.9C59.9,37.2,61,38.5,60.5,40z M58.7,32.7
		c-2,0-8.4,0.5-8.4-1.6s6.5-5.8,8.4-5.8c2,0,3.6,1.7,3.6,3.7C62.3,31,60.7,32.7,58.7,32.7z"/>
</g>
</svg>
