<?xml version="1.0" encoding="utf-8"?>
<!-- Generator: Adobe Illustrator 23.0.1, SVG Export Plug-In . SVG Version: 6.00 Build 0)  -->
<svg version="1.1" id="Camada_1" xmlns="http://www.w3.org/2000/svg" xmlns:xlink="http://www.w3.org/1999/xlink" x="0px" y="0px"
	 viewBox="0 0 65 60" style="enable-background:new 0 0 65 60;" xml:space="preserve">
<style type="text/css">
	.st0{fill:#263774;}
</style>
<g>
	<path class="st0" d="M38.5,37.5c-1,0-1.9,0.8-1.9,1.9s0.8,1.9,1.9,1.9s1.9-0.8,1.9-1.9S39.5,37.5,38.5,37.5z"/>
	<path class="st0" d="M27.3,22.6c1,0,1.9-0.8,1.9-1.9c0-1-0.8-1.9-1.9-1.9c-1,0-1.9,0.8-1.9,1.9C25.4,21.7,26.2,22.6,27.3,22.6z"/>
	<path class="st0" d="M60,30l2.6-6.8c0.3-0.8,0.1-1.6-0.6-2.1l-5.7-4.6l-1.2-7.2c-0.1-0.8-0.8-1.4-1.6-1.6l-7.2-1.2l-4.6-5.7
		c-0.5-0.6-1.4-0.9-2.1-0.6l-6.9,2.6L26,0.3c-0.8-0.3-1.6-0.1-2.1,0.6l-4.6,5.7l-7.2,1.2c-0.8,0.1-1.4,0.8-1.6,1.6l-1.2,7.2
		l-5.7,4.6c-0.6,0.5-0.9,1.4-0.6,2.1L5.7,30l-2.6,6.8C2.8,37.6,3,38.5,3.7,39l5.7,4.6l1.2,7.2c0.1,0.8,0.8,1.4,1.6,1.6l7.2,1.2
		l4.6,5.7c0.5,0.6,1.4,0.9,2.1,0.6l6.8-2.6l6.8,2.6c0.2,0.1,0.4,0.1,0.7,0.1c0.5,0,1.1-0.2,1.5-0.7l4.6-5.7l7.2-1.2
		c0.8-0.1,1.4-0.8,1.6-1.6l1.2-7.2l5.7-4.6c0.6-0.5,0.9-1.4,0.6-2.1L60,30z M27.3,15.1c3.1,0,5.6,2.5,5.6,5.6c0,3.1-2.5,5.6-5.6,5.6
		c-3.1,0-5.6-2.5-5.6-5.6C21.7,17.6,24.2,15.1,27.3,15.1z M38.5,45c-3.1,0-5.6-2.5-5.6-5.6s2.5-5.6,5.6-5.6s5.6,2.5,5.6,5.6
		S41.6,45,38.5,45z M43.7,18L25.1,44.2c-0.4,0.5-0.9,0.8-1.5,0.8c-0.4,0-0.8-0.1-1.1-0.3c-0.8-0.6-1-1.8-0.4-2.6l18.7-26.2
		c0.6-0.8,1.8-1,2.6-0.4C44.2,16,44.3,17.2,43.7,18z"/>
</g>
</svg>
