<?xml version="1.0" encoding="utf-8"?>
<!-- Generator: Adobe Illustrator 23.0.1, SVG Export Plug-In . SVG Version: 6.00 Build 0)  -->
<svg version="1.1" id="Camada_1" xmlns="http://www.w3.org/2000/svg" xmlns:xlink="http://www.w3.org/1999/xlink" x="0px" y="0px"
	 viewBox="0 0 65 60" style="enable-background:new 0 0 65 60;" xml:space="preserve">
<style type="text/css">
	.st0{fill:#263774;}
</style>
<g>
	<path class="st0" d="M50.7,45.3c-0.1-0.6-0.2-1.2-0.3-1.8c-0.8-3.9-2.6-7.5-5.3-10.4c0.8,3.5-1.4,5.7-1.4,5.7
		c0.4-4.2-1-8.4-3.9-11.5c-1.1-1.3-2.3-2.5-3.5-3.9c-4.2-4.6-7.5-9.2-10.6-13.1c0.1,1.9-0.6,4.4-3.2,7.4c0,0,1.1-2.1,1.5-5.6
		c0.3-2.3-0.5-4.6-2-6.3c-3.8-4.2-7.4-6.6-12.2-5C5,2.4,3.6,7.7,5.4,15c0.5,2,1.8,3.8,3.5,4.9c4,2.5,7,2.3,6.9,2.3
		c-3.9,1-6.7,0.1-8.5-1.4c2.5,5.8,6.6,12.2,12,18.1c2,2.2,4.1,4.1,6.2,5.9c3.4,2.8,8.1,3.6,12.3,2.1l0,0c0,0-1.3,2.9-5.5,2.6
		c0.4,0.2,0.7,0.4,1.1,0.6c2.3,1.3,4.9,2,7.5,2.1c1.9,0.1,4.2-0.2,6.4-1.1c0.1,0-5.3,3.7-1.2,8.6c0-2.1,4.3-6.7,5.9-8.4
		c0,0-2.2,4.8,4,8.6c-2.6-3.2-1.2-5.4-0.3-7c-3.9-1.7-7.9-3.8-11.7-6.3c-7.3-4.7-13.6-10.8-17.5-15.9c-2-2.5-3.5-4.8-4.5-6.3
		c-1-1.6-1.5-2.5-1.5-2.5c0,0,0.7,0.8,1.9,2.2c1.2,1.4,3,3.4,5.2,5.7c4.4,4.6,10.7,10.1,17.8,14.7c3.7,2.4,7.5,4.6,11.2,6.4
		c0.6-1.8,1.4-4.1,5.1-4.7c-5.9-1.5-8.5,2.8-8.5,2.8c0.4-2.3,2.1-8.3,3.7-9.6C51.8,39.3,50.7,45.2,50.7,45.3z"/>
</g>
</svg>
