<?xml version="1.0" encoding="utf-8"?>
<!-- Generator: Adobe Illustrator 23.0.1, SVG Export Plug-In . SVG Version: 6.00 Build 0)  -->
<svg version="1.1" id="Camada_1" xmlns="http://www.w3.org/2000/svg" xmlns:xlink="http://www.w3.org/1999/xlink" x="0px" y="0px"
	 viewBox="0 0 65 60" style="enable-background:new 0 0 65 60;" xml:space="preserve">
<style type="text/css">
	.st0{fill:#FFFFFF;}
</style>
<path class="st0" d="M53.8,34.8c-0.2,0.6-0.8,1-1.4,1c-0.6,0-1.2-0.4-1.4-1l-1.5-5.3l-2.9,9.7c-0.2,0.6-0.7,1-1.4,1h-0.1
	c-0.7,0-1.2-0.5-1.4-1.1l-3-14.1l-1.4,5.5c-0.2,0.6-0.7,1.1-1.4,1.1h-7.6l-1.1,3.3c-0.2,0.6-0.8,1-1.4,1c-0.6,0-1.2-0.4-1.4-1
	l-1.5-5.3l-2.9,9.7c-0.2,0.6-0.8,1-1.4,1c-0.7,0-1.2-0.5-1.4-1.1l-3-14.1L15,30.4c-0.2,0.6-0.7,1.1-1.4,1.1H3.9
	c1.8,2.5,4,4.8,6.4,6.8c0.7,0.7,1.5,1.3,2.2,2c4.1,3.9,16.4,13.9,19.8,16.7c3.4-2.8,15.7-12.8,19.8-16.7c0.7-0.7,1.4-1.3,2.2-2
	c2.4-2,4.5-4.2,6.4-6.8h-5.8L53.8,34.8z"/>
<path class="st0" d="M15.1,18.2c0.2-0.7,0.7-1.1,1.4-1.1c0.7,0,1.2,0.5,1.4,1.1L21,32.9l2.7-9c0.2-0.6,0.7-1,1.4-1
	c0.6,0,1.2,0.4,1.4,1l1.6,5.6c0.2-0.5,0.8-0.9,1.3-0.9h7.5l2.6-10.4c0-0.2,0.1-0.3,0.2-0.4c0.3-0.4,0.7-0.7,1.2-0.6
	c0.7,0,1.2,0.5,1.4,1.1l3.1,14.7l2.7-9c0.2-0.6,0.7-1,1.4-1h0c0.6,0,1.2,0.4,1.4,1l1.6,5.6c0.2-0.5,0.8-0.9,1.3-0.9h8.4
	c1.1-2.6,1.7-5.5,1.7-8.4c0-10.1-5.9-16.1-15.7-16.1c-6.1,0-11.7,3.3-14.6,8.6c-0.3,0.4-0.8,0.7-1.3,0.7s-1-0.3-1.3-0.7
	c-3-5.3-8.6-8.6-14.6-8.6c-9.9,0-15.7,6-15.7,16.1c0,2.9,0.5,5.7,1.7,8.4h10.2L15.1,18.2z"/>
</svg>
