<?xml version="1.0" encoding="utf-8"?>
<!-- Generator: Adobe Illustrator 23.0.1, SVG Export Plug-In . SVG Version: 6.00 Build 0)  -->
<svg version="1.1" id="Layer_1" xmlns="http://www.w3.org/2000/svg" xmlns:xlink="http://www.w3.org/1999/xlink" x="0px" y="0px"
	 viewBox="0 0 789 215.4" style="enable-background:new 0 0 789 215.4;" xml:space="preserve">
<style type="text/css">
	.Arched_x0020_Green{fill:url(#SVGID_1_);stroke:#FFFFFF;stroke-width:0.25;stroke-miterlimit:1;}
	.st0{fill:#FFFFFF;}
	.st1{opacity:0.9;fill:url(#SVGID_2_);}
	.st2{fill:url(#SVGID_3_);}
	.st3{opacity:0.8;fill:url(#SVGID_4_);}
	.st4{opacity:0.7;fill:url(#SVGID_5_);}
	.st5{opacity:0.6;fill:url(#SVGID_6_);}
	.st6{opacity:0.5;fill:url(#SVGID_7_);}
	.st7{opacity:0.4;fill:url(#SVGID_8_);}
	.st8{fill:url(#SVGID_9_);}
	.st9{fill:url(#SVGID_10_);}
	.st10{fill:url(#SVGID_11_);}
	.st11{fill:url(#SVGID_12_);}
	.st12{fill:url(#SVGID_13_);}
	.st13{fill:#194789;}
	.st14{font-family:'TrajanPro-Regular';}
	.st15{font-size:78.5126px;}
	.st16{opacity:0.9;fill:url(#SVGID_14_);}
	.st17{fill:url(#SVGID_15_);}
	.st18{opacity:0.8;fill:url(#SVGID_16_);}
	.st19{opacity:0.7;fill:url(#SVGID_17_);}
	.st20{opacity:0.6;fill:url(#SVGID_18_);}
	.st21{opacity:0.5;fill:url(#SVGID_19_);}
	.st22{opacity:0.4;fill:url(#SVGID_20_);}
	.st23{fill:url(#SVGID_21_);}
	.st24{fill:url(#SVGID_22_);}
	.st25{fill:url(#SVGID_23_);}
	.st26{fill:url(#SVGID_24_);}
	.st27{fill:url(#SVGID_25_);}
	.st28{fill:#09192C;}
	.st29{fill:none;}
	.st30{clip-path:url(#SVGID_27_);fill:#194789;}
	.st31{clip-path:url(#SVGID_27_);fill:#19488A;}
	.st32{clip-path:url(#SVGID_27_);fill:#19498A;}
	.st33{clip-path:url(#SVGID_27_);fill:#19498B;}
	.st34{clip-path:url(#SVGID_27_);fill:#18498B;}
	.st35{clip-path:url(#SVGID_27_);fill:#184A8B;}
	.st36{clip-path:url(#SVGID_27_);fill:#184B8C;}
	.st37{clip-path:url(#SVGID_27_);fill:#184C8C;}
	.st38{clip-path:url(#SVGID_27_);fill:#184C8D;}
	.st39{clip-path:url(#SVGID_27_);fill:#184D8D;}
	.st40{clip-path:url(#SVGID_27_);fill:#184E8E;}
	.st41{clip-path:url(#SVGID_27_);fill:#184F8F;}
	.st42{clip-path:url(#SVGID_27_);fill:#185090;}
	.st43{clip-path:url(#SVGID_27_);fill:#185190;}
	.st44{clip-path:url(#SVGID_27_);fill:#185191;}
	.st45{clip-path:url(#SVGID_27_);fill:#185291;}
	.st46{clip-path:url(#SVGID_27_);fill:#185392;}
	.st47{clip-path:url(#SVGID_27_);fill:#185493;}
	.st48{clip-path:url(#SVGID_27_);fill:#195493;}
	.st49{clip-path:url(#SVGID_27_);fill:#195593;}
	.st50{clip-path:url(#SVGID_27_);fill:#195594;}
	.st51{clip-path:url(#SVGID_27_);fill:#195694;}
	.st52{clip-path:url(#SVGID_27_);fill:#195795;}
	.st53{clip-path:url(#SVGID_27_);fill:#195896;}
	.st54{clip-path:url(#SVGID_27_);fill:#1A5896;}
	.st55{clip-path:url(#SVGID_27_);fill:#1A5996;}
	.st56{clip-path:url(#SVGID_27_);fill:#1A5997;}
	.st57{clip-path:url(#SVGID_27_);fill:#1A5A97;}
	.st58{clip-path:url(#SVGID_27_);fill:#1A5A98;}
	.st59{clip-path:url(#SVGID_27_);fill:#1A5B98;}
	.st60{clip-path:url(#SVGID_27_);fill:#1B5C99;}
	.st61{clip-path:url(#SVGID_27_);fill:#1B5D9A;}
	.st62{clip-path:url(#SVGID_27_);fill:#1B5E9A;}
	.st63{clip-path:url(#SVGID_27_);fill:#1B5E9B;}
	.st64{clip-path:url(#SVGID_27_);fill:#1C5F9B;}
	.st65{clip-path:url(#SVGID_27_);fill:#1C5F9C;}
	.st66{clip-path:url(#SVGID_27_);fill:#1C609C;}
	.st67{clip-path:url(#SVGID_27_);fill:#1C619D;}
	.st68{clip-path:url(#SVGID_27_);fill:#1D629E;}
	.st69{clip-path:url(#SVGID_27_);fill:#1D639F;}
	.st70{clip-path:url(#SVGID_27_);fill:#1D649F;}
	.st71{clip-path:url(#SVGID_27_);fill:#1D64A0;}
	.st72{clip-path:url(#SVGID_27_);fill:#1D65A0;}
	.st73{clip-path:url(#SVGID_27_);fill:#1E65A1;}
	.st74{clip-path:url(#SVGID_27_);fill:#1E66A1;}
	.st75{clip-path:url(#SVGID_27_);fill:#1E66A2;}
	.st76{clip-path:url(#SVGID_27_);fill:#1E67A2;}
	.st77{clip-path:url(#SVGID_27_);fill:#1E68A3;}
	.st78{clip-path:url(#SVGID_27_);fill:#1F68A3;}
	.st79{clip-path:url(#SVGID_27_);fill:#1F69A4;}
	.st80{clip-path:url(#SVGID_27_);fill:#1F6AA5;}
	.st81{clip-path:url(#SVGID_27_);fill:#1F6BA6;}
	.st82{clip-path:url(#SVGID_27_);fill:#206BA6;}
	.st83{clip-path:url(#SVGID_27_);fill:#206CA7;}
	.st84{clip-path:url(#SVGID_27_);fill:#206DA7;}
	.st85{clip-path:url(#SVGID_27_);fill:#206DA8;}
	.st86{clip-path:url(#SVGID_27_);fill:#206EA8;}
	.st87{clip-path:url(#SVGID_27_);fill:#216FA9;}
	.st88{clip-path:url(#SVGID_27_);fill:#2170AA;}
	.st89{clip-path:url(#SVGID_27_);fill:#2171AB;}
	.st90{clip-path:url(#SVGID_27_);fill:#2272AC;}
	.st91{clip-path:url(#SVGID_27_);fill:#2273AD;}
	.st92{clip-path:url(#SVGID_27_);fill:#2274AD;}
	.st93{clip-path:url(#SVGID_27_);fill:#2274AE;}
	.st94{clip-path:url(#SVGID_27_);fill:#2275AE;}
	.st95{clip-path:url(#SVGID_27_);fill:#2375AF;}
	.st96{clip-path:url(#SVGID_27_);fill:#2376AF;}
	.st97{clip-path:url(#SVGID_27_);fill:#2376B0;}
	.st98{clip-path:url(#SVGID_27_);fill:#2377B0;}
	.st99{clip-path:url(#SVGID_27_);fill:#2378B1;}
	.st100{clip-path:url(#SVGID_27_);fill:#2479B2;}
	.st101{clip-path:url(#SVGID_27_);fill:#247AB3;}
	.st102{clip-path:url(#SVGID_27_);fill:#247BB4;}
	.st103{clip-path:url(#SVGID_27_);fill:#247CB4;}
	.st104{clip-path:url(#SVGID_27_);fill:#247CB5;}
	.st105{clip-path:url(#SVGID_27_);fill:#257DB6;}
	.st106{clip-path:url(#SVGID_27_);fill:#257EB7;}
	.st107{clip-path:url(#SVGID_27_);fill:#257FB7;}
	.st108{clip-path:url(#SVGID_27_);fill:#257FB8;}
	.st109{clip-path:url(#SVGID_27_);fill:#2580B8;}
	.st110{clip-path:url(#SVGID_27_);fill:#2581B9;}
	.st111{clip-path:url(#SVGID_27_);fill:#2582BA;}
	.st112{clip-path:url(#SVGID_27_);fill:#2682BA;}
	.st113{clip-path:url(#SVGID_27_);fill:#2683BB;}
	.st114{clip-path:url(#SVGID_27_);fill:#2684BC;}
	.st115{clip-path:url(#SVGID_27_);fill:#2685BD;}
	.st116{clip-path:url(#SVGID_27_);fill:#2686BD;}
	.st117{clip-path:url(#SVGID_27_);fill:#2686BE;}
	.st118{clip-path:url(#SVGID_27_);fill:#2687BF;}
	.st119{clip-path:url(#SVGID_27_);fill:#2688C0;}
	.st120{clip-path:url(#SVGID_27_);fill:#2689C0;}
	.st121{clip-path:url(#SVGID_27_);fill:#2789C1;}
	.st122{clip-path:url(#SVGID_27_);fill:#278AC1;}
	.st123{clip-path:url(#SVGID_27_);fill:#278BC2;}
	.st124{clip-path:url(#SVGID_27_);fill:#278BC3;}
	.st125{clip-path:url(#SVGID_27_);fill:#278CC3;}
	.st126{clip-path:url(#SVGID_27_);fill:#278DC4;}
	.st127{clip-path:url(#SVGID_27_);fill:#278DC5;}
	.st128{clip-path:url(#SVGID_27_);fill:#278EC5;}
	.st129{clip-path:url(#SVGID_27_);fill:#288FC6;}
	.st130{clip-path:url(#SVGID_27_);fill:#2890C7;}
	.st131{clip-path:url(#SVGID_27_);fill:#2891C8;}
	.st132{clip-path:url(#SVGID_27_);fill:#2892C9;}
	.st133{clip-path:url(#SVGID_27_);fill:#2893CA;}
	.st134{clip-path:url(#SVGID_27_);fill:#2894CB;}
	.st135{clip-path:url(#SVGID_27_);fill:#2895CB;}
	.st136{clip-path:url(#SVGID_27_);fill:#2896CC;}
	.st137{clip-path:url(#SVGID_27_);fill:#2996CD;}
	.st138{clip-path:url(#SVGID_27_);fill:#2997CD;}
	.st139{clip-path:url(#SVGID_27_);fill:#2998CE;}
	.st140{clip-path:url(#SVGID_27_);fill:#2998CF;}
	.st141{clip-path:url(#SVGID_27_);fill:#2999CF;}
	.st142{clip-path:url(#SVGID_27_);fill:#299AD0;}
	.st143{clip-path:url(#SVGID_27_);fill:#299AD1;}
	.st144{clip-path:url(#SVGID_27_);fill:#299BD1;}
	.st145{clip-path:url(#SVGID_27_);fill:#299CD2;}
	.st146{clip-path:url(#SVGID_27_);fill:#299DD3;}
	.st147{clip-path:url(#SVGID_27_);fill:#2A9DD4;}
	.st148{clip-path:url(#SVGID_27_);fill:#2A9ED4;}
	.st149{clip-path:url(#SVGID_27_);fill:#2A9FD5;}
	.st150{clip-path:url(#SVGID_27_);fill:#2A9FD6;}
	.st151{clip-path:url(#SVGID_27_);fill:#2AA0D6;}
	.st152{clip-path:url(#SVGID_27_);fill:#2AA1D7;}
	.st153{clip-path:url(#SVGID_27_);fill:#2AA2D8;}
	.st154{clip-path:url(#SVGID_27_);fill:#2AA2D9;}
	.st155{clip-path:url(#SVGID_27_);fill:#2AA3D9;}
	.st156{clip-path:url(#SVGID_27_);fill:#2BA4DA;}
	.st157{clip-path:url(#SVGID_27_);fill:#2BA4DB;}
	.st158{clip-path:url(#SVGID_27_);fill:#2BA5DC;}
	.st159{clip-path:url(#SVGID_27_);fill:#2BA6DD;}
	.st160{clip-path:url(#SVGID_27_);fill:#2BA7DD;}
	.st161{clip-path:url(#SVGID_27_);fill:#2BA7DE;}
	.st162{clip-path:url(#SVGID_27_);fill:#2BA8DF;}
	.st163{clip-path:url(#SVGID_27_);fill:#2BA9E0;}
	.st164{clip-path:url(#SVGID_27_);fill:#2BAAE1;}
	.st165{clip-path:url(#SVGID_27_);fill:#2AAAE2;}
	.st166{clip-path:url(#SVGID_27_);fill:#2BA9E1;}
	.st167{clip-path:url(#SVGID_27_);fill:#2AA3DA;}
	.st168{clip-path:url(#SVGID_27_);fill:#2A9ED5;}
	.st169{clip-path:url(#SVGID_27_);fill:#2999D0;}
	.st170{clip-path:url(#SVGID_27_);fill:#2895CC;}
	.st171{clip-path:url(#SVGID_27_);fill:#2894CA;}
	.st172{clip-path:url(#SVGID_27_);fill:#2688BF;}
	.st173{clip-path:url(#SVGID_27_);fill:#257EB6;}
	.st174{clip-path:url(#SVGID_27_);fill:#247BB3;}
	.st175{clip-path:url(#SVGID_27_);fill:#2377B1;}
	.st176{clip-path:url(#SVGID_27_);fill:#216EA9;}
	.st177{clip-path:url(#SVGID_27_);fill:#206CA6;}
	.st178{clip-path:url(#SVGID_27_);fill:#1F6BA5;}
	.st179{clip-path:url(#SVGID_27_);fill:#1F6AA4;}
	.st180{clip-path:url(#SVGID_27_);fill:#1E67A3;}
	.st181{clip-path:url(#SVGID_27_);fill:#1C609D;}
	.st182{clip-path:url(#SVGID_27_);fill:#195695;}
	.st183{clip-path:url(#SVGID_27_);fill:#185492;}
	.st184{clip-path:url(#SVGID_27_);fill:#18508F;}
	.st185{clip-path:url(#SVGID_27_);fill:#184D8E;}
	.st186{clip-path:url(#SVGID_27_);fill:#184A8C;}
	.st187{fill:url(#SVGID_28_);}
	.st188{fill:url(#SVGID_29_);}
	.st189{fill:url(#SVGID_30_);}
	.st190{fill:url(#SVGID_31_);}
	.st191{fill:url(#SVGID_32_);}
	.st192{fill:url(#SVGID_33_);}
	.st193{fill:url(#SVGID_34_);}
	.st194{fill:url(#SVGID_35_);}
	.st195{fill:url(#SVGID_36_);}
	.st196{fill:url(#SVGID_37_);}
</style>
<linearGradient id="SVGID_1_" gradientUnits="userSpaceOnUse" x1="-30.6383" y1="376.9824" x2="-29.9312" y2="376.2753">
	<stop  offset="0" style="stop-color:#20AC4B"/>
	<stop  offset="0.9831" style="stop-color:#19361A"/>
</linearGradient>
<g>
	<path class="st0" d="M234,115.8c-1.9-0.9-2-1.5-2-5.1c0-6.7,0.5-12.1,0.7-14.3c0.1-1.5,0.4-2.2,1.1-2.2c0.8,0,0.9,0.4,0.9,1.5
		c0,1.2,0,3.1,0.4,5c2,10,10.9,13.8,20,13.8c12.9,0,19.3-9.3,19.3-17.9c0-9.3-3.9-14.7-15.5-24.3l-6.1-5
		c-14.3-11.7-17.5-20.1-17.5-29.3c0-14.4,10.8-24.3,27.9-24.3c5.3,0,9.2,0.5,12.5,1.3c2.6,0.5,3.6,0.7,4.7,0.7s1.3,0.3,1.3,0.9
		s-0.5,5.1-0.5,14.3c0,2.2-0.3,3.1-0.9,3.1c-0.8,0-0.9-0.7-1.1-1.8c-0.1-1.6-0.9-5.3-1.8-6.7c-0.8-1.5-4.5-7.1-16.9-7.1
		c-9.3,0-16.6,5.8-16.6,15.6c0,7.7,3.5,12.5,16.5,22.7l3.8,3c15.9,12.5,19.7,20.9,19.7,31.7c0,5.5-2.2,15.8-11.5,22.4
		c-5.8,4-13.1,5.7-20.4,5.7C245.7,119.4,239.5,118.5,234,115.8z"/>
	<path class="st0" d="M316.4,64c0-17.8,0-21-0.3-24.7c-0.3-3.9-0.9-5.8-4.9-6.3c-0.9-0.1-3-0.3-4-0.3c-0.4,0-0.9-0.5-0.9-0.9
		c0-0.7,0.5-0.9,1.9-0.9c5.4,0,13.1,0.3,13.8,0.3c0.8,0,25.6,0.1,28.3,0c2.3-0.1,4.5-0.5,5.4-0.7c0.5-0.1,1.1-0.5,1.6-0.5
		c0.4,0,0.5,0.5,0.5,1.1c0,0.8-0.7,2.2-0.9,5.4c-0.1,1.1-0.4,6.2-0.7,7.6c-0.1,0.5-0.5,1.2-1.1,1.2c-0.7,0-0.9-0.5-0.9-1.5
		c0-0.8-0.1-2.7-0.7-4c-0.8-1.9-2-2.7-8.5-3.5c-2-0.3-15.8-0.4-17.1-0.4c-0.5,0-0.7,0.4-0.7,1.2V68c0,0.8,0,1.2,0.7,1.2
		c1.5,0,17.1,0,19.8-0.3c2.8-0.3,4.6-0.4,5.8-1.6c0.8-0.8,1.3-1.5,1.8-1.5s0.7,0.3,0.7,0.9c0,0.7-0.7,2.6-0.9,6.3
		c-0.3,2.3-0.5,6.6-0.5,7.4c0,0.9-0.3,2.2-1.1,2.2c-0.5,0-0.8-0.4-0.8-1.1c0-1.1,0-2.3-0.5-3.8c-0.4-1.6-1.5-3-6.1-3.5
		c-3.2-0.4-15.9-0.5-17.9-0.5c-0.7,0-0.8,0.4-0.8,0.8v9.6c0,3.9-0.1,17.3,0,19.6c0.3,7.7,2.4,9.2,14.2,9.2c3.1,0,8.8,0,11.9-1.2
		c3.1-1.3,4.7-3.4,5.4-8c0.3-1.3,0.5-1.8,1.2-1.8s0.8,0.9,0.8,1.8c0,0.8-0.9,8.6-1.6,11.1c-0.8,3-2,3-6.6,3
		c-8.9,0-15.8-0.3-20.6-0.4c-5-0.3-8.1-0.3-9.8-0.3c-0.3,0-2.6,0-5.1,0.1c-2.3,0.1-5,0.3-6.9,0.3c-1.2,0-1.9-0.3-1.9-0.9
		c0-0.4,0.3-0.9,0.9-0.9c1.1,0,2.6-0.4,3.6-0.5c2.3-0.4,2.6-2.7,3.1-6.1c0.7-4.7,0.7-13.8,0.7-24.8V64z"/>
	<path class="st0" d="M446.6,88.2c0-9.3-0.3-10.7-5.1-11.6c-0.9-0.1-3-0.3-4-0.3c-0.4,0-0.9-0.5-0.9-0.9c0-0.8,0.5-0.9,1.9-0.9
		c5.4,0,13.4,0.3,14,0.3c0.5,0,8-0.3,11.6-0.3c1.3,0,1.9,0.1,1.9,0.9c0,0.4-0.5,0.9-0.9,0.9c-0.8,0-1.6,0-3,0.3
		c-3.2,0.5-4.2,2.3-4.5,6.3c-0.1,3.6-0.1,7-0.1,11.9v12.8c0,5.3-0.1,5.4-1.6,6.2c-7.6,3.9-18.3,5.1-25.2,5.1
		c-9,0-25.9-1.1-39.1-12.3c-7.3-6.1-14.2-18.3-14.2-32.6c0-18.3,9.3-31.3,19.8-37.6c10.7-6.5,22.5-7.3,31.6-7.3
		c7.6,0,15.9,1.3,18.2,1.9c2.4,0.5,6.6,1.2,9.6,1.2c1.2,0,1.5,0.5,1.5,1.1c0,1.6-0.7,4.7-0.7,16.2c0,1.9-0.5,2.4-1.3,2.4
		c-0.7,0-0.8-0.7-0.8-1.8c-0.1-1.5-0.8-4.9-2.7-7.6c-3-4.3-12-8.9-27.4-8.9c-7.1,0-15.8,0.5-24.8,7.4c-6.9,5.3-11.7,15.5-11.7,28.9
		c0,16.2,8.4,27.8,12.5,31.7c9.4,8.8,19.4,12,30.3,12c4.2,0,9.7-0.4,12.8-2.2c1.5-0.8,2.4-1.3,2.4-3.5V88.2z"/>
	<path class="st0" d="M487,64c0-17.8,0-21-0.3-24.7s-0.9-5.8-4.9-6.3c-0.9-0.1-3-0.3-4-0.3c-0.4,0-0.9-0.5-0.9-0.9
		c0-0.7,0.5-0.9,1.9-0.9c5.4,0,12.5,0.3,13.6,0.3c1.1,0,8.5-0.3,12-0.3c1.3,0,2,0.3,2,0.9c0,0.4-0.5,0.9-1.1,0.9c-0.8,0-1.5,0-3,0.3
		c-3.1,0.5-3.8,2.6-4,6.3c-0.3,3.6-0.3,6.9-0.3,24.7v16c0,16.6,3.6,23.5,8.8,28.1c5.8,5.3,10.9,6.2,17.7,6.2
		c7.3,0,14.3-3.2,18.3-8.1c5.5-6.6,6.7-16,6.7-27.8V64c0-17.8-0.1-21-0.3-24.7c-0.1-3.6-0.8-5.8-4.7-6.3c-0.9-0.1-3-0.3-4-0.3
		c-0.5,0-0.9-0.5-0.9-0.9c0-0.7,0.5-0.9,1.9-0.9c5.3,0,12.1,0.3,12.8,0.3c0.8,0,6.5-0.3,10-0.3c1.3,0,1.9,0.3,1.9,0.9
		c0,0.4-0.4,0.9-0.9,0.9c-0.8,0-1.5,0-3,0.3c-3.2,0.7-3.9,2.6-4.2,6.3c-0.3,3.6-0.1,6.9-0.1,24.7v12.3c0,12.4-1.6,26.3-11.1,34.4
		c-8.6,7.4-17.8,8.4-24.8,8.4c-3.9,0-16.3-0.3-24.7-8.1c-5.8-5.4-10.4-13.4-10.4-30.1V64z"/>
	<path class="st0" d="M591.8,64c0-17.8,0-21-0.3-24.7c-0.3-3.9-0.9-5.8-4.9-6.3c-0.9-0.1-3-0.3-4-0.3c-0.4,0-0.9-0.5-0.9-0.9
		c0-0.7,0.5-0.9,1.9-0.9c5.4,0,13.4,0.3,14,0.3c1.2,0,11.2-0.3,14.8-0.3c7.6,0,15.9,0.7,22.1,5c3,2.2,8.2,7.7,8.2,15.6
		c0,8.5-3.5,16.7-14.6,26.2c9.7,12.1,17.9,22.5,24.8,29.7c6.3,6.5,10.3,7.6,13.2,8c2.3,0.4,3.5,0.4,4.2,0.4c0.7,0,1.1,0.5,1.1,0.9
		c0,0.7-0.7,0.9-2.8,0.9h-7.4c-6.7,0-9.7-0.7-12.7-2.3c-5.1-2.7-9.4-8.2-16.2-16.9c-5-6.2-10.3-13.6-12.8-16.7
		c-0.5-0.5-0.8-0.7-1.6-0.7l-15.1-0.3c-0.5,0-0.8,0.3-0.8,0.9v2.7c0,11.1,0,20,0.5,24.7c0.4,3.4,1.1,5.5,4.7,6.1
		c1.6,0.3,4.2,0.5,5.3,0.5c0.8,0,0.9,0.5,0.9,0.9c0,0.5-0.5,0.9-1.9,0.9c-6.5,0-14-0.4-14.6-0.4c-0.1,0-8.1,0.4-11.7,0.4
		c-1.2,0-1.9-0.3-1.9-0.9c0-0.4,0.3-0.9,0.9-0.9c1.1,0,2.6-0.3,3.6-0.5c2.3-0.5,2.6-2.7,3.1-6.1c0.7-4.7,0.7-13.8,0.7-24.8V64z
		 M602.1,73.7c0,0.7,0.3,1.1,0.8,1.5c1.8,0.9,7.8,1.8,13.1,1.8c2.8,0,6.1-0.1,8.9-2c4-2.7,7.1-8.8,7.1-17.5
		c0-14.3-7.8-22.5-20.5-22.5c-3.5,0-7.3,0.4-8.5,0.7c-0.5,0.3-0.9,0.7-0.9,1.3V73.7z"/>
	<path class="st0" d="M717.9,29.2c26.7,0,46.9,16.3,46.9,43c0,25.6-19,46.8-47.6,46.8c-32.5,0-46.4-24.4-46.4-45
		C670.8,55.5,685.1,29.2,717.9,29.2z M720.6,114.3c10.7,0,32.1-5.7,32.1-38.8c0-27.5-16.7-41.9-35.5-41.9
		c-19.8,0-34.1,12.4-34.1,37.4C683.1,97.5,699.2,114.3,720.6,114.3z"/>
	<path class="st0" d="M505.5,172c0-8,0-9.4-0.1-11.1c-0.1-1.7-0.5-2.6-2.2-2.9c-0.4-0.1-1.3-0.2-1.7-0.2c-0.2,0-0.4-0.1-0.4-0.3
		c0-0.3,0.3-0.4,0.8-0.4c2.3,0,5.5,0.2,5.8,0.2c1.2,0,3.2-0.2,5.6-0.2c8.4,0,10.3,5.1,10.3,7.7c0,4.2-2.4,6.7-4.8,9.2
		c3.8,1.2,8.9,4.8,8.9,10.8c0,5.5-4.3,11.2-13.1,11.2c-0.6,0-2.2-0.1-3.7-0.2c-1.5-0.1-2.9-0.2-3.1-0.2c-0.1,0-1,0-2.1,0.1
		c-1,0-2.2,0.1-3,0.1c-0.6,0-0.8-0.1-0.8-0.4c0-0.2,0.1-0.3,0.4-0.3c0.5,0,1.1-0.1,1.5-0.2c1-0.2,1.3-1.3,1.5-2.8
		c0.3-2.2,0.3-6.2,0.3-11.1V172z M509.6,173.1c0,0.4,0.1,0.5,0.4,0.6c0.3,0.1,1.2,0.2,3.1,0.2c2.9,0,3.6-0.1,4.7-1.3
		c1.1-1.2,1.8-3.1,1.8-5.2c0-4.3-1.9-8.8-6.9-8.8c-0.6,0-1.6,0.1-2.5,0.3c-0.5,0.1-0.6,0.3-0.6,0.6V173.1z M509.6,178.6
		c0,4,0,10.3,0.1,11.1c0.2,2.5,0.2,3.2,1.7,4c1.4,0.7,3.6,0.8,4.5,0.8c2.8,0,7.2-1.5,7.2-7.3c0-3.1-1-7.5-5-10.3
		c-1.7-1.2-3-1.3-4.3-1.5c-0.7-0.1-3.2-0.1-4-0.1c-0.2,0-0.3,0.1-0.3,0.4V178.6z"/>
	<path class="st0" d="M543.5,163.8c0.6-1.4,0.8-1.7,1.1-1.7c0.5,0,0.6,0.6,1.1,1.6c0.8,1.8,8.1,19.9,10.8,26.5
		c1.6,3.9,2.9,4.5,3.8,4.8c0.7,0.2,1.3,0.3,1.8,0.3c0.3,0,0.6,0.1,0.6,0.4s-0.5,0.4-1,0.4c-0.7,0-4,0-7.1-0.1
		c-0.9-0.1-1.6-0.1-1.6-0.3c0-0.2,0.1-0.2,0.3-0.3c0.3-0.1,0.7-0.5,0.4-1.2l-4.1-10c-0.1-0.2-0.2-0.3-0.4-0.3h-10.4
		c-0.2,0-0.4,0.1-0.5,0.4l-2.6,7c-0.4,1.1-0.7,2.2-0.7,2.9c0,0.9,0.8,1.2,1.5,1.2h0.4c0.4,0,0.5,0.2,0.5,0.4c0,0.3-0.3,0.4-0.7,0.4
		c-1.1,0-3.5-0.2-4.1-0.2c-0.5,0-2.7,0.2-4.6,0.2c-0.6,0-0.9-0.1-0.9-0.4c0-0.2,0.2-0.4,0.4-0.4c0.3,0,1-0.1,1.3-0.1
		c2.1-0.3,2.9-1.8,3.8-4L543.5,163.8z M548.6,182c0.2,0,0.2-0.1,0.2-0.3l-4.5-12c-0.3-0.7-0.5-0.7-0.8,0l-4.2,12
		c-0.1,0.2,0,0.3,0.2,0.3H548.6z"/>
	<path class="st0" d="M562.8,195.3c-0.6-0.3-0.7-0.5-0.7-1.6c0-2.2,0.2-3.9,0.3-4.6c0-0.5,0.1-0.7,0.4-0.7s0.4,0.2,0.4,0.5
		s0,1,0.2,1.6c0.7,3.2,4.1,4.3,7.1,4.3c4.5,0,6.8-2.5,6.8-5.8c0-3.1-1.7-4.6-5.7-7.6l-2.1-1.5c-4.9-3.6-6.5-6.3-6.5-9.3
		c0-5.1,4.1-8.2,10-8.2c1.8,0,3.6,0.3,4.7,0.5c0.9,0.2,1.2,0.2,1.6,0.2s0.5,0.1,0.5,0.3c0,0.2-0.2,1.6-0.2,4.6c0,0.7-0.1,1-0.4,1
		s-0.4-0.2-0.4-0.6c-0.1-0.5-0.4-1.7-0.7-2.2c-0.3-0.5-1.8-2.2-5.9-2.2c-3.3,0-6,1.6-6,4.7c0,2.8,1.4,4.4,5.9,7.4l1.3,0.9
		c5.5,3.7,7.4,6.8,7.4,10.5c0,2.6-1,5.3-4.2,7.4c-1.9,1.2-4.7,1.5-7.2,1.5C567.3,196.5,564.6,196.2,562.8,195.3z"/>
	<path class="st0" d="M600.8,183.3c0,4.2,0,7.6,0.2,9.4c0.2,1.3,0.4,2.1,1.7,2.3c0.6,0.1,1.6,0.2,2.1,0.2c0.3,0,0.4,0.2,0.4,0.4
		c0,0.2-0.2,0.4-0.7,0.4c-2.5,0-5.3-0.2-5.6-0.2c-0.2,0-3.3,0.2-4.7,0.2c-0.5,0-0.7-0.1-0.7-0.4c0-0.2,0.1-0.3,0.4-0.3
		c0.4,0,0.9-0.1,1.3-0.2c0.9-0.2,1.2-1.1,1.3-2.4c0.2-1.8,0.2-5.2,0.2-9.4v-18.3l-6.5,0.1c-2.8,0.1-3.9,0.4-4.6,1.4
		c-0.5,0.8-0.6,1.1-0.7,1.4c-0.1,0.4-0.3,0.4-0.5,0.4c-0.1,0-0.3-0.1-0.3-0.4c0-0.5,0.9-4.4,1-4.7c0.1-0.3,0.3-0.8,0.5-0.8
		c0.3,0,0.8,0.4,2,0.5c1.3,0.2,3,0.2,3.5,0.2h17c1.5,0,2.5-0.1,3.2-0.2c0.7-0.1,1.1-0.2,1.3-0.2s0.2,0.3,0.2,0.5
		c0,1.3-0.2,4.5-0.2,5c0,0.4-0.2,0.6-0.4,0.6s-0.3-0.2-0.4-0.8l-0.1-0.5c-0.2-1.3-1.1-2.3-5.4-2.4l-5.6-0.1V183.3z"/>
	<path class="st0" d="M623.8,183.3c0,4.2,0,7.6,0.2,9.4c0.2,1.3,0.3,2.1,1.6,2.3c0.7,0.1,1.6,0.2,2.1,0.2c0.3,0,0.4,0.2,0.4,0.4
		c0,0.2-0.2,0.4-0.7,0.4c-2.5,0-5.4-0.2-5.6-0.2c-0.3,0-3.1,0.2-4.5,0.2c-0.5,0-0.7-0.1-0.7-0.4c0-0.2,0.1-0.4,0.4-0.4
		c0.4,0,1-0.1,1.4-0.2c0.9-0.2,1-1,1.2-2.3c0.2-1.8,0.3-5.2,0.3-9.4v-7.7c0-6.8,0-8-0.1-9.4c-0.1-1.5-0.5-2.2-1.4-2.4
		c-0.5-0.1-1.1-0.2-1.4-0.2c-0.2,0-0.4-0.2-0.4-0.4c0-0.3,0.2-0.4,0.7-0.4c1.5,0,4.3,0.1,4.6,0.1c0.2,0,3.1-0.1,4.5-0.1
		c0.5,0,0.7,0.1,0.7,0.4c0,0.2-0.2,0.4-0.4,0.4c-0.3,0-0.6,0-1.1,0.1c-1.2,0.3-1.5,0.9-1.6,2.4c-0.1,1.4-0.1,2.6-0.1,9.4V183.3z"/>
	<path class="st0" d="M636,175.6c0-6.8,0-8-0.1-9.4c-0.1-1.5-0.4-2.2-1.8-2.4c-0.4-0.1-1.1-0.1-1.5-0.1c-0.2,0-0.4-0.2-0.4-0.4
		c0-0.3,0.2-0.4,0.7-0.4c2.1,0,5,0.1,5.2,0.1c0.5,0,3.4-0.1,6.1-0.1c4.5,0,12.8-0.4,18.1,5c2.3,2.3,4.4,5.9,4.4,11.1
		c0,5.5-2.4,9.7-4.9,12.3c-2,2-6,5-13.7,5c-2,0-4.4-0.2-6.3-0.3c-2-0.2-3.5-0.3-3.7-0.3c-0.1,0-0.9,0.1-1.8,0.1
		c-0.9,0.1-2,0.1-2.7,0.1c-0.5,0-0.7-0.1-0.7-0.4c0-0.2,0.1-0.4,0.4-0.4c0.4,0,1-0.1,1.4-0.2c0.9-0.2,1-1,1.2-2.3
		c0.3-1.8,0.3-5.2,0.3-9.4V175.6z M640.1,180.3c0,4.6,0,8.7,0.1,9.5c0.1,1.1,0.2,2.7,0.5,3.1c0.6,0.8,2.2,1.7,7.5,1.7
		c4.2,0,7.9-1.4,10.6-4c2.4-2.2,3.5-6.4,3.5-10.4c0-5.5-2.4-9.1-4.3-10.9c-4.3-4.3-9.2-4.9-14.6-4.9c-0.9,0-2.3,0.2-2.7,0.3
		c-0.4,0.2-0.6,0.4-0.6,0.9V180.3z"/>
	<path class="st0" d="M687.8,162.3c10.2,0,17.9,6.2,17.9,16.4c0,9.8-7.2,17.8-18.1,17.8c-12.4,0-17.7-9.3-17.7-17.1
		C669.8,172.3,675.3,162.3,687.8,162.3z M688.8,194.7c4.1,0,12.2-2.2,12.2-14.8c0-10.5-6.4-16-13.5-16c-7.5,0-13,4.7-13,14.2
		C674.5,188.3,680.6,194.7,688.8,194.7z"/>
	<path class="st0" d="M712.5,175.6c0-6.8,0-8-0.1-9.4c-0.1-1.5-0.4-2.2-1.8-2.4c-0.4-0.1-1.1-0.1-1.5-0.1c-0.2,0-0.4-0.2-0.4-0.4
		c0-0.3,0.2-0.4,0.7-0.4c2.1,0,5.1,0.1,5.3,0.1c0.5,0,4.3-0.1,5.6-0.1c2.9,0,6.1,0.3,8.4,1.9c1.1,0.8,3.1,2.9,3.1,6
		c0,3.2-1.3,6.4-5.5,10c3.7,4.6,6.8,8.6,9.4,11.3c2.4,2.5,3.9,2.9,5,3c0.9,0.2,1.3,0.2,1.6,0.2s0.4,0.2,0.4,0.4
		c0,0.3-0.3,0.4-1.1,0.4h-2.8c-2.6,0-3.7-0.3-4.8-0.9c-2-1-3.6-3.1-6.2-6.4c-1.9-2.4-3.9-5.2-4.9-6.4c-0.2-0.2-0.3-0.3-0.6-0.3
		l-5.7-0.1c-0.2,0-0.3,0.1-0.3,0.4v1c0,4.2,0,7.6,0.2,9.4c0.2,1.3,0.4,2.1,1.8,2.3c0.6,0.1,1.6,0.2,2,0.2c0.3,0,0.4,0.2,0.4,0.4
		c0,0.2-0.2,0.4-0.7,0.4c-2.5,0-5.3-0.2-5.5-0.2c-0.1,0-3.1,0.2-4.5,0.2c-0.5,0-0.7-0.1-0.7-0.4c0-0.2,0.1-0.4,0.4-0.4
		c0.4,0,1-0.1,1.4-0.2c0.9-0.2,1-1,1.2-2.3c0.3-1.8,0.3-5.2,0.3-9.4V175.6z M716.4,179.2c0,0.3,0.1,0.4,0.3,0.6c0.7,0.4,3,0.7,5,0.7
		c1.1,0,2.3-0.1,3.4-0.8c1.5-1,2.7-3.3,2.7-6.7c0-5.4-3-8.6-7.8-8.6c-1.3,0-2.8,0.2-3.2,0.3c-0.2,0.1-0.4,0.3-0.4,0.5V179.2z"/>
	<path class="st0" d="M744.4,175.6c0-6.8,0-8-0.1-9.4c-0.1-1.5-0.4-2.2-1.8-2.4c-0.4-0.1-1.1-0.1-1.5-0.1c-0.2,0-0.4-0.2-0.4-0.4
		c0-0.3,0.2-0.4,0.7-0.4c2.1,0,5,0.1,5.2,0.1c0.3,0,9.8,0.1,10.8,0c0.9-0.1,1.7-0.2,2.1-0.3c0.2-0.1,0.4-0.2,0.6-0.2
		c0.2,0,0.2,0.2,0.2,0.4c0,0.3-0.3,0.8-0.4,2.1c-0.1,0.4-0.2,2.4-0.3,2.9c-0.1,0.2-0.2,0.5-0.4,0.5c-0.3,0-0.4-0.2-0.4-0.6
		c0-0.3-0.1-1-0.3-1.5c-0.3-0.7-0.8-1-3.2-1.3c-0.8-0.1-6-0.2-6.5-0.2c-0.2,0-0.3,0.2-0.3,0.5v11.9c0,0.3,0,0.5,0.3,0.5
		c0.6,0,6.5,0,7.5-0.1c1.1-0.1,1.7-0.2,2.2-0.6c0.3-0.3,0.5-0.6,0.7-0.6c0.2,0,0.3,0.1,0.3,0.4s-0.3,1-0.4,2.4
		c-0.1,0.9-0.2,2.5-0.2,2.8c0,0.4-0.1,0.8-0.4,0.8c-0.2,0-0.3-0.2-0.3-0.4c0-0.4,0-0.9-0.2-1.4c-0.2-0.6-0.6-1.1-2.3-1.3
		c-1.2-0.2-6.1-0.2-6.8-0.2c-0.3,0-0.3,0.2-0.3,0.3v3.6c0,1.5-0.1,6.6,0,7.4c0.1,2.9,0.9,3.5,5.4,3.5c1.2,0,3.3,0,4.5-0.5
		c1.2-0.5,1.8-1.3,2.1-3c0.1-0.5,0.2-0.7,0.5-0.7c0.3,0,0.3,0.4,0.3,0.7c0,0.3-0.4,3.3-0.6,4.2c-0.3,1.1-0.8,1.1-2.5,1.1
		c-3.4,0-6-0.1-7.9-0.2c-1.9-0.1-3.1-0.1-3.7-0.1c-0.1,0-1,0-2,0.1c-0.9,0.1-1.9,0.1-2.6,0.1c-0.5,0-0.7-0.1-0.7-0.4
		c0-0.2,0.1-0.4,0.4-0.4c0.4,0,1-0.2,1.4-0.2c0.9-0.2,1-1,1.2-2.3c0.3-1.8,0.3-5.2,0.3-9.4V175.6z"/>
	<path class="st0" d="M766.3,195.3c-0.6-0.3-0.7-0.5-0.7-1.6c0-2.2,0.2-3.9,0.3-4.6c0-0.5,0.1-0.7,0.4-0.7s0.4,0.2,0.4,0.5
		s0,1,0.2,1.6c0.7,3.2,4.1,4.3,7.1,4.3c4.5,0,6.8-2.5,6.8-5.8c0-3.1-1.7-4.6-5.7-7.6l-2.1-1.5c-4.9-3.6-6.5-6.3-6.5-9.3
		c0-5.1,4.1-8.2,10-8.2c1.8,0,3.6,0.3,4.7,0.5c0.9,0.2,1.2,0.2,1.6,0.2s0.5,0.1,0.5,0.3c0,0.2-0.2,1.6-0.2,4.6c0,0.7-0.1,1-0.4,1
		s-0.4-0.2-0.4-0.6c-0.1-0.5-0.4-1.7-0.7-2.2c-0.3-0.5-1.8-2.2-5.9-2.2c-3.3,0-6,1.6-6,4.7c0,2.8,1.4,4.4,5.9,7.4l1.3,0.9
		c5.5,3.7,7.4,6.8,7.4,10.5c0,2.6-1,5.3-4.2,7.4c-1.9,1.2-4.7,1.5-7.2,1.5C770.8,196.5,768.2,196.2,766.3,195.3z"/>
</g>
<linearGradient id="SVGID_2_" gradientUnits="userSpaceOnUse" x1="258.7476" y1="164.2937" x2="283.6342" y2="164.2937">
	<stop  offset="0" style="stop-color:#194789"/>
	<stop  offset="1" style="stop-color:#130E40"/>
</linearGradient>
<path class="st1" d="M269.1,143.3c0,0-2.6-1-3.2-2.8c-1.1-3.5,1.3-6.2,1.3-6.2s2.4-2.1,4.7-1.8c1.8,0,4.1,1.4,4.7,3.7
	c0.5,2.5,0.4,4.1-0.7,5.3c-1.1,1.2-2.6,2-2.6,2s-0.3,0.6,0.2,0.6c0.5,0,6-0.7,7.5,1.1c1.5,1.8,2.6,2.1,2.6,6c0,3.9,0,16.3,0,16.3
	s-0.7,1.9-1.8,2c-1.2,0.1-2.5-0.5-2.7-1.3c-0.2-0.9-0.2-1.6-0.2-1.6l0-13.9h-1l0,41.8c0,0-1.2,1.8-2.5,1.8c-1.3,0-2-0.2-2.7-1
	c-0.7-0.8-0.7-0.9-0.7-0.9l0-24.7h-1.3v24.7c0,0-1.3,1.9-2.6,2c-1.3,0-1.9,0-2.3-0.3c-0.4-0.3-1.2-1.3-1.2-1.6
	c-0.1-0.3,0.3-41.5,0.3-41.5l-1.1,0l-0.1,15c0,0-0.7,1.9-2,1.9c-1.3,0-2-0.5-2.4-1.3c-0.4-0.8-0.3-1.7-0.3-1.7l0-17.8
	c0,0,1.2-3.3,3-4.1c1.7-0.9,1.9-0.7,4.5-0.8c2.5,0,3,0,3,0l0-0.7L269.1,143.3z"/>
<linearGradient id="SVGID_3_" gradientUnits="userSpaceOnUse" x1="229.2593" y1="164.2916" x2="254.1459" y2="164.2916">
	<stop  offset="0" style="stop-color:#194789"/>
	<stop  offset="1" style="stop-color:#130E40"/>
</linearGradient>
<path class="st2" d="M239.6,143.3c0,0-2.6-1-3.2-2.8c-1.1-3.5,1.3-6.2,1.3-6.2s2.4-2.1,4.7-1.8c1.8,0,4.1,1.4,4.7,3.7
	c0.5,2.5,0.4,4.1-0.7,5.3c-1.1,1.2-2.6,2-2.6,2s-0.3,0.6,0.2,0.6c0.5,0,6-0.7,7.5,1.1c1.5,1.8,2.6,2.1,2.6,6c0,3.9,0,16.3,0,16.3
	s-0.7,1.9-1.8,2c-1.2,0.1-2.5-0.5-2.7-1.3c-0.2-0.9-0.2-1.5-0.2-1.5l0-13.9h-1l0,41.8c0,0-1.2,1.8-2.5,1.8c-1.3,0-2-0.2-2.7-1
	c-0.7-0.8-0.7-0.9-0.7-0.9l0-24.7h-1.3v24.7c0,0-1.3,1.9-2.6,2c-1.3,0-1.9,0-2.3-0.3c-0.4-0.3-1.2-1.4-1.2-1.6
	c-0.1-0.3,0.3-41.5,0.3-41.5l-1.1,0l-0.1,15c0,0-0.7,1.9-2,1.9c-1.3,0-2-0.5-2.4-1.3c-0.4-0.8-0.3-1.7-0.3-1.7l0-17.8
	c0,0,1.2-3.3,3-4.1c1.7-0.9,1.9-0.7,4.5-0.8c2.5,0,3,0,3,0l0-0.7L239.6,143.3z"/>
<linearGradient id="SVGID_4_" gradientUnits="userSpaceOnUse" x1="288.2731" y1="164.2565" x2="313.1596" y2="164.2565">
	<stop  offset="0" style="stop-color:#194789"/>
	<stop  offset="1" style="stop-color:#130E40"/>
</linearGradient>
<path class="st3" d="M298.6,143.3c0,0-2.6-1-3.2-2.8c-1.1-3.5,1.3-6.2,1.3-6.2s2.4-2.1,4.7-1.8c1.8,0,4.1,1.4,4.7,3.7
	c0.5,2.5,0.4,4.1-0.7,5.3c-1.1,1.2-2.6,2-2.6,2s-0.3,0.6,0.2,0.6c0.5,0,6-0.7,7.5,1.1c1.5,1.8,2.6,2.1,2.6,6c0,3.9,0,16.3,0,16.3
	s-0.7,1.9-1.8,2c-1.2,0.1-2.5-0.5-2.7-1.3c-0.2-0.9-0.2-1.6-0.2-1.6l0-13.9h-1l0,41.8c0,0-1.2,1.8-2.5,1.8c-1.3,0-2-0.2-2.7-1
	c-0.7-0.8-0.7-0.9-0.7-0.9l0-24.7h-1.3v24.7c0,0-1.3,1.9-2.6,2c-1.3,0-1.9,0-2.3-0.3c-0.4-0.3-1.2-1.3-1.2-1.6
	c-0.1-0.3,0.3-41.5,0.3-41.5l-1.1,0l-0.1,15c0,0-0.7,1.9-2,1.9c-1.3,0-2-0.5-2.4-1.3c-0.4-0.8-0.3-1.7-0.3-1.7l0-17.8
	c0,0,1.2-3.3,3-4.1c1.7-0.8,1.9-0.7,4.5-0.8c2.5,0,3,0,3,0l0-0.7L298.6,143.3z"/>
<linearGradient id="SVGID_5_" gradientUnits="userSpaceOnUse" x1="317.0166" y1="164.2937" x2="341.9027" y2="164.2937">
	<stop  offset="0" style="stop-color:#194789"/>
	<stop  offset="1" style="stop-color:#130E40"/>
</linearGradient>
<path class="st4" d="M327.4,143.3c0,0-2.6-1-3.2-2.8c-1.1-3.5,1.3-6.2,1.3-6.2s2.4-2.1,4.7-1.8c1.8,0,4.1,1.4,4.7,3.7
	c0.5,2.5,0.4,4.1-0.7,5.3c-1.1,1.2-2.6,2-2.6,2s-0.3,0.6,0.2,0.6c0.5,0,6-0.7,7.5,1.1c1.5,1.8,2.6,2.1,2.6,6c0,3.9,0,16.3,0,16.3
	s-0.7,1.9-1.8,2c-1.2,0.1-2.5-0.5-2.7-1.3c-0.2-0.9-0.2-1.6-0.2-1.6l0-13.9h-1l0,41.8c0,0-1.2,1.8-2.5,1.8c-1.3,0-2-0.2-2.7-1
	c-0.7-0.8-0.7-0.9-0.7-0.9l0-24.7h-1.3v24.7c0,0-1.3,1.9-2.6,2c-1.3,0-1.9,0-2.3-0.3c-0.4-0.3-1.2-1.3-1.2-1.6
	c-0.1-0.3,0.3-41.5,0.3-41.5l-1.1,0l-0.1,15c0,0-0.7,1.9-2,1.9c-1.3,0-2-0.5-2.4-1.3c-0.5-0.8-0.3-1.7-0.3-1.7l0-17.8
	c0,0,1.2-3.3,3-4.1c1.7-0.9,1.9-0.7,4.5-0.8c2.5,0,3,0,3,0l0-0.7L327.4,143.3z"/>
<linearGradient id="SVGID_6_" gradientUnits="userSpaceOnUse" x1="346.1323" y1="164.2614" x2="371.0184" y2="164.2614">
	<stop  offset="0" style="stop-color:#194789"/>
	<stop  offset="1" style="stop-color:#130E40"/>
</linearGradient>
<path class="st5" d="M356.5,143.3c0,0-2.6-1-3.2-2.8c-1.1-3.5,1.3-6.2,1.3-6.2s2.4-2.1,4.7-1.8c1.8,0,4.1,1.4,4.7,3.7
	c0.5,2.5,0.4,4.1-0.7,5.3c-1.1,1.2-2.6,2-2.6,2s-0.3,0.6,0.2,0.6c0.5,0,6-0.7,7.5,1.1c1.5,1.8,2.6,2.1,2.6,6c0,3.9,0,16.3,0,16.3
	s-0.6,1.9-1.8,2c-1.2,0.1-2.5-0.5-2.7-1.3c-0.2-0.9-0.2-1.6-0.2-1.6l0-13.9h-1l0,41.8c0,0-1.2,1.8-2.5,1.8c-1.3,0-2-0.2-2.7-1
	c-0.7-0.8-0.7-1-0.7-1l0-24.7H358v24.7c0,0-1.3,1.9-2.6,2c-1.3,0-1.9,0-2.3-0.3c-0.4-0.3-1.2-1.4-1.2-1.6
	c-0.1-0.3,0.3-41.5,0.3-41.5l-1.1,0l-0.1,15c0,0-0.7,1.9-2,1.9c-1.3,0-2-0.5-2.4-1.3c-0.5-0.8-0.3-1.7-0.3-1.7l0-17.8
	c0,0,1.2-3.3,3-4.1c1.7-0.9,1.9-0.7,4.5-0.8c2.5,0,3,0,3,0l0-0.7L356.5,143.3z"/>
<linearGradient id="SVGID_7_" gradientUnits="userSpaceOnUse" x1="374.4377" y1="164.2389" x2="399.3246" y2="164.2389">
	<stop  offset="0" style="stop-color:#194789"/>
	<stop  offset="1" style="stop-color:#130E40"/>
</linearGradient>
<path class="st6" d="M384.8,143.2c0,0-2.6-1-3.2-2.8c-1.1-3.5,1.3-6.2,1.3-6.2s2.4-2.1,4.7-1.8c1.8,0,4.1,1.4,4.7,3.7
	c0.5,2.5,0.4,4.1-0.7,5.3c-1.1,1.2-2.6,2-2.6,2s-0.3,0.6,0.2,0.6c0.5,0,6-0.7,7.5,1.1c1.5,1.8,2.6,2.1,2.6,6c0,3.9,0,16.3,0,16.3
	s-0.7,1.9-1.8,2c-1.2,0.1-2.5-0.5-2.7-1.3c-0.2-0.9-0.2-1.6-0.2-1.6l0-13.9h-1l0,41.8c0,0-1.2,1.8-2.5,1.8c-1.3,0-2-0.2-2.7-1
	c-0.7-0.8-0.7-0.9-0.7-0.9l0-24.7h-1.3v24.7c0,0-1.3,1.9-2.6,2c-1.3,0-1.9,0-2.3-0.3c-0.4-0.3-1.2-1.3-1.2-1.6
	c-0.1-0.3,0.3-41.5,0.3-41.5l-1.1,0l-0.1,15c0,0-0.7,1.9-2,1.9c-1.3,0-2-0.5-2.4-1.3c-0.5-0.8-0.3-1.7-0.3-1.7l0-17.8
	c0,0,1.2-3.3,3-4.1c1.7-0.9,1.9-0.7,4.5-0.8c2.5,0,3,0,3,0l0-0.7L384.8,143.2z"/>
<linearGradient id="SVGID_8_" gradientUnits="userSpaceOnUse" x1="403.0311" y1="164.2389" x2="427.9183" y2="164.2389">
	<stop  offset="0" style="stop-color:#194789"/>
	<stop  offset="1" style="stop-color:#130E40"/>
</linearGradient>
<path class="st7" d="M413.4,143.2c0,0-2.6-1-3.2-2.8c-1.1-3.5,1.3-6.2,1.3-6.2s2.4-2.1,4.7-1.8c1.8,0,4.1,1.4,4.7,3.7
	c0.5,2.5,0.4,4.1-0.7,5.3c-1.1,1.2-2.6,2-2.6,2s-0.3,0.6,0.2,0.6c0.5,0,6-0.7,7.5,1.1c1.5,1.8,2.6,2.1,2.6,6c0,3.9,0,16.3,0,16.3
	s-0.7,1.9-1.8,2c-1.2,0.1-2.5-0.5-2.7-1.3c-0.2-0.9-0.2-1.6-0.2-1.6l0-13.9h-1l0,41.8c0,0-1.2,1.8-2.5,1.8c-1.3,0-2-0.2-2.7-1
	c-0.7-0.8-0.7-0.9-0.7-0.9l0-24.7h-1.3v24.7c0,0-1.3,1.9-2.6,2c-1.3,0-1.9,0-2.3-0.3c-0.4-0.3-1.2-1.3-1.2-1.6
	c-0.1-0.3,0.3-41.5,0.3-41.5l-1.1,0l-0.1,15c0,0-0.7,1.9-2,1.9s-2-0.5-2.4-1.3c-0.4-0.8-0.3-1.7-0.3-1.7l0-17.8c0,0,1.2-3.3,3-4.1
	c1.7-0.9,1.9-0.7,4.5-0.8c2.5,0,3,0,3,0l0-0.7L413.4,143.2z"/>
<linearGradient id="SVGID_9_" gradientUnits="userSpaceOnUse" x1="-313.4274" y1="126.5863" x2="-307.1573" y2="126.5863" gradientTransform="matrix(0.9542 0.2991 -0.2991 0.9542 586.6628 104.388)">
	<stop  offset="0" style="stop-color:#194789"/>
	<stop  offset="1" style="stop-color:#130E40"/>
</linearGradient>
<polygon class="st8" points="251.6,128.6 248.8,134.5 255.9,132.8 "/>
<linearGradient id="SVGID_10_" gradientUnits="userSpaceOnUse" x1="-44.8832" y1="107.129" x2="-41.0434" y2="107.129" gradientTransform="matrix(0.9872 0.1595 -0.1595 0.9872 314.3057 31.0187)">
	<stop  offset="0" style="stop-color:#194789"/>
	<stop  offset="1" style="stop-color:#130E40"/>
</linearGradient>
<path class="st9" d="M253.2,128.1c0,0,2.6,0.8,3,1.8c0.4,1,0.3,1.8,0.3,1.8S255.8,129.5,253.2,128.1z"/>
<linearGradient id="SVGID_11_" gradientUnits="userSpaceOnUse" x1="-44.4563" y1="106.1661" x2="-39.2974" y2="106.1661" gradientTransform="matrix(0.9872 0.1595 -0.1595 0.9872 314.3057 31.0187)">
	<stop  offset="0" style="stop-color:#194789"/>
	<stop  offset="1" style="stop-color:#130E40"/>
</linearGradient>
<path class="st10" d="M253.8,126.7c0,0,3.5,1,4,2.4c0.6,1.4,0.4,2.4,0.4,2.4S257.3,128.6,253.8,126.7z"/>
<linearGradient id="SVGID_12_" gradientUnits="userSpaceOnUse" x1="-44.1857" y1="105.0077" x2="-36.666" y2="105.0077" gradientTransform="matrix(0.9872 0.1595 -0.1595 0.9872 314.3057 31.0187)">
	<stop  offset="0" style="stop-color:#194789"/>
	<stop  offset="1" style="stop-color:#130E40"/>
</linearGradient>
<path class="st11" d="M254.4,124.7c0,0,5.1,1.5,5.9,3.5c0.8,2,0.6,3.6,0.6,3.6S259.5,127.4,254.4,124.7z"/>
<linearGradient id="SVGID_13_" gradientUnits="userSpaceOnUse" x1="-44.4619" y1="103.6183" x2="-33.2484" y2="103.6183" gradientTransform="matrix(0.9872 0.1595 -0.1595 0.9872 314.3057 31.0187)">
	<stop  offset="0" style="stop-color:#194789"/>
	<stop  offset="1" style="stop-color:#130E40"/>
</linearGradient>
<path class="st12" d="M254.6,121.9c0,0,7.6,2.3,8.8,5.2c1.3,3,0.9,5.3,0.9,5.3S262.2,125.8,254.6,121.9z"/>
<text transform="matrix(1 0 0 1 430.0677 195.0761)" class="st13 st14 st15">&amp;</text>
<linearGradient id="SVGID_14_" gradientUnits="userSpaceOnUse" x1="98.0681" y1="171.32" x2="105.0599" y2="171.32">
	<stop  offset="0" style="stop-color:#194789"/>
	<stop  offset="1" style="stop-color:#130E40"/>
</linearGradient>
<path class="st16" d="M101,165.4c0,0-0.7-0.3-0.9-0.8c-0.3-1,0.4-1.8,0.4-1.8s0.7-0.6,1.3-0.5c0.5,0,1.2,0.4,1.3,1
	c0.1,0.7,0.1,1.1-0.2,1.5c-0.3,0.3-0.7,0.6-0.7,0.6s-0.1,0.2,0.1,0.2c0.1,0,1.7-0.2,2.1,0.3c0.4,0.5,0.7,0.6,0.7,1.7
	c0,1.1,0,4.6,0,4.6s-0.2,0.5-0.5,0.6c-0.3,0-0.7-0.1-0.8-0.4c-0.1-0.2-0.1-0.4-0.1-0.4l0-3.9h-0.3l0,11.7c0,0-0.3,0.5-0.7,0.5
	c-0.4,0-0.6-0.1-0.8-0.3c-0.2-0.2-0.2-0.3-0.2-0.3l0-6.9h-0.4v6.9c0,0-0.4,0.5-0.7,0.5c-0.4,0-0.5,0-0.6-0.1
	c-0.1-0.1-0.3-0.4-0.3-0.5c0-0.1,0.1-11.7,0.1-11.7l-0.3,0l0,4.2c0,0-0.2,0.5-0.6,0.5c-0.4,0-0.5-0.2-0.7-0.4
	c-0.1-0.2-0.1-0.5-0.1-0.5l0-5c0,0,0.3-0.9,0.8-1.2c0.5-0.2,0.5-0.2,1.3-0.2c0.7,0,0.8,0,0.8,0L101,165.4L101,165.4z"/>
<linearGradient id="SVGID_15_" gradientUnits="userSpaceOnUse" x1="89.7834" y1="171.319" x2="96.7753" y2="171.319">
	<stop  offset="0" style="stop-color:#194789"/>
	<stop  offset="1" style="stop-color:#130E40"/>
</linearGradient>
<path class="st17" d="M92.7,165.4c0,0-0.7-0.3-0.9-0.8c-0.3-1,0.4-1.8,0.4-1.8s0.7-0.6,1.3-0.5c0.5,0,1.2,0.4,1.3,1
	c0.1,0.7,0.1,1.1-0.2,1.5c-0.3,0.3-0.7,0.6-0.7,0.6s-0.1,0.2,0.1,0.2c0.1,0,1.7-0.2,2.1,0.3c0.4,0.5,0.7,0.6,0.7,1.7
	c0,1.1,0,4.6,0,4.6s-0.2,0.5-0.5,0.6c-0.3,0-0.7-0.1-0.8-0.4c-0.1-0.2-0.1-0.4-0.1-0.4l0-3.9h-0.3l0,11.7c0,0-0.3,0.5-0.7,0.5
	c-0.4,0-0.6-0.1-0.8-0.3c-0.2-0.2-0.2-0.3-0.2-0.3l0-6.9h-0.4v6.9c0,0-0.4,0.5-0.7,0.5c-0.4,0-0.5,0-0.6-0.1
	c-0.1-0.1-0.3-0.4-0.3-0.5c0-0.1,0.1-11.7,0.1-11.7l-0.3,0l0,4.2c0,0-0.2,0.5-0.6,0.5c-0.4,0-0.5-0.2-0.7-0.4
	c-0.1-0.2-0.1-0.5-0.1-0.5l0-5c0,0,0.3-0.9,0.8-1.2c0.5-0.2,0.5-0.2,1.3-0.2c0.7,0,0.8,0,0.8,0L92.7,165.4L92.7,165.4z"/>
<linearGradient id="SVGID_16_" gradientUnits="userSpaceOnUse" x1="106.3635" y1="171.3092" x2="113.3554" y2="171.3092">
	<stop  offset="0" style="stop-color:#194789"/>
	<stop  offset="1" style="stop-color:#130E40"/>
</linearGradient>
<path class="st18" d="M109.3,165.4c0,0-0.7-0.3-0.9-0.8c-0.3-1,0.4-1.8,0.4-1.8s0.7-0.6,1.3-0.5c0.5,0,1.2,0.4,1.3,1
	c0.1,0.7,0.1,1.1-0.2,1.5c-0.3,0.3-0.7,0.6-0.7,0.6s-0.1,0.2,0.1,0.2c0.1,0,1.7-0.2,2.1,0.3c0.4,0.5,0.7,0.6,0.7,1.7
	c0,1.1,0,4.6,0,4.6s-0.2,0.5-0.5,0.6c-0.3,0-0.7-0.1-0.8-0.4c-0.1-0.2-0.1-0.4-0.1-0.4l0-3.9h-0.3l0,11.7c0,0-0.3,0.5-0.7,0.5
	c-0.4,0-0.6-0.1-0.8-0.3c-0.2-0.2-0.2-0.3-0.2-0.3l0-6.9h-0.4v6.9c0,0-0.4,0.5-0.7,0.5c-0.4,0-0.5,0-0.6-0.1
	c-0.1-0.1-0.3-0.4-0.3-0.5c0-0.1,0.1-11.7,0.1-11.7l-0.3,0l0,4.2c0,0-0.2,0.5-0.6,0.5c-0.4,0-0.5-0.2-0.7-0.4
	c-0.1-0.2-0.1-0.5-0.1-0.5l0-5c0,0,0.3-0.9,0.8-1.2c0.5-0.2,0.5-0.2,1.3-0.2c0.7,0,0.8,0,0.8,0L109.3,165.4L109.3,165.4z"/>
<linearGradient id="SVGID_17_" gradientUnits="userSpaceOnUse" x1="114.4391" y1="171.32" x2="121.4305" y2="171.32">
	<stop  offset="0" style="stop-color:#194789"/>
	<stop  offset="1" style="stop-color:#130E40"/>
</linearGradient>
<path class="st19" d="M117.3,165.4c0,0-0.7-0.3-0.9-0.8c-0.3-1,0.4-1.8,0.4-1.8s0.7-0.6,1.3-0.5c0.5,0,1.2,0.4,1.3,1
	c0.1,0.7,0.1,1.1-0.2,1.5c-0.3,0.3-0.7,0.6-0.7,0.6s-0.1,0.2,0.1,0.2c0.1,0,1.7-0.2,2.1,0.3c0.4,0.5,0.7,0.6,0.7,1.7
	c0,1.1,0,4.6,0,4.6s-0.2,0.5-0.5,0.6c-0.3,0-0.7-0.1-0.8-0.4c-0.1-0.2-0.1-0.4-0.1-0.4l0-3.9h-0.3l0,11.7c0,0-0.3,0.5-0.7,0.5
	c-0.4,0-0.6-0.1-0.8-0.3c-0.2-0.2-0.2-0.3-0.2-0.3l0-6.9h-0.4v6.9c0,0-0.4,0.5-0.7,0.5c-0.4,0-0.5,0-0.6-0.1
	c-0.1-0.1-0.3-0.4-0.3-0.5c0-0.1,0.1-11.7,0.1-11.7l-0.3,0l0,4.2c0,0-0.2,0.5-0.6,0.5s-0.5-0.2-0.7-0.4c-0.1-0.2-0.1-0.5-0.1-0.5
	l0-5c0,0,0.3-0.9,0.8-1.2c0.5-0.2,0.5-0.2,1.3-0.2c0.7,0,0.8,0,0.8,0L117.3,165.4L117.3,165.4z"/>
<linearGradient id="SVGID_18_" gradientUnits="userSpaceOnUse" x1="122.619" y1="171.3105" x2="129.6112" y2="171.3105">
	<stop  offset="0" style="stop-color:#194789"/>
	<stop  offset="1" style="stop-color:#130E40"/>
</linearGradient>
<path class="st20" d="M125.5,165.4c0,0-0.7-0.3-0.9-0.8c-0.3-1,0.4-1.8,0.4-1.8s0.7-0.6,1.3-0.5c0.5,0,1.2,0.4,1.3,1
	c0.1,0.7,0.1,1.1-0.2,1.5c-0.3,0.3-0.7,0.6-0.7,0.6s-0.1,0.2,0.1,0.2c0.1,0,1.7-0.2,2.1,0.3c0.4,0.5,0.7,0.6,0.7,1.7
	c0,1.1,0,4.6,0,4.6s-0.2,0.5-0.5,0.6c-0.3,0-0.7-0.1-0.8-0.4c-0.1-0.2-0.1-0.4-0.1-0.4l0-3.9H128l0,11.7c0,0-0.3,0.5-0.7,0.5
	c-0.4,0-0.6-0.1-0.8-0.3c-0.2-0.2-0.2-0.3-0.2-0.3l0-6.9H126v6.9c0,0-0.4,0.5-0.7,0.5c-0.4,0-0.5,0-0.6-0.1
	c-0.1-0.1-0.3-0.4-0.3-0.5c0-0.1,0.1-11.7,0.1-11.7l-0.3,0l0,4.2c0,0-0.2,0.5-0.6,0.5c-0.4,0-0.5-0.2-0.7-0.4
	c-0.1-0.2-0.1-0.5-0.1-0.5l0-5c0,0,0.3-0.9,0.8-1.2c0.5-0.2,0.5-0.2,1.3-0.2c0.7,0,0.8,0,0.8,0L125.5,165.4L125.5,165.4z"/>
<linearGradient id="SVGID_19_" gradientUnits="userSpaceOnUse" x1="130.5716" y1="171.3044" x2="137.5634" y2="171.3044">
	<stop  offset="0" style="stop-color:#194789"/>
	<stop  offset="1" style="stop-color:#130E40"/>
</linearGradient>
<path class="st21" d="M133.5,165.4c0,0-0.7-0.3-0.9-0.8c-0.3-1,0.4-1.8,0.4-1.8s0.7-0.6,1.3-0.5c0.5,0,1.2,0.4,1.3,1
	c0.1,0.7,0.1,1.1-0.2,1.5c-0.3,0.3-0.7,0.6-0.7,0.6s-0.1,0.2,0.1,0.2c0.1,0,1.7-0.2,2.1,0.3c0.4,0.5,0.7,0.6,0.7,1.7
	c0,1.1,0,4.6,0,4.6s-0.2,0.5-0.5,0.6c-0.3,0-0.7-0.1-0.8-0.4c-0.1-0.2-0.1-0.4-0.1-0.4l0-3.9H136l0,11.7c0,0-0.3,0.5-0.7,0.5
	c-0.4,0-0.6-0.1-0.8-0.3c-0.2-0.2-0.2-0.3-0.2-0.3l0-6.9h-0.4v6.9c0,0-0.4,0.5-0.7,0.5c-0.4,0-0.5,0-0.6-0.1
	c-0.1-0.1-0.3-0.4-0.3-0.5c0-0.1,0.1-11.7,0.1-11.7l-0.3,0l0,4.2c0,0-0.2,0.5-0.6,0.5c-0.4,0-0.5-0.2-0.7-0.4
	c-0.1-0.2-0.1-0.5-0.1-0.5l0-5c0,0,0.3-0.9,0.8-1.2c0.5-0.2,0.5-0.2,1.3-0.2c0.7,0,0.8,0,0.8,0L133.5,165.4L133.5,165.4z"/>
<linearGradient id="SVGID_20_" gradientUnits="userSpaceOnUse" x1="138.6052" y1="171.3044" x2="145.5971" y2="171.3044">
	<stop  offset="0" style="stop-color:#194789"/>
	<stop  offset="1" style="stop-color:#130E40"/>
</linearGradient>
<path class="st22" d="M141.5,165.4c0,0-0.7-0.3-0.9-0.8c-0.3-1,0.4-1.8,0.4-1.8s0.7-0.6,1.3-0.5c0.5,0,1.2,0.4,1.3,1
	c0.1,0.7,0.1,1.1-0.2,1.5c-0.3,0.3-0.7,0.6-0.7,0.6s-0.1,0.2,0.1,0.2c0.1,0,1.7-0.2,2.1,0.3c0.4,0.5,0.7,0.6,0.7,1.7
	c0,1.1,0,4.6,0,4.6s-0.2,0.5-0.5,0.6c-0.3,0-0.7-0.1-0.8-0.4c-0.1-0.2-0.1-0.4-0.1-0.4l0-3.9H144l0,11.7c0,0-0.3,0.5-0.7,0.5
	c-0.4,0-0.6-0.1-0.8-0.3c-0.2-0.2-0.2-0.3-0.2-0.3l0-6.9h-0.4v6.9c0,0-0.4,0.5-0.7,0.5c-0.4,0-0.5,0-0.6-0.1
	c-0.1-0.1-0.3-0.4-0.3-0.5c0-0.1,0.1-11.7,0.1-11.7l-0.3,0l0,4.2c0,0-0.2,0.5-0.6,0.5c-0.4,0-0.5-0.2-0.7-0.4
	c-0.1-0.2-0.1-0.5-0.1-0.5l0-5c0,0,0.3-0.9,0.8-1.2c0.5-0.2,0.5-0.2,1.3-0.2c0.7,0,0.8,0,0.8,0L141.5,165.4L141.5,165.4z"/>
<linearGradient id="SVGID_21_" gradientUnits="userSpaceOnUse" x1="-451.3962" y1="201.9613" x2="-449.6344" y2="201.9613" gradientTransform="matrix(0.9542 0.2991 -0.2991 0.9542 586.6628 104.388)">
	<stop  offset="0" style="stop-color:#194789"/>
	<stop  offset="1" style="stop-color:#130E40"/>
</linearGradient>
<polygon class="st23" points="96,161.3 95.3,163 97.3,162.5 "/>
<linearGradient id="SVGID_22_" gradientUnits="userSpaceOnUse" x1="-194.2637" y1="163.638" x2="-193.1854" y2="163.638" gradientTransform="matrix(0.9872 0.1595 -0.1595 0.9872 314.3057 31.0187)">
	<stop  offset="0" style="stop-color:#194789"/>
	<stop  offset="1" style="stop-color:#130E40"/>
</linearGradient>
<path class="st24" d="M96.5,161.2c0,0,0.7,0.2,0.8,0.5c0.1,0.3,0.1,0.5,0.1,0.5S97.2,161.5,96.5,161.2z"/>
<linearGradient id="SVGID_23_" gradientUnits="userSpaceOnUse" x1="-194.1442" y1="163.3676" x2="-192.6949" y2="163.3676" gradientTransform="matrix(0.9872 0.1595 -0.1595 0.9872 314.3057 31.0187)">
	<stop  offset="0" style="stop-color:#194789"/>
	<stop  offset="1" style="stop-color:#130E40"/>
</linearGradient>
<path class="st25" d="M96.7,160.8c0,0,1,0.3,1.1,0.7c0.2,0.4,0.1,0.7,0.1,0.7S97.7,161.3,96.7,160.8z"/>
<linearGradient id="SVGID_24_" gradientUnits="userSpaceOnUse" x1="-194.0683" y1="163.0426" x2="-191.9553" y2="163.0426" gradientTransform="matrix(0.9872 0.1595 -0.1595 0.9872 314.3057 31.0187)">
	<stop  offset="0" style="stop-color:#194789"/>
	<stop  offset="1" style="stop-color:#130E40"/>
</linearGradient>
<path class="st26" d="M96.8,160.2c0,0,1.4,0.4,1.7,1c0.2,0.6,0.2,1,0.2,1S98.3,160.9,96.8,160.2z"/>
<linearGradient id="SVGID_25_" gradientUnits="userSpaceOnUse" x1="-194.1456" y1="162.6518" x2="-190.9953" y2="162.6518" gradientTransform="matrix(0.9872 0.1595 -0.1595 0.9872 314.3057 31.0187)">
	<stop  offset="0" style="stop-color:#194789"/>
	<stop  offset="1" style="stop-color:#130E40"/>
</linearGradient>
<path class="st27" d="M96.9,159.4c0,0,2.1,0.6,2.5,1.5c0.4,0.8,0.2,1.5,0.2,1.5S99,160.5,96.9,159.4z"/>
<g>
	
		<image style="overflow:visible;opacity:0.75;" width="355" height="591" xlink:href="367A7240.png"  transform="matrix(0.24 0 0 0.24 67.4017 37.0224)">
	</image>
	<g>
		<g>
			<path class="st28" d="M77.7,152.9c-2-1-2.1-1.6-2.1-5.4c0-7.1,0.6-12.8,0.7-15.1c0.1-1.6,0.4-2.3,1.1-2.3c0.9,0,1,0.4,1,1.6
				c0,1.3,0,3.3,0.4,5.3c2.1,10.5,11.5,14.5,21.1,14.5c13.7,0,20.4-9.8,20.4-18.9c0-9.8-4.1-15.5-16.4-25.6l-6.4-5.3
				C82.4,89.2,79,80.4,79,70.7C79,55.4,90.3,45,108.4,45c5.6,0,9.7,0.6,13.2,1.4c2.7,0.6,3.8,0.7,5,0.7c1.1,0,1.4,0.3,1.4,1
				c0,0.7-0.6,5.4-0.6,15.1c0,2.3-0.3,3.3-1,3.3c-0.9,0-1-0.7-1.1-1.9c-0.1-1.7-1-5.6-1.9-7.1c-0.9-1.6-4.7-7.5-17.8-7.5
				c-9.8,0-17.5,6.1-17.5,16.5c0,8.1,3.7,13.2,17.4,23.9l4,3.1c16.8,13.2,20.8,22.1,20.8,33.5c0,5.8-2.3,16.7-12.1,23.6
				c-6.1,4.3-13.8,6-21.5,6C90.1,156.7,83.5,155.7,77.7,152.9z"/>
		</g>
	</g>
</g>
<g>
	
		<image style="overflow:visible;opacity:0.75;" width="432" height="577" xlink:href="367A725E.png"  transform="matrix(0.24 0 0 0.24 83.4817 39.6624)">
	</image>
	<g>
		<g>
			<path class="st28" d="M103.9,89.1c0-22.2,0-26.2-0.3-30.8c-0.3-4.8-1.4-7.1-6.1-8.1c-1.1-0.3-3.6-0.4-4.8-0.4
				c-0.6,0-1.1-0.3-1.1-0.9c0-0.9,0.7-1.1,2.3-1.1c6.4,0,15.4,0.4,16.1,0.4c3.4,0,9-0.4,15.5-0.4c23.4,0,28.5,14.2,28.5,21.4
				c0,11.7-6.7,18.7-13.4,25.6c10.5,3.3,24.6,13.4,24.6,30.1c0,15.2-12,31-36.3,31c-1.6,0-6.1-0.3-10.3-0.4
				c-4.1-0.3-8.1-0.4-8.7-0.4c-0.3,0-2.7,0-5.7,0.1c-2.8,0-6.1,0.3-8.3,0.3c-1.6,0-2.3-0.3-2.3-1.1c0-0.4,0.3-0.9,1.1-0.9
				c1.3,0,3-0.3,4.3-0.6c2.8-0.6,3.6-3.7,4.1-7.8c0.7-6,0.7-17.2,0.7-30.9V89.1z M115.3,92.3c0,1,0.3,1.3,1,1.6
				c0.9,0.1,3.4,0.6,8.7,0.6c8,0,10-0.3,13-3.7c3-3.4,5.1-8.5,5.1-14.4c0-11.8-5.3-24.5-19.2-24.5c-1.6,0-4.6,0.1-6.8,0.7
				c-1.3,0.3-1.7,0.7-1.7,1.6V92.3z M115.3,107.4c0,11,0,28.6,0.1,30.8c0.4,7,0.4,9,4.8,11.1c3.8,1.9,10,2.1,12.5,2.1
				c7.7,0,20.1-4.1,20.1-20.2c0-8.5-2.8-20.9-13.8-28.5c-4.8-3.3-8.4-3.7-11.8-4.1c-1.9-0.3-9-0.3-11.1-0.3c-0.6,0-0.9,0.3-0.9,1
				V107.4z"/>
		</g>
	</g>
</g>
<g>
	<path class="st0" d="M96.6,123.1c0-6.6,4.2-11,8.6-13.6c-2.1-2.9-2.8-5.2-2.8-7.8c0-4.5,4.6-10.4,12.1-10.4c2.9,0,5.3,0.6,6.8,1.4
		c0.7,0.4,0.7,0.7,0.7,1.4c0,1.7-0.2,5.6-0.4,6.5c-0.2,0.8-0.3,1-0.6,1c-0.3,0-0.3-0.2-0.3-1.1c0-1.5-0.3-3.3-1.7-4.8
		c-1.2-1.3-3.2-2.5-5.6-2.5c-3.4,0-7.2,2.1-7.2,7.4c0,4.4,3,8.1,8.9,14.4c1.9,2.1,8.9,8.6,10.7,10.1c1.6-2.1,2.9-5.9,2.9-9.4
		c0-0.8-0.2-1.9-1.1-2.8c-0.7-0.7-1.9-0.9-2.8-0.9c-0.3,0-0.7-0.1-0.7-0.4s0.5-0.4,0.9-0.4c1.4,0,3.6,0.1,6.8,0.4
		c0.8,0.1,1,0.6,1,1.1c0,4.6-3.1,10.3-5.6,13.3c3.7,3.2,6.2,4.7,7.8,5.6c1.8,1.1,4.7,2.2,6.7,2.2c0.5,0,0.8,0.1,0.8,0.4
		c0,0.2-0.5,0.4-1,0.4h-5.5c-4.2,0-5.5-0.4-11.7-5.3c-1.3,1.3-5.8,6.1-14.1,6.1C100.4,135.6,96.6,128,96.6,123.1z M122.9,128.4
		c-3.2-2.6-8.7-8-10.2-9.5c-1.5-1.6-5.1-5.6-6.7-7.9c-2.9,1.9-5.1,5-5.1,9.5c0,7.1,5,12.1,11.3,12.1
		C117.5,132.6,121,130.4,122.9,128.4z"/>
</g>
<polygon class="st13" points="85.2,68.3 87.6,69.6 85.2,70.9 83.9,73.3 82.5,70.9 80.2,69.6 82.5,68.3 83.9,65.9 "/>
<polygon class="st13" points="159.6,133.1 162.3,134.6 159.6,136 158.2,138.7 156.7,136 154.1,134.6 156.7,133.1 158.2,130.5 "/>
<rect id="_x3C_Slice_x3E__2_" x="-4.8" y="-24.9" class="st29" width="792.9" height="242.7"/>
<g>
	
		<image style="overflow:visible;opacity:0.75;" width="954" height="922" xlink:href="367A725D.png"  transform="matrix(0.24 0 0 0.24 5.5702 3.477)">
	</image>
	<g>
		<g>
			<g>
				<defs>
					<path id="SVGID_26_" d="M105.2,192.1c0,0-6.2-0.4-13.1,2.3c-6.9,2.7-13.3,5.8-15.9,6.7c-2.7,0.9-5.1,0.7-5.1,0.7l0.4-4.1
						c0,0,4.1,0,11.5-4.2c7.4-4.2,14.3-5.1,16.8-5.1c2.5,0,2.5,0,2.5,0s-13.4-2.7-20.3-6.2c-6.9-3.5-10.1-5.1-10.1-5.1
						s-20.7-0.9-29.2-14c-8.5-13.1-9.4-19.6-9.4-19.6s-14.9-5.5-17.9-21.9c-3-16.5-1.2-20.9-1.2-20.9s-0.2-1.2,3.7,0
						c3.9,1.2,5.1,1.6,5.1,1.6s-8-9.7-4.1-24.8c3.9-15,8.8-18.9,8.8-18.9l2.8,0.4c0,0,1.4-12.9,9.7-20.2c8.3-7.3,15.6-9.4,15.6-9.4
						s2.8-8.3,12.4-12.6c9.6-4.2,12-3.7,16.8-3.7c4.8,0,6.5,0.4,6.5,0.4s0.4,0.9,0,3.4c-0.4,2.5-1.2,5.1-1.2,5.1l-0.9,1.6
						c0,0,3.4,0.9,7.4,2.3c4.1,1.4,3.9,3.2,3.9,3.2s-6.9,11.9-11.9,14.2c-5,2.3-8.5,3-8.5,3l-10.1,1.4c0,0-3,12-8.7,16.5
						c-5.7,4.4-9.4,6.4-9.4,6.4S54.1,78,49.6,87c-4.4,9-8.7,13.3-8.7,13.3s6.2,7.6,7.8,14c1.6,6.4,1.8,12.9,1.8,12.9
						s16.1,6.9,21.1,17.5c5,10.6,5,16.1,4.8,20c-0.2,3.9-0.7,9.6-0.7,9.6s14.7,8.2,28.1,9.7c13.4,1.5,20.2,1.5,25.3,1.5
						c5.1,0,9.2-2.7,15.4-4.9c6.2-2.1,10.4-4.6,10.4-4.6s-0.7-15.6,3.2-24.4c3.9-8.8,11.1-12.9,14.5-14.9c3.4-1.9,4.1-3.5,4.1-3.5
						s-1.8-6.2,0.4-13.1c2.1-6.9,7.3-16.3,7.3-16.3s-4.1-9.4-4.1-14.9c0-5.5,0.7-10.4,0.7-10.4s-8.5-3.7-13.3-11.3
						c-4.8-7.6-7.8-17.2-7.8-17.2s-9.4,1.9-18.2-5.3c-8.8-7.3-15-17.9-15-17.9s6.7-2.8,9.6-3.2c2.8-0.4,2.8-0.4,2.8-0.4
						s-2.1-9.9-2.1-11.3c0-1.4,13.8-0.2,21.4,5c7.6,5.1,12.6,14.2,13.1,15.4c0.5,1.2,0.9,2.3,0.9,2.3s7.1,0.9,14.7,8.5
						c7.6,7.6,9.9,13.3,11,17.3c1.1,4.1,1.2,9.2,1.2,9.2l3.9-1.6c0,0,9,8.7,9.4,20.5c0.4,11.9-2.1,16.8-2.1,16.8s4.2,20.9-3.2,29
						c-7.4,8.1-8.7,9-8.7,9s1.2,9.4-4.4,16.6c-5.7,7.3-12.7,15.4-22.3,17.2c-9.6,1.8-13.4,1.8-13.4,1.8s-9.2,4.6-15.7,6.5
						c-6.5,1.9-6.5,1.9-6.5,1.9s12.7,7.3,17.5,9.2c4.8,1.9,5.7,2.5,5.7,2.5l-0.7,3.5h-3c0,0-8.7-5.3-14-8
						c-5.3-2.7-11.5-3.5-15.6-3.5c-4.1,0-9.2,0.2-9.2,0.2s-6.5,1.4-8.8,1.4C105.5,192.6,105.2,192.1,105.2,192.1z"/>
				</defs>
				<clipPath id="SVGID_27_">
					<use xlink:href="#SVGID_26_"  style="overflow:visible;"/>
				</clipPath>
				<rect x="12.3" y="10.6" class="st30" width="1.3" height="191.9"/>
				<rect x="13.6" y="10.6" class="st30" width="0.6" height="191.9"/>
				<rect x="14.2" y="10.6" class="st31" width="0.6" height="191.9"/>
				<rect x="14.7" y="10.6" class="st31" width="0.6" height="191.9"/>
				<rect x="15.3" y="10.6" class="st32" width="0.6" height="191.9"/>
				<rect x="15.9" y="10.6" class="st33" width="0.6" height="191.9"/>
				<rect x="16.5" y="10.6" class="st34" width="0.6" height="191.9"/>
				<rect x="17.1" y="10.6" class="st35" width="0.6" height="191.9"/>
				<rect x="17.7" y="10.6" class="st35" width="0.6" height="191.9"/>
				<rect x="18.2" y="10.6" class="st36" width="0.6" height="191.9"/>
				<rect x="18.8" y="10.6" class="st36" width="0.6" height="191.9"/>
				<rect x="19.4" y="10.6" class="st37" width="0.6" height="191.9"/>
				<rect x="20" y="10.6" class="st38" width="0.6" height="191.9"/>
				<rect x="20.6" y="10.6" class="st39" width="0.6" height="191.9"/>
				<rect x="21.2" y="10.6" class="st39" width="0.6" height="191.9"/>
				<rect x="21.7" y="10.6" class="st40" width="0.6" height="191.9"/>
				<rect x="22.3" y="10.6" class="st40" width="0.6" height="191.9"/>
				<rect x="22.9" y="10.6" class="st40" width="0.6" height="191.9"/>
				<rect x="23.5" y="10.6" class="st41" width="0.6" height="191.9"/>
				<rect x="24.1" y="10.6" class="st41" width="0.6" height="191.9"/>
				<rect x="24.7" y="10.6" class="st42" width="0.6" height="191.9"/>
				<rect x="25.2" y="10.6" class="st42" width="0.6" height="191.9"/>
				<rect x="25.8" y="10.6" class="st43" width="0.6" height="191.9"/>
				<rect x="26.4" y="10.6" class="st44" width="0.6" height="191.9"/>
				<rect x="27" y="10.6" class="st45" width="0.6" height="191.9"/>
				<rect x="27.6" y="10.6" class="st45" width="0.6" height="191.9"/>
				<rect x="28.2" y="10.6" class="st46" width="0.6" height="191.9"/>
				<rect x="28.7" y="10.6" class="st46" width="0.6" height="191.9"/>
				<rect x="29.3" y="10.6" class="st47" width="0.6" height="191.9"/>
				<rect x="29.9" y="10.6" class="st48" width="0.6" height="191.9"/>
				<rect x="30.5" y="10.6" class="st49" width="0.6" height="191.9"/>
				<rect x="31.1" y="10.6" class="st50" width="0.6" height="191.9"/>
				<rect x="31.7" y="10.6" class="st51" width="0.6" height="191.9"/>
				<rect x="32.2" y="10.6" class="st51" width="0.6" height="191.9"/>
				<rect x="32.8" y="10.6" class="st52" width="0.6" height="191.9"/>
				<rect x="33.4" y="10.6" class="st52" width="0.6" height="191.9"/>
				<rect x="34" y="10.6" class="st53" width="0.6" height="191.9"/>
				<rect x="34.6" y="10.6" class="st54" width="0.6" height="191.9"/>
				<rect x="35.2" y="10.6" class="st55" width="0.6" height="191.9"/>
				<rect x="35.7" y="10.6" class="st56" width="0.6" height="191.9"/>
				<rect x="36.3" y="10.6" class="st57" width="0.6" height="191.9"/>
				<rect x="36.9" y="10.6" class="st58" width="0.6" height="191.9"/>
				<rect x="37.5" y="10.6" class="st59" width="0.6" height="191.9"/>
				<rect x="38.1" y="10.6" class="st59" width="0.6" height="191.9"/>
				<rect x="38.7" y="10.6" class="st60" width="0.6" height="191.9"/>
				<rect x="39.2" y="10.6" class="st60" width="0.6" height="191.9"/>
				<rect x="39.8" y="10.6" class="st61" width="0.6" height="191.9"/>
				<rect x="40.4" y="10.6" class="st61" width="0.6" height="191.9"/>
				<rect x="41" y="10.6" class="st62" width="0.6" height="191.9"/>
				<rect x="41.6" y="10.6" class="st63" width="0.6" height="191.9"/>
				<rect x="42.2" y="10.6" class="st64" width="0.6" height="191.9"/>
				<rect x="42.7" y="10.6" class="st65" width="0.6" height="191.9"/>
				<rect x="43.3" y="10.6" class="st66" width="0.6" height="191.9"/>
				<rect x="43.9" y="10.6" class="st66" width="0.6" height="191.9"/>
				<rect x="44.5" y="10.6" class="st67" width="0.6" height="191.9"/>
				<rect x="45.1" y="10.6" class="st67" width="0.6" height="191.9"/>
				<rect x="45.7" y="10.6" class="st68" width="0.6" height="191.9"/>
				<rect x="46.2" y="10.6" class="st68" width="0.6" height="191.9"/>
				<rect x="46.8" y="10.6" class="st69" width="0.6" height="191.9"/>
				<rect x="47.4" y="10.6" class="st69" width="0.6" height="191.9"/>
				<rect x="48" y="10.6" class="st70" width="0.6" height="191.9"/>
				<rect x="48.6" y="10.6" class="st71" width="0.6" height="191.9"/>
				<rect x="49.2" y="10.6" class="st72" width="0.6" height="191.9"/>
				<rect x="49.7" y="10.6" class="st73" width="0.6" height="191.9"/>
				<rect x="50.3" y="10.6" class="st74" width="0.6" height="191.9"/>
				<rect x="50.9" y="10.6" class="st75" width="0.6" height="191.9"/>
				<rect x="51.5" y="10.6" class="st76" width="0.6" height="191.9"/>
				<rect x="52.1" y="10.6" class="st76" width="0.6" height="191.9"/>
				<rect x="52.7" y="10.6" class="st77" width="0.6" height="191.9"/>
				<rect x="53.2" y="10.6" class="st78" width="0.6" height="191.9"/>
				<rect x="53.8" y="10.6" class="st79" width="0.6" height="191.9"/>
				<rect x="54.4" y="10.6" class="st79" width="0.6" height="191.9"/>
				<rect x="55" y="10.6" class="st80" width="0.6" height="191.9"/>
				<rect x="55.6" y="10.6" class="st80" width="0.6" height="191.9"/>
				<rect x="56.2" y="10.6" class="st81" width="0.6" height="191.9"/>
				<rect x="56.7" y="10.6" class="st82" width="0.6" height="191.9"/>
				<rect x="57.3" y="10.6" class="st83" width="0.6" height="191.9"/>
				<rect x="57.9" y="10.6" class="st84" width="0.6" height="191.9"/>
				<rect x="58.5" y="10.6" class="st85" width="0.6" height="191.9"/>
				<rect x="59.1" y="10.6" class="st86" width="0.6" height="191.9"/>
				<rect x="59.7" y="10.6" class="st86" width="0.6" height="191.9"/>
				<rect x="60.3" y="10.6" class="st87" width="0.6" height="191.9"/>
				<rect x="60.8" y="10.6" class="st87" width="0.6" height="191.9"/>
				<rect x="61.4" y="10.6" class="st88" width="0.6" height="191.9"/>
				<rect x="62" y="10.6" class="st88" width="0.6" height="191.9"/>
				<rect x="62.6" y="10.6" class="st89" width="0.6" height="191.9"/>
				<rect x="63.2" y="10.6" class="st89" width="0.6" height="191.9"/>
				<rect x="63.8" y="10.6" class="st90" width="0.6" height="191.9"/>
				<rect x="64.3" y="10.6" class="st90" width="0.6" height="191.9"/>
				<rect x="64.9" y="10.6" class="st91" width="0.6" height="191.9"/>
				<rect x="65.5" y="10.6" class="st92" width="0.6" height="191.9"/>
				<rect x="66.1" y="10.6" class="st93" width="0.6" height="191.9"/>
				<rect x="66.7" y="10.6" class="st94" width="0.6" height="191.9"/>
				<rect x="67.3" y="10.6" class="st95" width="0.6" height="191.9"/>
				<rect x="67.8" y="10.6" class="st96" width="0.6" height="191.9"/>
				<rect x="68.4" y="10.6" class="st97" width="0.6" height="191.9"/>
				<rect x="69" y="10.6" class="st98" width="0.6" height="191.9"/>
				<rect x="69.6" y="10.6" class="st99" width="0.6" height="191.9"/>
				<rect x="70.2" y="10.6" class="st99" width="0.6" height="191.9"/>
				<rect x="70.8" y="10.6" class="st100" width="0.6" height="191.9"/>
				<rect x="71.3" y="10.6" class="st100" width="0.6" height="191.9"/>
				<rect x="71.9" y="10.6" class="st101" width="0.6" height="191.9"/>
				<rect x="72.5" y="10.6" class="st101" width="0.6" height="191.9"/>
				<rect x="73.1" y="10.6" class="st102" width="0.6" height="191.9"/>
				<rect x="73.7" y="10.6" class="st103" width="0.6" height="191.9"/>
				<rect x="74.3" y="10.6" class="st104" width="0.6" height="191.9"/>
				<rect x="74.8" y="10.6" class="st105" width="0.6" height="191.9"/>
				<rect x="75.4" y="10.6" class="st105" width="0.6" height="191.9"/>
				<rect x="76" y="10.6" class="st106" width="0.6" height="191.9"/>
				<rect x="76.6" y="10.6" class="st107" width="0.6" height="191.9"/>
				<rect x="77.2" y="10.6" class="st108" width="0.6" height="191.9"/>
				<rect x="77.8" y="10.6" class="st109" width="0.6" height="191.9"/>
				<rect x="78.3" y="10.6" class="st110" width="0.6" height="191.9"/>
				<rect x="78.9" y="10.6" class="st110" width="0.6" height="191.9"/>
				<rect x="79.5" y="10.6" class="st111" width="0.6" height="191.9"/>
				<rect x="80.1" y="10.6" class="st112" width="0.6" height="191.9"/>
				<rect x="80.7" y="10.6" class="st113" width="0.6" height="191.9"/>
				<rect x="81.3" y="10.6" class="st114" width="0.6" height="191.9"/>
				<rect x="81.8" y="10.6" class="st114" width="0.6" height="191.9"/>
				<rect x="82.4" y="10.6" class="st115" width="0.6" height="191.9"/>
				<rect x="83" y="10.6" class="st116" width="0.6" height="191.9"/>
				<rect x="83.6" y="10.6" class="st117" width="0.6" height="191.9"/>
				<rect x="84.2" y="10.6" class="st118" width="0.6" height="191.9"/>
				<rect x="84.8" y="10.6" class="st118" width="0.6" height="191.9"/>
				<rect x="85.3" y="10.6" class="st119" width="0.6" height="191.9"/>
				<rect x="85.9" y="10.6" class="st120" width="0.6" height="191.9"/>
				<rect x="86.5" y="10.6" class="st121" width="0.6" height="191.9"/>
				<rect x="87.1" y="10.6" class="st122" width="0.6" height="191.9"/>
				<rect x="87.7" y="10.6" class="st123" width="0.6" height="191.9"/>
				<rect x="88.3" y="10.6" class="st124" width="0.6" height="191.9"/>
				<rect x="88.8" y="10.6" class="st125" width="0.6" height="191.9"/>
				<rect x="89.4" y="10.6" class="st126" width="0.6" height="191.9"/>
				<rect x="90" y="10.6" class="st127" width="0.6" height="191.9"/>
				<rect x="90.6" y="10.6" class="st128" width="0.6" height="191.9"/>
				<rect x="91.2" y="10.6" class="st129" width="0.6" height="191.9"/>
				<rect x="91.8" y="10.6" class="st129" width="0.6" height="191.9"/>
				<rect x="92.3" y="10.6" class="st130" width="0.6" height="191.9"/>
				<rect x="92.9" y="10.6" class="st131" width="0.6" height="191.9"/>
				<rect x="93.5" y="10.6" class="st131" width="0.6" height="191.9"/>
				<rect x="94.1" y="10.6" class="st132" width="0.6" height="191.9"/>
				<rect x="94.7" y="10.6" class="st133" width="0.6" height="191.9"/>
				<rect x="95.3" y="10.6" class="st133" width="0.6" height="191.9"/>
				<rect x="95.8" y="10.6" class="st134" width="0.6" height="191.9"/>
				<rect x="96.4" y="10.6" class="st135" width="0.6" height="191.9"/>
				<rect x="97" y="10.6" class="st136" width="0.6" height="191.9"/>
				<rect x="97.6" y="10.6" class="st137" width="0.6" height="191.9"/>
				<rect x="98.2" y="10.6" class="st138" width="0.6" height="191.9"/>
				<rect x="98.8" y="10.6" class="st139" width="0.6" height="191.9"/>
				<rect x="99.3" y="10.6" class="st140" width="0.6" height="191.9"/>
				<rect x="99.9" y="10.6" class="st141" width="0.6" height="191.9"/>
				<rect x="100.5" y="10.6" class="st142" width="0.6" height="191.9"/>
				<rect x="101.1" y="10.6" class="st143" width="0.6" height="191.9"/>
				<rect x="101.7" y="10.6" class="st144" width="0.6" height="191.9"/>
				<rect x="102.3" y="10.6" class="st145" width="0.6" height="191.9"/>
				<rect x="102.8" y="10.6" class="st146" width="0.6" height="191.9"/>
				<rect x="103.4" y="10.6" class="st147" width="0.6" height="191.9"/>
				<rect x="104" y="10.6" class="st148" width="0.6" height="191.9"/>
				<rect x="104.6" y="10.6" class="st149" width="0.6" height="191.9"/>
				<rect x="105.2" y="10.6" class="st150" width="0.6" height="191.9"/>
				<rect x="105.8" y="10.6" class="st151" width="0.6" height="191.9"/>
				<rect x="106.3" y="10.6" class="st152" width="0.6" height="191.9"/>
				<rect x="106.9" y="10.6" class="st153" width="0.6" height="191.9"/>
				<rect x="107.5" y="10.6" class="st154" width="0.6" height="191.9"/>
				<rect x="108.1" y="10.6" class="st155" width="0.6" height="191.9"/>
				<rect x="108.7" y="10.6" class="st156" width="0.6" height="191.9"/>
				<rect x="109.3" y="10.6" class="st157" width="0.6" height="191.9"/>
				<rect x="109.8" y="10.6" class="st158" width="0.6" height="191.9"/>
				<rect x="110.4" y="10.6" class="st159" width="0.6" height="191.9"/>
				<rect x="111" y="10.6" class="st160" width="0.6" height="191.9"/>
				<rect x="111.6" y="10.6" class="st161" width="0.6" height="191.9"/>
				<rect x="112.2" y="10.6" class="st162" width="0.6" height="191.9"/>
				<rect x="112.8" y="10.6" class="st163" width="0.6" height="191.9"/>
				<rect x="113.3" y="10.6" class="st164" width="0.6" height="191.9"/>
				<rect x="113.9" y="10.6" class="st165" width="0.6" height="191.9"/>
				<rect x="114.5" y="10.6" class="st165" width="0.6" height="191.9"/>
				<rect x="115.1" y="10.6" class="st166" width="0.6" height="191.9"/>
				<rect x="115.6" y="10.6" class="st163" width="0.6" height="191.9"/>
				<rect x="116.2" y="10.6" class="st162" width="0.6" height="191.9"/>
				<rect x="116.8" y="10.6" class="st161" width="0.6" height="191.9"/>
				<rect x="117.3" y="10.6" class="st159" width="0.6" height="191.9"/>
				<rect x="117.9" y="10.6" class="st158" width="0.6" height="191.9"/>
				<rect x="118.5" y="10.6" class="st157" width="0.6" height="191.9"/>
				<rect x="119" y="10.6" class="st167" width="0.6" height="191.9"/>
				<rect x="119.6" y="10.6" class="st154" width="0.6" height="191.9"/>
				<rect x="120.2" y="10.6" class="st153" width="0.6" height="191.9"/>
				<rect x="120.7" y="10.6" class="st152" width="0.6" height="191.9"/>
				<rect x="121.3" y="10.6" class="st151" width="0.6" height="191.9"/>
				<rect x="121.9" y="10.6" class="st149" width="0.6" height="191.9"/>
				<rect x="122.4" y="10.6" class="st168" width="0.6" height="191.9"/>
				<rect x="123" y="10.6" class="st147" width="0.6" height="191.9"/>
				<rect x="123.6" y="10.6" class="st146" width="0.6" height="191.9"/>
				<rect x="124.1" y="10.6" class="st145" width="0.6" height="191.9"/>
				<rect x="124.7" y="10.6" class="st144" width="0.6" height="191.9"/>
				<rect x="125.3" y="10.6" class="st143" width="0.6" height="191.9"/>
				<rect x="125.8" y="10.6" class="st169" width="0.6" height="191.9"/>
				<rect x="126.4" y="10.6" class="st141" width="0.6" height="191.9"/>
				<rect x="127" y="10.6" class="st139" width="0.6" height="191.9"/>
				<rect x="127.5" y="10.6" class="st138" width="0.6" height="191.9"/>
				<rect x="128.1" y="10.6" class="st137" width="0.6" height="191.9"/>
				<rect x="128.7" y="10.6" class="st170" width="0.6" height="191.9"/>
				<rect x="129.2" y="10.6" class="st135" width="0.6" height="191.9"/>
				<rect x="129.8" y="10.6" class="st171" width="0.6" height="191.9"/>
				<rect x="130.4" y="10.6" class="st133" width="0.6" height="191.9"/>
				<rect x="130.9" y="10.6" class="st132" width="0.6" height="191.9"/>
				<rect x="131.5" y="10.6" class="st131" width="0.6" height="191.9"/>
				<rect x="132.1" y="10.6" class="st131" width="0.6" height="191.9"/>
				<rect x="132.6" y="10.6" class="st130" width="0.6" height="191.9"/>
				<rect x="133.2" y="10.6" class="st129" width="0.6" height="191.9"/>
				<rect x="133.8" y="10.6" class="st128" width="0.6" height="191.9"/>
				<rect x="134.3" y="10.6" class="st128" width="0.6" height="191.9"/>
				<rect x="134.9" y="10.6" class="st126" width="0.6" height="191.9"/>
				<rect x="135.5" y="10.6" class="st125" width="0.6" height="191.9"/>
				<rect x="136" y="10.6" class="st124" width="0.6" height="191.9"/>
				<rect x="136.6" y="10.6" class="st123" width="0.6" height="191.9"/>
				<rect x="137.2" y="10.6" class="st122" width="0.6" height="191.9"/>
				<rect x="137.7" y="10.6" class="st121" width="0.6" height="191.9"/>
				<rect x="138.3" y="10.6" class="st119" width="0.6" height="191.9"/>
				<rect x="138.9" y="10.6" class="st172" width="0.6" height="191.9"/>
				<rect x="139.4" y="10.6" class="st118" width="0.6" height="191.9"/>
				<rect x="140" y="10.6" class="st117" width="0.6" height="191.9"/>
				<rect x="140.6" y="10.6" class="st115" width="0.6" height="191.9"/>
				<rect x="141.1" y="10.6" class="st115" width="0.6" height="191.9"/>
				<rect x="141.7" y="10.6" class="st114" width="0.6" height="191.9"/>
				<rect x="142.3" y="10.6" class="st113" width="0.6" height="191.9"/>
				<rect x="142.8" y="10.6" class="st113" width="0.6" height="191.9"/>
				<rect x="143.4" y="10.6" class="st111" width="0.6" height="191.9"/>
				<rect x="143.9" y="10.6" class="st110" width="0.6" height="191.9"/>
				<rect x="144.5" y="10.6" class="st110" width="0.6" height="191.9"/>
				<rect x="145.1" y="10.6" class="st109" width="0.6" height="191.9"/>
				<rect x="145.6" y="10.6" class="st108" width="0.6" height="191.9"/>
				<rect x="146.2" y="10.6" class="st106" width="0.6" height="191.9"/>
				<rect x="146.8" y="10.6" class="st173" width="0.6" height="191.9"/>
				<rect x="147.3" y="10.6" class="st105" width="0.6" height="191.9"/>
				<rect x="147.9" y="10.6" class="st104" width="0.6" height="191.9"/>
				<rect x="148.5" y="10.6" class="st104" width="0.6" height="191.9"/>
				<rect x="149" y="10.6" class="st102" width="0.6" height="191.9"/>
				<rect x="149.6" y="10.6" class="st174" width="0.6" height="191.9"/>
				<rect x="150.2" y="10.6" class="st101" width="0.6" height="191.9"/>
				<rect x="150.7" y="10.6" class="st100" width="0.6" height="191.9"/>
				<rect x="151.3" y="10.6" class="st100" width="0.6" height="191.9"/>
				<rect x="151.9" y="10.6" class="st99" width="0.6" height="191.9"/>
				<rect x="152.4" y="10.6" class="st175" width="0.6" height="191.9"/>
				<rect x="153" y="10.6" class="st98" width="0.6" height="191.9"/>
				<rect x="153.6" y="10.6" class="st97" width="0.6" height="191.9"/>
				<rect x="154.1" y="10.6" class="st95" width="0.6" height="191.9"/>
				<rect x="154.7" y="10.6" class="st94" width="0.6" height="191.9"/>
				<rect x="155.3" y="10.6" class="st93" width="0.6" height="191.9"/>
				<rect x="155.8" y="10.6" class="st92" width="0.6" height="191.9"/>
				<rect x="156.4" y="10.6" class="st91" width="0.6" height="191.9"/>
				<rect x="157" y="10.6" class="st90" width="0.6" height="191.9"/>
				<rect x="157.5" y="10.6" class="st90" width="0.6" height="191.9"/>
				<rect x="158.1" y="10.6" class="st89" width="0.6" height="191.9"/>
				<rect x="158.7" y="10.6" class="st89" width="0.6" height="191.9"/>
				<rect x="159.2" y="10.6" class="st88" width="0.6" height="191.9"/>
				<rect x="159.8" y="10.6" class="st88" width="0.6" height="191.9"/>
				<rect x="160.4" y="10.6" class="st87" width="0.6" height="191.9"/>
				<rect x="160.9" y="10.6" class="st176" width="0.6" height="191.9"/>
				<rect x="161.5" y="10.6" class="st86" width="0.6" height="191.9"/>
				<rect x="162.1" y="10.6" class="st85" width="0.6" height="191.9"/>
				<rect x="162.6" y="10.6" class="st84" width="0.6" height="191.9"/>
				<rect x="163.2" y="10.6" class="st83" width="0.6" height="191.9"/>
				<rect x="163.8" y="10.6" class="st177" width="0.6" height="191.9"/>
				<rect x="164.3" y="10.6" class="st82" width="0.6" height="191.9"/>
				<rect x="164.9" y="10.6" class="st178" width="0.6" height="191.9"/>
				<rect x="165.5" y="10.6" class="st80" width="0.6" height="191.9"/>
				<rect x="166" y="10.6" class="st179" width="0.6" height="191.9"/>
				<rect x="166.6" y="10.6" class="st79" width="0.6" height="191.9"/>
				<rect x="167.2" y="10.6" class="st78" width="0.6" height="191.9"/>
				<rect x="167.7" y="10.6" class="st78" width="0.6" height="191.9"/>
				<rect x="168.3" y="10.6" class="st180" width="0.6" height="191.9"/>
				<rect x="168.9" y="10.6" class="st76" width="0.6" height="191.9"/>
				<rect x="169.4" y="10.6" class="st75" width="0.6" height="191.9"/>
				<rect x="170" y="10.6" class="st74" width="0.6" height="191.9"/>
				<rect x="170.6" y="10.6" class="st73" width="0.6" height="191.9"/>
				<rect x="171.1" y="10.6" class="st72" width="0.6" height="191.9"/>
				<rect x="171.7" y="10.6" class="st71" width="0.6" height="191.9"/>
				<rect x="172.2" y="10.6" class="st70" width="0.6" height="191.9"/>
				<rect x="172.8" y="10.6" class="st69" width="0.6" height="191.9"/>
				<rect x="173.4" y="10.6" class="st69" width="0.6" height="191.9"/>
				<rect x="173.9" y="10.6" class="st68" width="0.6" height="191.9"/>
				<rect x="174.5" y="10.6" class="st68" width="0.6" height="191.9"/>
				<rect x="175.1" y="10.6" class="st67" width="0.6" height="191.9"/>
				<rect x="175.6" y="10.6" class="st67" width="0.6" height="191.9"/>
				<rect x="176.2" y="10.6" class="st181" width="0.6" height="191.9"/>
				<rect x="176.8" y="10.6" class="st66" width="0.6" height="191.9"/>
				<rect x="177.3" y="10.6" class="st65" width="0.6" height="191.9"/>
				<rect x="177.9" y="10.6" class="st64" width="0.6" height="191.9"/>
				<rect x="178.5" y="10.6" class="st63" width="0.6" height="191.9"/>
				<rect x="179" y="10.6" class="st63" width="0.6" height="191.9"/>
				<rect x="179.6" y="10.6" class="st61" width="0.6" height="191.9"/>
				<rect x="180.2" y="10.6" class="st61" width="0.6" height="191.9"/>
				<rect x="180.7" y="10.6" class="st60" width="0.6" height="191.9"/>
				<rect x="181.3" y="10.6" class="st60" width="0.6" height="191.9"/>
				<rect x="181.9" y="10.6" class="st60" width="0.6" height="191.9"/>
				<rect x="182.4" y="10.6" class="st59" width="0.6" height="191.9"/>
				<rect x="183" y="10.6" class="st59" width="0.6" height="191.9"/>
				<rect x="183.6" y="10.6" class="st57" width="0.6" height="191.9"/>
				<rect x="184.1" y="10.6" class="st57" width="0.6" height="191.9"/>
				<rect x="184.7" y="10.6" class="st56" width="0.6" height="191.9"/>
				<rect x="185.3" y="10.6" class="st55" width="0.6" height="191.9"/>
				<rect x="185.8" y="10.6" class="st54" width="0.6" height="191.9"/>
				<rect x="186.4" y="10.6" class="st53" width="0.6" height="191.9"/>
				<rect x="187" y="10.6" class="st52" width="0.6" height="191.9"/>
				<rect x="187.5" y="10.6" class="st52" width="0.6" height="191.9"/>
				<rect x="188.1" y="10.6" class="st182" width="0.6" height="191.9"/>
				<rect x="188.7" y="10.6" class="st51" width="0.6" height="191.9"/>
				<rect x="189.2" y="10.6" class="st51" width="0.6" height="191.9"/>
				<rect x="189.8" y="10.6" class="st49" width="0.6" height="191.9"/>
				<rect x="190.4" y="10.6" class="st49" width="0.6" height="191.9"/>
				<rect x="190.9" y="10.6" class="st48" width="0.6" height="191.9"/>
				<rect x="191.5" y="10.6" class="st183" width="0.6" height="191.9"/>
				<rect x="192.1" y="10.6" class="st46" width="0.6" height="191.9"/>
				<rect x="192.6" y="10.6" class="st46" width="0.6" height="191.9"/>
				<rect x="193.2" y="10.6" class="st45" width="0.6" height="191.9"/>
				<rect x="193.8" y="10.6" class="st45" width="0.6" height="191.9"/>
				<rect x="194.3" y="10.6" class="st45" width="0.6" height="191.9"/>
				<rect x="194.9" y="10.6" class="st43" width="0.6" height="191.9"/>
				<rect x="195.5" y="10.6" class="st43" width="0.6" height="191.9"/>
				<rect x="196" y="10.6" class="st42" width="0.6" height="191.9"/>
				<rect x="196.6" y="10.6" class="st42" width="0.6" height="191.9"/>
				<rect x="197.2" y="10.6" class="st184" width="0.6" height="191.9"/>
				<rect x="197.7" y="10.6" class="st41" width="0.6" height="191.9"/>
				<rect x="198.3" y="10.6" class="st41" width="0.6" height="191.9"/>
				<rect x="198.8" y="10.6" class="st40" width="0.6" height="191.9"/>
				<rect x="199.4" y="10.6" class="st40" width="0.6" height="191.9"/>
				<rect x="200" y="10.6" class="st40" width="0.6" height="191.9"/>
				<rect x="200.5" y="10.6" class="st185" width="0.6" height="191.9"/>
				<rect x="201.1" y="10.6" class="st39" width="0.6" height="191.9"/>
				<rect x="201.7" y="10.6" class="st38" width="0.6" height="191.9"/>
				<rect x="202.2" y="10.6" class="st38" width="0.6" height="191.9"/>
				<rect x="202.8" y="10.6" class="st38" width="0.6" height="191.9"/>
				<rect x="203.4" y="10.6" class="st36" width="0.6" height="191.9"/>
				<rect x="203.9" y="10.6" class="st36" width="0.6" height="191.9"/>
				<rect x="204.5" y="10.6" class="st36" width="0.6" height="191.9"/>
				<rect x="205.1" y="10.6" class="st186" width="0.6" height="191.9"/>
				<rect x="205.6" y="10.6" class="st35" width="0.6" height="191.9"/>
				<rect x="206.2" y="10.6" class="st35" width="0.6" height="191.9"/>
				<rect x="206.8" y="10.6" class="st34" width="0.6" height="191.9"/>
				<rect x="207.3" y="10.6" class="st33" width="0.6" height="191.9"/>
				<rect x="207.9" y="10.6" class="st32" width="0.6" height="191.9"/>
				<rect x="208.5" y="10.6" class="st32" width="0.6" height="191.9"/>
				<rect x="209" y="10.6" class="st31" width="0.6" height="191.9"/>
				<rect x="209.6" y="10.6" class="st31" width="0.6" height="191.9"/>
				<rect x="210.2" y="10.6" class="st31" width="0.6" height="191.9"/>
				<rect x="210.7" y="10.6" class="st31" width="0.6" height="191.9"/>
				<rect x="211.3" y="10.6" class="st30" width="0.6" height="191.9"/>
				<rect x="211.9" y="10.6" class="st30" width="0.6" height="191.9"/>
				<rect x="212.4" y="10.6" class="st30" width="2.1" height="191.9"/>
			</g>
		</g>
	</g>
</g>
<linearGradient id="SVGID_28_" gradientUnits="userSpaceOnUse" x1="46.6529" y1="151.2471" x2="76.062" y2="151.2471">
	<stop  offset="0" style="stop-color:#194789"/>
	<stop  offset="0.1212" style="stop-color:#1A5B98"/>
	<stop  offset="0.3897" style="stop-color:#278EC5"/>
	<stop  offset="0.5076" style="stop-color:#2AAAE2"/>
	<stop  offset="0.5487" style="stop-color:#2A9ED4"/>
	<stop  offset="0.7076" style="stop-color:#2376AF"/>
	<stop  offset="0.841" style="stop-color:#1B5D9A"/>
	<stop  offset="0.9425" style="stop-color:#184D8E"/>
	<stop  offset="1" style="stop-color:#194789"/>
</linearGradient>
<path class="st187" d="M47.7,125.8c0,0-1.9,12.2-0.5,20.3c1.4,8.1,7.3,18.4,10.8,21.2c3.5,2.8,16.6,9.4,16.6,9.4s3.5-16.8-0.4-26
	C70.3,141.5,60.1,130,47.7,125.8z"/>
<linearGradient id="SVGID_29_" gradientUnits="userSpaceOnUse" x1="25.7299" y1="82.0852" x2="52.3817" y2="82.0852">
	<stop  offset="0" style="stop-color:#194789"/>
	<stop  offset="0.1212" style="stop-color:#1A5B98"/>
	<stop  offset="0.3897" style="stop-color:#278EC5"/>
	<stop  offset="0.5076" style="stop-color:#2AAAE2"/>
	<stop  offset="0.5487" style="stop-color:#2A9ED4"/>
	<stop  offset="0.7076" style="stop-color:#2376AF"/>
	<stop  offset="0.841" style="stop-color:#1B5D9A"/>
	<stop  offset="0.9425" style="stop-color:#184D8E"/>
	<stop  offset="1" style="stop-color:#194789"/>
</linearGradient>
<path class="st188" d="M26.6,103.1c0,0-2.5-16.1,0.7-25.1c3.2-9,21.6-17,21.6-17s7.3,11,0.7,24.4c-6.5,13.4-8.7,14.9-8.7,14.9
	s-5.5-4.4-7.3-5.1C32,94.5,32,94.5,32,94.5s0-0.7-2.3,4.2C27.4,103.7,26.6,103.1,26.6,103.1z"/>
<linearGradient id="SVGID_30_" gradientUnits="userSpaceOnUse" x1="35.0739" y1="54.6374" x2="71.3179" y2="54.6374">
	<stop  offset="0" style="stop-color:#194789"/>
	<stop  offset="0.1212" style="stop-color:#1A5B98"/>
	<stop  offset="0.3897" style="stop-color:#278EC5"/>
	<stop  offset="0.5076" style="stop-color:#2AAAE2"/>
	<stop  offset="0.5487" style="stop-color:#2A9ED4"/>
	<stop  offset="0.7076" style="stop-color:#2376AF"/>
	<stop  offset="0.841" style="stop-color:#1B5D9A"/>
	<stop  offset="0.9425" style="stop-color:#184D8E"/>
	<stop  offset="1" style="stop-color:#194789"/>
</linearGradient>
<path class="st189" d="M35.3,65.8c0,0,3.5-14.9,11.1-19.6c7.5-4.7,9.4-6.1,16.5-6.8c7.1-0.7,8-0.5,8-0.5s1.9,4-2.1,12.6
	c-4,8.6-5.3,10.4-9.1,13.6c-3.8,3.2-7.4,5.3-7.4,5.3s-1.9-7.4-2.9-8.5c-0.9-1.1-0.5-0.9-0.5-0.9s-7.2,3.6-9.3,5
	c-2.1,1.4-4.2,2.4-4.2,2.4S34.8,66.7,35.3,65.8z"/>
<linearGradient id="SVGID_31_" gradientUnits="userSpaceOnUse" x1="58.7259" y1="35.1494" x2="100.4769" y2="35.1494">
	<stop  offset="0" style="stop-color:#194789"/>
	<stop  offset="0.1212" style="stop-color:#1A5B98"/>
	<stop  offset="0.3897" style="stop-color:#278EC5"/>
	<stop  offset="0.5076" style="stop-color:#2AAAE2"/>
	<stop  offset="0.5487" style="stop-color:#2A9ED4"/>
	<stop  offset="0.7076" style="stop-color:#2376AF"/>
	<stop  offset="0.841" style="stop-color:#1B5D9A"/>
	<stop  offset="0.9425" style="stop-color:#184D8E"/>
	<stop  offset="1" style="stop-color:#194789"/>
</linearGradient>
<path class="st190" d="M61,32.4c0,0,6.3-8.1,15.1-8.8c8.8-0.7,9.9-1.8,16.3,0.6c6.4,2.4,8.1,4.2,8.1,4.2s-3.4,6.7-7,10.5
	c-3.5,3.8-9.6,6.6-14.4,7.7c-4.8,1.1-8.8,1-8.8,1s1.5-2.8,1-5.7c-0.5-2.9-0.5-2.9-0.5-2.9s-2.9-0.7-7.1,0.2
	c-4.1,0.9-5.1,0.5-5.1,0.5S58.6,36.9,61,32.4z"/>
<linearGradient id="SVGID_32_" gradientUnits="userSpaceOnUse" x1="154.9011" y1="154.667" x2="186.7507" y2="154.667">
	<stop  offset="0" style="stop-color:#194789"/>
	<stop  offset="0.1212" style="stop-color:#1A5B98"/>
	<stop  offset="0.3897" style="stop-color:#278EC5"/>
	<stop  offset="0.5076" style="stop-color:#2AAAE2"/>
	<stop  offset="0.5487" style="stop-color:#2A9ED4"/>
	<stop  offset="0.7076" style="stop-color:#2376AF"/>
	<stop  offset="0.841" style="stop-color:#1B5D9A"/>
	<stop  offset="0.9425" style="stop-color:#184D8E"/>
	<stop  offset="1" style="stop-color:#194789"/>
</linearGradient>
<path class="st191" d="M156.4,177.8c0,0,8.6-1.7,17.5-9c8.8-7.3,9.8-6.3,11.7-18.3c1.9-12,1.1-19.1,1.1-19.1s-6.5,0.2-14,5.2
	c-7.5,5-13.6,8.8-15.7,18.2c-2.1,9.4-1.9,21.1-1.9,21.1L156.4,177.8z"/>
<linearGradient id="SVGID_33_" gradientUnits="userSpaceOnUse" x1="175.8482" y1="121.4092" x2="201.2194" y2="121.4092">
	<stop  offset="0" style="stop-color:#194789"/>
	<stop  offset="0.1212" style="stop-color:#1A5B98"/>
	<stop  offset="0.3897" style="stop-color:#278EC5"/>
	<stop  offset="0.5076" style="stop-color:#2AAAE2"/>
	<stop  offset="0.5487" style="stop-color:#2A9ED4"/>
	<stop  offset="0.7076" style="stop-color:#2376AF"/>
	<stop  offset="0.841" style="stop-color:#1B5D9A"/>
	<stop  offset="0.9425" style="stop-color:#184D8E"/>
	<stop  offset="1" style="stop-color:#194789"/>
</linearGradient>
<path class="st192" d="M194.4,142.2c0,0,8-10.3,6.7-22.5c-1.3-12.3-8.6-21.3-8.6-21.3s-5.7,0.1-10,9.8c-4.4,9.7-7.2,13.6-6.5,19.3
	c0.7,5.7,0.8,6.5,0.8,6.5s5.5-2.2,7.7-2.4c2.1-0.1,2.1-0.1,2.1-0.1s0.5,6.3,0.1,9.3c-0.4,3.1-0.4,3.7-0.4,3.7s3.2-1.4,5.2-1.3
	C193.5,143.3,194.4,142.2,194.4,142.2z"/>
<linearGradient id="SVGID_34_" gradientUnits="userSpaceOnUse" x1="180.4289" y1="89.0937" x2="206.0787" y2="89.0937">
	<stop  offset="0" style="stop-color:#194789"/>
	<stop  offset="0.1212" style="stop-color:#1A5B98"/>
	<stop  offset="0.3897" style="stop-color:#278EC5"/>
	<stop  offset="0.5076" style="stop-color:#2AAAE2"/>
	<stop  offset="0.5487" style="stop-color:#2A9ED4"/>
	<stop  offset="0.7076" style="stop-color:#2376AF"/>
	<stop  offset="0.841" style="stop-color:#1B5D9A"/>
	<stop  offset="0.9425" style="stop-color:#184D8E"/>
	<stop  offset="1" style="stop-color:#194789"/>
</linearGradient>
<path class="st193" d="M181.6,76.8c0,0,2.4-5.4,4.4-7.1c2-1.7,10.3,5.7,13.9,12.1c3.7,6.5,5.9,11,6.1,15.6c0.2,4.6-0.5,6.5-0.5,6.5
	s-4,1.4-5.3,2.6c-1.3,1.2-1.9,2.2-1.9,2.2s-1.7-4.6-4.1-7.9c-2.5-3.3-2.8-2.7-2.8-2.7s-3.5,1.3-4.5,2.8c-0.9,1.5-2.9,3.8-2.9,3.8
	s-2.8-7.3-3.4-13.4C180,85.1,181.6,76.8,181.6,76.8z"/>
<linearGradient id="SVGID_35_" gradientUnits="userSpaceOnUse" x1="159.4457" y1="61.481" x2="195.8881" y2="61.481">
	<stop  offset="0" style="stop-color:#194789"/>
	<stop  offset="0.1212" style="stop-color:#1A5B98"/>
	<stop  offset="0.3897" style="stop-color:#278EC5"/>
	<stop  offset="0.5076" style="stop-color:#2AAAE2"/>
	<stop  offset="0.5487" style="stop-color:#2A9ED4"/>
	<stop  offset="0.7076" style="stop-color:#2376AF"/>
	<stop  offset="0.841" style="stop-color:#1B5D9A"/>
	<stop  offset="0.9425" style="stop-color:#184D8E"/>
	<stop  offset="1" style="stop-color:#194789"/>
</linearGradient>
<path class="st194" d="M195.9,71c0,0-0.8-6.4-7.4-13.2c-6.6-6.8-7.7-8.4-15.7-11.1c-8-2.7-13.3-2.2-13.3-2.2s1.5,11.2,4.8,16.3
	c3.3,5.1,10.3,13.6,13.4,15.7c3.2,2.1,3.2,2.1,3.2,2.1s3.7-7.3,4.6-8.1c0.9-0.8,4.7-0.1,6.8,1.9c2.1,2,2.6,2.7,2.6,2.7
	S195.9,74.6,195.9,71z"/>
<linearGradient id="SVGID_36_" gradientUnits="userSpaceOnUse" x1="126.5995" y1="36.7891" x2="170.646" y2="36.7891">
	<stop  offset="0" style="stop-color:#194789"/>
	<stop  offset="0.1212" style="stop-color:#1A5B98"/>
	<stop  offset="0.3897" style="stop-color:#278EC5"/>
	<stop  offset="0.5076" style="stop-color:#2AAAE2"/>
	<stop  offset="0.5487" style="stop-color:#2A9ED4"/>
	<stop  offset="0.7076" style="stop-color:#2376AF"/>
	<stop  offset="0.841" style="stop-color:#1B5D9A"/>
	<stop  offset="0.9425" style="stop-color:#184D8E"/>
	<stop  offset="1" style="stop-color:#194789"/>
</linearGradient>
<path class="st195" d="M170.4,44.3c0,0,1.3-4.1-2.2-8.6c-3.5-4.5-4.6-6.7-13.4-9.3c-8.8-2.6-15.1-3.2-15.1-3.2s-4.2,0.5-8.3,1.8
	c-4,1.3-4.8,1.9-4.8,1.9s6.9,11.8,13.7,16.7c6.8,5,12,6,15.2,6.3c3.2,0.2,5,0.5,5,0.5l-1.1-5.9c0,0,6.3,0.1,8.4,0.9
	C169.9,46.2,170.4,44.3,170.4,44.3z"/>
<linearGradient id="SVGID_37_" gradientUnits="userSpaceOnUse" x1="25.009" y1="117.9004" x2="50.5389" y2="117.9004">
	<stop  offset="0" style="stop-color:#194789"/>
	<stop  offset="0.1212" style="stop-color:#1A5B98"/>
	<stop  offset="0.3897" style="stop-color:#278EC5"/>
	<stop  offset="0.5076" style="stop-color:#2AAAE2"/>
	<stop  offset="0.5487" style="stop-color:#2A9ED4"/>
	<stop  offset="0.7076" style="stop-color:#2376AF"/>
	<stop  offset="0.841" style="stop-color:#1B5D9A"/>
	<stop  offset="0.9425" style="stop-color:#184D8E"/>
	<stop  offset="1" style="stop-color:#194789"/>
</linearGradient>
<path class="st196" d="M32,137.4c0,0-7.6-10.4-6.9-20.7c0.7-10.3,6.9-22.3,6.9-22.3s5.8,1.9,9,5.8c3.2,3.9,7.3,9.2,8.5,16.5
	c1.2,7.3,1.1,10.4,1.1,10.4l-2.8-1.4c0,0-1.8,4.2-1.4,9.9c0.4,5.7,0.4,5.7,0.4,5.7l-10.1-4.1C36.6,137.3,35.5,136.9,32,137.4z"/>
</svg>
