<?xml version="1.0" encoding="utf-8"?>
<!-- Generator: Adobe Illustrator 23.0.1, SVG Export Plug-In . SVG Version: 6.00 Build 0)  -->
<svg version="1.1" id="Camada_1" xmlns="http://www.w3.org/2000/svg" xmlns:xlink="http://www.w3.org/1999/xlink" x="0px" y="0px"
	 viewBox="0 0 488.9 158.4" style="enable-background:new 0 0 488.9 158.4;" xml:space="preserve">
<style type="text/css">
	.st0{fill:#FFFFFF;}
</style>
<g>
	<path class="st0" d="M173.4,52.4H193l-7.6,28.5h-19.1l-15.1,51.7c0,0-1.9,11.7-20.5,11.7c-18.6,0-28.6,0-28.6,0l7.8-28.3
		c0,0,2.9,0.8,4.2-3.6c1.4-4.4,7.6-25.8,7.6-25.8s2.3-5.8-3.5-5.8c-5.8,0-14.1,0-14.1,0l8.6-28.3H129l8.8-29.5
		c0,0,1.8-10.5,7.8-10.5c5.9,0,39.3,0,39.3,0L173.4,52.4z"/>
	<polygon class="st0" points="107.6,110.2 60.6,110.2 67.1,86.6 113.8,86.6 	"/>
	<path class="st0" d="M106,52.2L97.5,81H63.9c0,0-4.2-0.2-5.1,2.9c-0.8,3.1-5.8,23.9-5.8,23.9s-2.4,7.6,3.7,7.8
		c6.1,0.2,47.7,0.2,47.7,0.2l-8.4,28.6h-83c0,0-7.5,0.7-5.6-7c1.9-7.6,21.8-73.1,21.8-73.1s2.1-12.2,15-12.2
		C57.1,52.2,106,52.2,106,52.2z"/>
	<path class="st0" d="M214.7,12.4h257.6c0,0,9.9,0.2,9.6,7.5c-0.2,7.2-15.2,105.1-15.2,105.1s-3.8,19.6-20.7,19.5
		c-17.9,0-271.6,0-271.6,0l1.2-3.3h269.9c0,0,13,1.6,17.7-17.4c3.1-14.7,15.2-97.4,15.1-100.9c0.5-6-1.2-7-7.3-7c-0.4,0-258,0-258,0
		L214.7,12.4z"/>
	<g>
		<path class="st0" d="M208.1,114.3l2,0.3c-0.4,1.1-1,1.9-1.8,2.5s-1.7,0.9-2.8,0.9c-1.2,0-2.1-0.4-2.8-1.1c-0.7-0.7-1-1.8-1-3.1
			c0-1.1,0.2-2.1,0.7-3.1c0.5-0.9,1.1-1.6,1.9-2.1c0.8-0.5,1.7-0.7,2.6-0.7c1.1,0,1.9,0.3,2.6,0.9c0.7,0.6,1,1.3,1.2,2.3l-1.9,0.2
			c-0.1-0.6-0.3-1-0.6-1.2c-0.3-0.3-0.7-0.4-1.2-0.4c-0.6,0-1.1,0.2-1.6,0.5c-0.5,0.3-0.9,0.9-1.2,1.6c-0.3,0.7-0.4,1.4-0.4,2.2
			c0,0.8,0.2,1.4,0.6,1.8c0.4,0.4,0.8,0.6,1.4,0.6c0.5,0,1-0.2,1.4-0.5C207.5,115.5,207.8,115,208.1,114.3z"/>
		<path class="st0" d="M214.2,114c0-0.6,0.1-1.2,0.3-1.8c0.2-0.9,0.6-1.6,1-2.2c0.5-0.6,1.1-1.1,1.8-1.5c0.7-0.4,1.5-0.6,2.4-0.6
			c1.2,0,2.2,0.4,2.9,1.1c0.7,0.8,1.1,1.7,1.1,3c0,1-0.2,2-0.7,3c-0.5,1-1.1,1.7-2,2.2s-1.8,0.8-2.8,0.8c-0.9,0-1.7-0.2-2.3-0.6
			c-0.6-0.4-1.1-0.9-1.3-1.5C214.3,115.2,214.2,114.6,214.2,114z M216.2,114c0,0.7,0.2,1.2,0.6,1.7c0.4,0.5,0.9,0.7,1.6,0.7
			c0.5,0,1.1-0.2,1.6-0.5c0.5-0.4,0.9-0.9,1.2-1.6c0.3-0.7,0.5-1.4,0.5-2.1c0-0.8-0.2-1.4-0.6-1.8c-0.4-0.4-0.9-0.7-1.6-0.7
			c-1,0-1.8,0.5-2.4,1.4C216.5,111.9,216.2,112.9,216.2,114z"/>
		<path class="st0" d="M229,117.8h-2l2-9.8h4.3c0.7,0,1.3,0.1,1.7,0.2c0.4,0.2,0.8,0.4,1,0.8c0.3,0.4,0.4,0.9,0.4,1.5
			c0,0.8-0.2,1.5-0.7,2.1c-0.5,0.5-1.3,0.9-2.3,1c0.3,0.2,0.5,0.5,0.7,0.9c0.4,0.8,1,1.8,1.5,3.2h-2.2c-0.2-0.6-0.5-1.4-1-2.6
			c-0.3-0.6-0.6-1.1-0.9-1.3c-0.2-0.1-0.5-0.2-1-0.2h-0.8L229,117.8z M230.2,112.3h1.1c1.1,0,1.8-0.1,2.2-0.2
			c0.4-0.1,0.6-0.3,0.8-0.6c0.2-0.3,0.3-0.6,0.3-0.9c0-0.4-0.1-0.6-0.4-0.8c-0.2-0.1-0.6-0.2-1.2-0.2h-2.2L230.2,112.3z"/>
		<path class="st0" d="M241.6,117.8h-2l2-9.8h4.3c0.7,0,1.3,0.1,1.7,0.2c0.4,0.2,0.8,0.4,1,0.8c0.3,0.4,0.4,0.9,0.4,1.5
			c0,0.8-0.2,1.5-0.7,2.1c-0.5,0.5-1.3,0.9-2.3,1c0.3,0.2,0.5,0.5,0.7,0.9c0.4,0.8,1,1.8,1.5,3.2h-2.2c-0.2-0.6-0.5-1.4-1-2.6
			c-0.3-0.6-0.6-1.1-0.9-1.3c-0.2-0.1-0.5-0.2-1-0.2h-0.8L241.6,117.8z M242.8,112.3h1.1c1.1,0,1.8-0.1,2.2-0.2
			c0.4-0.1,0.6-0.3,0.8-0.6c0.2-0.3,0.3-0.6,0.3-0.9c0-0.4-0.1-0.6-0.4-0.8c-0.2-0.1-0.6-0.2-1.2-0.2h-2.2L242.8,112.3z"/>
		<path class="st0" d="M252.2,117.8l2-9.8h7.3l-0.3,1.6h-5.2l-0.5,2.2h5.1l-0.3,1.6h-5.1l-0.6,2.7h5.7l-0.3,1.6H252.2z"/>
		<path class="st0" d="M268.3,117.8h-2l1.7-8.2h-2.9l0.3-1.6h7.7l-0.3,1.6H270L268.3,117.8z"/>
		<path class="st0" d="M275.5,114c0-0.6,0.1-1.2,0.3-1.8c0.2-0.9,0.6-1.6,1-2.2c0.5-0.6,1.1-1.1,1.8-1.5c0.7-0.4,1.5-0.6,2.4-0.6
			c1.2,0,2.2,0.4,2.9,1.1c0.7,0.8,1.1,1.7,1.1,3c0,1-0.2,2-0.7,3s-1.1,1.7-2,2.2c-0.8,0.5-1.8,0.8-2.8,0.8c-0.9,0-1.7-0.2-2.3-0.6
			c-0.6-0.4-1.1-0.9-1.3-1.5C275.6,115.2,275.5,114.6,275.5,114z M277.5,114c0,0.7,0.2,1.2,0.6,1.7c0.4,0.5,0.9,0.7,1.6,0.7
			c0.5,0,1.1-0.2,1.6-0.5c0.5-0.4,0.9-0.9,1.2-1.6c0.3-0.7,0.5-1.4,0.5-2.1c0-0.8-0.2-1.4-0.6-1.8s-0.9-0.7-1.6-0.7
			c-1,0-1.8,0.5-2.4,1.4C277.8,111.9,277.5,112.9,277.5,114z"/>
		<path class="st0" d="M290.3,117.8h-2l2.1-9.8h4.3c0.7,0,1.3,0.1,1.7,0.2c0.4,0.2,0.8,0.4,1,0.8c0.3,0.4,0.4,0.9,0.4,1.5
			c0,0.8-0.2,1.5-0.7,2.1c-0.5,0.5-1.3,0.9-2.3,1c0.3,0.2,0.5,0.5,0.7,0.9c0.4,0.8,1,1.8,1.5,3.2h-2.2c-0.2-0.6-0.5-1.4-1-2.6
			c-0.3-0.6-0.6-1.1-0.9-1.3c-0.2-0.1-0.5-0.2-1-0.2h-0.8L290.3,117.8z M291.4,112.3h1.1c1.1,0,1.8-0.1,2.2-0.2
			c0.4-0.1,0.6-0.3,0.8-0.6c0.2-0.3,0.3-0.6,0.3-0.9c0-0.4-0.1-0.6-0.4-0.8c-0.2-0.1-0.6-0.2-1.2-0.2H292L291.4,112.3z"/>
		<path class="st0" d="M307.2,115.7h-3.9l-1.2,2.2h-2.1l5.5-9.8h2.2l1.6,9.8h-1.9L307.2,115.7z M307,114l-0.6-3.9l-2.4,3.9H307z"/>
		<path class="st0" d="M319.5,117.8l2-9.8h2.6c0.7,0,1.2,0,1.4,0c0.4,0,0.8,0.1,1.1,0.2c0.3,0.1,0.6,0.3,0.9,0.5
			c0.3,0.2,0.5,0.5,0.7,0.8c0.2,0.3,0.3,0.7,0.4,1.1c0.1,0.4,0.2,0.9,0.2,1.4c0,1.1-0.2,2-0.6,2.8c-0.4,0.8-0.9,1.5-1.5,1.9
			c-0.5,0.4-1.1,0.6-1.8,0.8c-0.4,0.1-1.1,0.1-1.9,0.1H319.5z M321.9,116.3h1c0.7,0,1.3,0,1.6-0.1c0.3-0.1,0.6-0.3,0.9-0.5
			c0.4-0.4,0.7-0.8,1-1.4c0.3-0.6,0.4-1.3,0.4-2.1c0-0.7-0.1-1.2-0.3-1.6c-0.2-0.3-0.5-0.6-0.8-0.7c-0.2-0.1-0.6-0.1-1.2-0.1h-1.2
			L321.9,116.3z"/>
		<path class="st0" d="M332.1,117.8l2-9.8h7.3l-0.3,1.6h-5.2l-0.5,2.2h5.1l-0.3,1.6H335l-0.6,2.7h5.7l-0.3,1.6H332.1z"/>
		<path class="st0" d="M350.8,114.7l1.9-0.1c0,0.6,0.1,1,0.3,1.2c0.3,0.3,0.8,0.5,1.6,0.5c0.7,0,1.1-0.1,1.4-0.4
			c0.3-0.2,0.4-0.5,0.4-0.9c0-0.3-0.1-0.5-0.4-0.7c-0.2-0.1-0.6-0.4-1.4-0.7c-0.8-0.3-1.3-0.6-1.7-0.8s-0.6-0.5-0.8-0.9
			c-0.2-0.4-0.3-0.8-0.3-1.2c0-0.8,0.3-1.5,0.9-2.1c0.6-0.5,1.5-0.8,2.6-0.8c1.1,0,2,0.3,2.7,0.8c0.6,0.5,1,1.3,1,2.2l-1.9,0.1
			c0-0.5-0.2-0.8-0.5-1.1c-0.3-0.2-0.7-0.4-1.3-0.4c-0.6,0-1,0.1-1.2,0.3c-0.2,0.2-0.4,0.4-0.4,0.7c0,0.3,0.1,0.5,0.3,0.7
			c0.2,0.2,0.7,0.4,1.4,0.8c1.1,0.5,1.8,0.9,2.2,1.2c0.5,0.4,0.7,1,0.7,1.7c0,0.9-0.3,1.6-1,2.2c-0.7,0.6-1.6,0.9-2.9,0.9
			c-0.8,0-1.6-0.1-2.2-0.4c-0.6-0.3-1.1-0.7-1.3-1.2C350.9,115.9,350.8,115.3,350.8,114.7z"/>
		<path class="st0" d="M362.3,117.8l2-9.8h7.3l-0.3,1.6H366l-0.5,2.2h5.1l-0.3,1.6h-5.1l-0.6,2.7h5.7l-0.3,1.6H362.3z"/>
		<path class="st0" d="M379.6,112.6h4.4l-0.9,4.2c-0.5,0.3-1.1,0.6-1.9,0.8c-0.7,0.2-1.5,0.3-2.3,0.3c-1.2,0-2.1-0.3-2.8-0.8
			c-0.9-0.7-1.3-1.8-1.3-3.3c0-1,0.2-1.9,0.6-2.7c0.5-1.1,1.1-1.9,1.9-2.4c0.8-0.6,1.8-0.9,3-0.9c1.1,0,2,0.3,2.7,0.8
			c0.7,0.5,1.1,1.3,1.4,2.3l-1.9,0.2c-0.2-0.6-0.4-1-0.8-1.2c-0.4-0.3-0.8-0.4-1.4-0.4c-0.6,0-1.2,0.2-1.8,0.5
			c-0.5,0.3-1,0.9-1.3,1.6s-0.5,1.5-0.5,2.3c0,0.8,0.2,1.4,0.6,1.8c0.4,0.4,0.9,0.6,1.6,0.6c0.4,0,0.9-0.1,1.3-0.2
			c0.5-0.1,0.8-0.3,1.2-0.4l0.3-1.5h-2.5L379.6,112.6z"/>
		<path class="st0" d="M389.6,108h2l-1.1,5.3l-0.3,1.3c0,0.1,0,0.2,0,0.3c0,0.4,0.1,0.7,0.4,1c0.3,0.3,0.7,0.4,1.2,0.4
			c0.5,0,0.9-0.1,1.2-0.3c0.3-0.2,0.6-0.5,0.7-0.8c0.2-0.4,0.3-1,0.5-1.8l1.1-5.3h2l-1.1,5.4c-0.2,1.1-0.5,2-0.8,2.6
			c-0.3,0.6-0.8,1.1-1.4,1.5c-0.6,0.4-1.4,0.6-2.4,0.6c-1.1,0-2-0.3-2.6-0.8c-0.6-0.6-0.9-1.3-0.9-2.2c0-0.2,0-0.4,0-0.6
			c0-0.1,0.1-0.5,0.2-1.2L389.6,108z"/>
		<path class="st0" d="M402.2,117.8h-2l2.1-9.8h4.3c0.7,0,1.3,0.1,1.7,0.2c0.4,0.2,0.8,0.4,1,0.8c0.3,0.4,0.4,0.9,0.4,1.5
			c0,0.8-0.2,1.5-0.7,2.1c-0.5,0.5-1.3,0.9-2.3,1c0.3,0.2,0.5,0.5,0.7,0.9c0.4,0.8,1,1.8,1.5,3.2h-2.2c-0.2-0.6-0.5-1.4-1-2.6
			c-0.3-0.6-0.6-1.1-0.9-1.3c-0.2-0.1-0.5-0.2-1-0.2h-0.8L402.2,117.8z M403.4,112.3h1.1c1.1,0,1.8-0.1,2.2-0.2
			c0.4-0.1,0.6-0.3,0.8-0.6c0.2-0.3,0.3-0.6,0.3-0.9c0-0.4-0.1-0.6-0.4-0.8c-0.2-0.1-0.6-0.2-1.2-0.2h-2.2L403.4,112.3z"/>
		<path class="st0" d="M413.4,114c0-0.6,0.1-1.2,0.3-1.8c0.2-0.9,0.6-1.6,1-2.2c0.5-0.6,1.1-1.1,1.8-1.5c0.7-0.4,1.5-0.6,2.4-0.6
			c1.2,0,2.2,0.4,2.9,1.1c0.7,0.8,1.1,1.7,1.1,3c0,1-0.2,2-0.7,3s-1.1,1.7-2,2.2c-0.8,0.5-1.8,0.8-2.8,0.8c-0.9,0-1.7-0.2-2.3-0.6
			c-0.6-0.4-1.1-0.9-1.3-1.5C413.5,115.2,413.4,114.6,413.4,114z M415.4,114c0,0.7,0.2,1.2,0.6,1.7c0.4,0.5,0.9,0.7,1.6,0.7
			c0.5,0,1.1-0.2,1.6-0.5c0.5-0.4,0.9-0.9,1.2-1.6c0.3-0.7,0.5-1.4,0.5-2.1c0-0.8-0.2-1.4-0.6-1.8c-0.4-0.4-0.9-0.7-1.6-0.7
			c-1,0-1.8,0.5-2.4,1.4C415.7,111.9,415.4,112.9,415.4,114z"/>
		<path class="st0" d="M426.5,114.7l1.9-0.1c0,0.6,0.1,1,0.3,1.2c0.3,0.3,0.8,0.5,1.6,0.5c0.7,0,1.1-0.1,1.4-0.4
			c0.3-0.2,0.4-0.5,0.4-0.9c0-0.3-0.1-0.5-0.4-0.7c-0.2-0.1-0.6-0.4-1.4-0.7c-0.8-0.3-1.3-0.6-1.7-0.8s-0.6-0.5-0.8-0.9
			c-0.2-0.4-0.3-0.8-0.3-1.2c0-0.8,0.3-1.5,0.9-2.1c0.6-0.5,1.5-0.8,2.6-0.8c1.1,0,2,0.3,2.7,0.8c0.6,0.5,1,1.3,1,2.2l-1.9,0.1
			c0-0.5-0.2-0.8-0.5-1.1c-0.3-0.2-0.7-0.4-1.3-0.4c-0.6,0-1,0.1-1.2,0.3c-0.2,0.2-0.4,0.4-0.4,0.7c0,0.3,0.1,0.5,0.3,0.7
			c0.2,0.2,0.7,0.4,1.4,0.8c1.1,0.5,1.8,0.9,2.2,1.2c0.5,0.4,0.7,1,0.7,1.7c0,0.9-0.3,1.6-1,2.2c-0.7,0.6-1.6,0.9-2.9,0.9
			c-0.8,0-1.6-0.1-2.2-0.4c-0.6-0.3-1.1-0.7-1.3-1.2C426.6,115.9,426.4,115.3,426.5,114.7z"/>
		<path class="st0" d="M438.4,116h1.9l-0.4,1.8H438L438.4,116z"/>
	</g>
	<g>
		<path class="st0" d="M248.4,39.6l-2.9,10.5h-8.1l-11.8,42h-13.7l11.8-42h-8.1l2.9-10.5H248.4z"/>
		<path class="st0" d="M279.6,39.6l-6.9,52.5h-14l1.9-9.4h-4.9l-3.5,9.4h-14.1l21.7-52.5H279.6z M262.9,73.3
			c1-5.9,2.3-13.3,4.1-22.1c-4.2,10.1-7.1,17.4-8.8,22.1H262.9z"/>
		<path class="st0" d="M327.9,39.6l-9.8,35.1c-1.1,4-2,6.8-2.7,8.4c-0.7,1.6-1.9,3.3-3.7,5c-1.8,1.7-3.8,3-6.1,3.9
			c-2.3,0.9-4.9,1.3-7.7,1.3c-3.1,0-5.8-0.5-7.9-1.6c-2.1-1-3.5-2.4-4.2-4.1c-0.7-1.7-0.9-3.4-0.6-5.3c0.3-1.8,1.3-5.7,2.9-11.7
			l8.7-31.1h13.7l-11,39.4c-0.6,2.3-0.9,3.8-0.9,4.4c0.1,0.6,0.5,1,1.2,1c0.9,0,1.5-0.4,2-1.1c0.4-0.7,1-2.4,1.8-5l10.8-38.7H327.9z
			"/>
		<path class="st0" d="M340.4,39.6h9.7c6.4,0,10.7,0.2,12.9,0.7c2.1,0.5,3.6,1.8,4.5,3.8c0.9,2,0.7,5.3-0.6,9.8
			c-1.1,4.1-2.4,6.8-3.8,8.2c-1.4,1.4-3.6,2.2-6.7,2.5c2.5,0.7,4.1,1.6,4.7,2.7c0.6,1.1,0.9,2.2,0.9,3.1c0,0.9-0.6,3.5-1.8,7.8
			l-3.9,13.8h-12.7l4.9-17.4c0.8-2.8,1.1-4.6,0.8-5.2c-0.3-0.7-1.3-1-3.2-1l-6.6,23.7h-13.7L340.4,39.6z M351.5,48.6l-3.3,11.7
			c1.5,0,2.7-0.2,3.4-0.6c0.7-0.4,1.4-1.8,2.1-4.1l0.8-2.9c0.5-1.7,0.5-2.8,0-3.3C354.1,48.8,353.1,48.6,351.5,48.6z"/>
		<path class="st0" d="M414.4,39.6l-9.8,35.1c-1.1,4-2,6.8-2.7,8.4c-0.7,1.6-1.9,3.3-3.7,5c-1.8,1.7-3.8,3-6.1,3.9
			c-2.3,0.9-4.9,1.3-7.7,1.3c-3.1,0-5.8-0.5-7.9-1.6c-2.1-1-3.5-2.4-4.2-4.1c-0.7-1.7-0.9-3.4-0.6-5.3c0.3-1.8,1.3-5.7,2.9-11.7
			l8.7-31.1h13.7l-11,39.4c-0.6,2.3-0.9,3.8-0.9,4.4c0.1,0.6,0.5,1,1.2,1c0.9,0,1.5-0.4,2-1.1c0.4-0.7,1-2.4,1.8-5l10.8-38.7H414.4z
			"/>
		<path class="st0" d="M451.3,55.5h-12.7l1.1-3.9c0.5-1.8,0.7-3,0.5-3.5c-0.2-0.5-0.7-0.7-1.4-0.7c-0.8,0-1.5,0.3-2.1,1
			c-0.6,0.7-1.1,1.7-1.5,3c-0.5,1.8-0.6,3.1-0.4,4c0.2,0.9,1.2,2,3,3.2c5.1,3.6,8.1,6.6,9,8.9c0.9,2.3,0.7,6-0.8,11.2
			c-1,3.7-2.3,6.5-3.6,8.3c-1.4,1.8-3.5,3.3-6.3,4.5c-2.8,1.2-5.9,1.8-9.3,1.8c-3.7,0-6.6-0.7-8.8-2.1c-2.2-1.4-3.4-3.1-3.6-5.3
			c-0.2-2.1,0.3-5.2,1.4-9.1l1-3.4h12.7l-1.8,6.4c-0.6,2-0.7,3.2-0.5,3.8c0.2,0.6,0.8,0.8,1.7,0.8c0.9,0,1.7-0.4,2.3-1.1
			c0.6-0.7,1.2-1.8,1.6-3.2c0.9-3.1,1-5.1,0.4-6.1c-0.6-1-2.3-2.5-5.1-4.8c-2.8-2.2-4.6-3.9-5.4-4.9c-0.8-1-1.3-2.4-1.6-4.2
			c-0.2-1.8,0.1-4.1,0.8-6.9c1.1-4,2.5-7,4-8.8c1.5-1.9,3.6-3.3,6.2-4.4c2.6-1,5.5-1.6,8.7-1.6c3.5,0,6.4,0.6,8.6,1.7
			c2.2,1.1,3.4,2.6,3.7,4.3c0.3,1.7-0.1,4.7-1.3,8.9L451.3,55.5z"/>
	</g>
</g>
</svg>
