<?xml version="1.0" encoding="utf-8"?>
<!-- Generator: Adobe Illustrator 23.0.1, SVG Export Plug-In . SVG Version: 6.00 Build 0)  -->
<svg version="1.1" id="Camada_1" xmlns="http://www.w3.org/2000/svg" xmlns:xlink="http://www.w3.org/1999/xlink" x="0px" y="0px"
	 viewBox="0 0 65 60" style="enable-background:new 0 0 65 60;" xml:space="preserve">
<style type="text/css">
	.st0{fill:#263774;}
</style>
<g>
	<path class="st0" d="M47.5,15.1c0,8.2-6.6,14.8-14.8,14.8c-8.2,0-14.8-6.6-14.8-14.8c0-8.2,6.6-14.8,14.8-14.8
		C40.9,0.3,47.5,6.9,47.5,15.1z"/>
	<path class="st0" d="M44.9,27.4c0,0-2.9,3.3-8,4.6l-2.4,4.8h-3.7l-2.5-4.9c-4.9-1.3-7.6-4.5-7.6-4.5s-6.3,0-9.2,5.1
		c-2.9,5.1-7.9,24.4,3.9,26.9H50c0,0,5.7-0.2,7.1-8.4C57.1,43.8,56.8,28.1,44.9,27.4z M32.8,49.1L29,43.3l1.5-5.6h4.2l1.3,5.7
		L32.8,49.1z"/>
</g>
</svg>
