<?xml version="1.0" encoding="utf-8"?>
<!-- Generator: Adobe Illustrator 23.0.1, SVG Export Plug-In . SVG Version: 6.00 Build 0)  -->
<svg version="1.1" id="Camada_1" xmlns="http://www.w3.org/2000/svg" xmlns:xlink="http://www.w3.org/1999/xlink" x="0px" y="0px"
	 viewBox="0 0 65 60" style="enable-background:new 0 0 65 60;" xml:space="preserve">
<style type="text/css">
	.st0{fill:#FFFFFF;}
</style>
<g>
	<g id="XMLID_22_">
		<path id="XMLID_30_" class="st0" d="M61.9,25.5l-7.7-5.9l6-5.3c0.4-0.4,0.6-1,0.3-1.5c-0.2-0.5-0.8-0.8-1.3-0.8l-8.1,0.9l3.6-9
			c0.2-0.5,0-1.1-0.4-1.5c-0.5-0.4-1.1-0.4-1.5,0L44,8.6l-1.9-7.2c-0.1-0.5-0.6-0.9-1.2-1c-0.5,0-1.1,0.3-1.3,0.8l-3.1,7.3L27.8,4
			c-0.5-0.3-1.2-0.1-1.6,0.3c-0.4,0.5-0.4,1.2,0,1.6l5.6,6.9l-6,2.8c-0.5,0.2-0.8,0.8-0.7,1.3c0.1,0.6,0.5,1,1,1.1l6.1,1.1
			c0,0,1.4,0.2,2.2,1.4l0,0l1.3-1.4c0.3-0.4,0.4-0.8,0.2-1.3s-0.5-0.8-1-0.8l-4.4-0.8l3.8-1.8c0.4-0.2,0.6-0.5,0.7-0.9
			c0.1-0.4,0-0.8-0.3-1.1L32,9l4.5,2.3c0.3,0.2,0.7,0.2,1,0.1c0.3-0.1,0.6-0.4,0.8-0.7l2.2-5.1l1.4,5.4c0.1,0.4,0.4,0.7,0.8,0.9
			c0.4,0.1,0.8,0.1,1.2-0.2L50.7,7l-2.8,7c-0.2,0.4-0.1,0.9,0.2,1.3c0.3,0.4,0.7,0.5,1.2,0.5l6.2-0.7l-4.2,3.7
			c-0.3,0.3-0.4,0.6-0.4,1s0.2,0.7,0.5,1l4,3.1l-4.2-1c-0.4-0.1-0.9,0-1.2,0.3s-0.5,0.7-0.4,1.2l0.9,4.7l-3.6-4.4
			c-0.3-0.3-0.7-0.5-1.1-0.5c-0.4,0-0.8,0.3-1,0.7l-2.8,5L40.8,23c-0.1-0.4-0.3-0.7-0.6-0.9c-0.3-0.2-0.7-0.3-1-0.1l-3.4,1
			c0.1,0.4,0.2,0.8,0.2,1.2v1.4l2.5-0.7l1.5,9.2c0.1,0.5,0.5,1,1.1,1.1c0.5,0.1,1.1-0.2,1.3-0.7l3.6-6.7l5.6,6.9
			c0.4,0.5,1,0.6,1.5,0.4c0.5-0.2,0.8-0.8,0.7-1.4l-1.5-7.8l8.3,2c0.6,0.1,1.2-0.1,1.5-0.7C62.5,26.5,62.4,25.9,61.9,25.5z"/>
		<circle id="XMLID_536_" class="st0" cx="17.2" cy="26.2" r="4.7"/>
		<path id="XMLID_819_" class="st0" d="M44.2,54.2L35,49.5c-0.4-0.2-0.8-0.3-1.3-0.3L20,49.3L30.4,47l1.8-1.7l0.4,1.2h1
			c0.9,0,1.7,0.2,2.5,0.6l3.1,1.6L36,39.4c-0.3-0.9-1.1-1.6-2-1.8s-1.9,0.1-2.5,0.7l-4.1,4c-1-4.2-0.7-3-1.5-6.1l5.9-1.6
			c1-0.3,1.7-1.2,1.7-2.2l-0.1-8.2c0-1.3-1.1-2.3-2.3-2.3c-1.3,0-2.3,1.1-2.3,2.3l0.1,6.4L24,32c-0.7-0.5-1.7-0.7-2.6-0.5
			c-6.1,1.5-5.7,1.4-6,1.5l2.3,1.2l-8.5-1.8L6.3,25c-0.5-1.2-1.8-1.8-3-1.3s-1.8,1.8-1.3,3l3.4,8.5c0.3,0.7,0.9,1.2,1.7,1.4l9.4,2
			L14,38.7c0.7,2.8,2.7,11.1,3.5,14.2l0,0c0.3,1.2,1.4,2,2.6,2l0,0l13-0.1l8.6,4.4c1.4,0.7,3,0.1,3.7-1.2
			C46.1,56.5,45.6,54.9,44.2,54.2z"/>
	</g>
</g>
</svg>
