<?xml version="1.0" encoding="utf-8"?>
<!-- Generator: Adobe Illustrator 23.0.1, SVG Export Plug-In . SVG Version: 6.00 Build 0)  -->
<svg version="1.1" id="Camada_1" xmlns="http://www.w3.org/2000/svg" xmlns:xlink="http://www.w3.org/1999/xlink" x="0px" y="0px"
	 viewBox="0 0 65 60" style="enable-background:new 0 0 65 60;" xml:space="preserve">
<style type="text/css">
	.st0{fill:#FFFFFF;}
</style>
<g>
	<g>
		<path class="st0" d="M62.6,26.7l-28-25.6c-1.2-1.1-3.1-1.1-4.3,0l-28,25.6c-1,0.9-1.3,2.3-0.8,3.5c0.5,1.2,1.7,2,3,2h4.5v25.6
			c0,1,0.8,1.8,1.8,1.8H26c1,0,1.8-0.8,1.8-1.8V42.3h9v15.5c0,1,0.8,1.8,1.8,1.8h15.4c1,0,1.8-0.8,1.8-1.8V32.3h4.5
			c1.3,0,2.5-0.8,3-2C63.9,29,63.6,27.6,62.6,26.7z"/>
	</g>
</g>
<g>
	<g>
		<path class="st0" d="M55.5,4H43.1l14.2,12.9V5.8C57.3,4.8,56.5,4,55.5,4z"/>
	</g>
</g>
</svg>
