<?xml version="1.0" encoding="utf-8"?>
<!-- Generator: Adobe Illustrator 23.0.1, SVG Export Plug-In . SVG Version: 6.00 Build 0)  -->
<svg version="1.1" id="Camada_1" xmlns="http://www.w3.org/2000/svg" xmlns:xlink="http://www.w3.org/1999/xlink" x="0px" y="0px"
	 viewBox="0 0 488.9 158.4" style="enable-background:new 0 0 488.9 158.4;" xml:space="preserve">
<style type="text/css">
	.st0{fill:#FFFFFF;}
</style>
<g>
	<path class="st0" d="M193,52.4h-19.6l11.5-39.9c0,0-33.4,0-39.3,0c-6,0-7.8,10.5-7.8,10.5L129,52.5h-16.3l-8.6,28.3
		c0,0,8.3,0,14.1,0c5.8,0,3.5,5.8,3.5,5.8s-6.2,21.4-7.6,25.8c-1.3,4.4-4.2,3.6-4.2,3.6l-7.8,28.3c0,0,10,0,28.6,0
		c18.6,0,20.5-11.7,20.5-11.7l15.1-51.7h19.1L193,52.4z"/>
	<polygon class="st0" points="107.6,110.2 113.8,86.6 67.1,86.6 60.6,110.2 	"/>
	<path class="st0" d="M56.7,115.6c-6.1-0.2-3.7-7.8-3.7-7.8s5-20.8,5.8-23.9c0.9-3.1,5.1-2.9,5.1-2.9h33.6l8.5-28.8
		c0,0-48.9,0-61.8-0.1c-12.9,0-15,12.2-15,12.2S9.3,129.8,7.4,137.4c-1.9,7.7,5.6,7,5.6,7h83l8.4-28.6
		C104.4,115.8,62.8,115.8,56.7,115.6z"/>
	<path class="st0" d="M472.3,12.4H214.7l-1.7,3.5c0,0,257.6,0,258,0c6.1,0,7.8,1,7.3,7c0.1,3.5-12,86.2-15.1,100.9
		c-4.7,19-17.7,17.4-17.7,17.4H175.6l-1.2,3.3c0,0,253.7,0,271.6,0c16.9,0.1,20.7-19.5,20.7-19.5s15-97.9,15.2-105.1
		C482.2,12.6,472.3,12.4,472.3,12.4z"/>
	<path class="st0" d="M205.5,118c1.1,0,2-0.3,2.8-0.9c0.8-0.6,1.4-1.4,1.8-2.5l-2-0.3c-0.3,0.7-0.6,1.2-0.9,1.6
		c-0.4,0.3-0.9,0.5-1.4,0.5c-0.6,0-1-0.2-1.4-0.6c-0.4-0.4-0.6-1-0.6-1.8s0.1-1.5,0.4-2.2s0.7-1.3,1.2-1.6c0.5-0.3,1-0.5,1.6-0.5
		c0.5,0,0.9,0.1,1.2,0.4c0.3,0.2,0.5,0.6,0.6,1.2l1.9-0.2c-0.2-1-0.5-1.7-1.2-2.3s-1.5-0.9-2.6-0.9c-0.9,0-1.8,0.2-2.6,0.7
		s-1.4,1.2-1.9,2.1c-0.5,1-0.7,2-0.7,3.1c0,1.3,0.3,2.4,1,3.1S204.3,118,205.5,118z"/>
	<path class="st0" d="M217.3,108.5c-0.7,0.4-1.3,0.9-1.8,1.5c-0.4,0.6-0.8,1.3-1,2.2c-0.2,0.6-0.3,1.2-0.3,1.8
		c0,0.6,0.1,1.2,0.4,1.9c0.2,0.6,0.7,1.1,1.3,1.5c0.6,0.4,1.4,0.6,2.3,0.6c1,0,1.9-0.3,2.8-0.8c0.9-0.5,1.5-1.2,2-2.2s0.7-2,0.7-3
		c0-1.3-0.4-2.2-1.1-3c-0.7-0.7-1.7-1.1-2.9-1.1C218.8,107.9,218,108.1,217.3,108.5z M221.7,112.2c0,0.7-0.2,1.4-0.5,2.1
		c-0.3,0.7-0.7,1.2-1.2,1.6c-0.5,0.3-1.1,0.5-1.6,0.5c-0.7,0-1.2-0.2-1.6-0.7c-0.4-0.5-0.6-1-0.6-1.7c0-1.1,0.3-2.1,0.9-2.9
		c0.6-0.9,1.4-1.4,2.4-1.4c0.7,0,1.2,0.3,1.6,0.7C221.5,110.8,221.7,111.4,221.7,112.2z"/>
	<path class="st0" d="M236.4,110.5c0-0.6-0.1-1.1-0.4-1.5c-0.2-0.4-0.6-0.6-1-0.8c-0.4-0.1-1-0.2-1.7-0.2H229l-2,9.8h2l0.7-4.2h0.8
		c0.5,0,0.8,0.1,1,0.2c0.3,0.2,0.6,0.7,0.9,1.3c0.5,1.2,0.8,2,1,2.6h2.2c-0.5-1.4-1.1-2.4-1.5-3.2c-0.2-0.4-0.4-0.7-0.7-0.9
		c1-0.1,1.8-0.5,2.3-1C236.2,112,236.4,111.3,236.4,110.5z M234.3,111.5c-0.2,0.3-0.4,0.5-0.8,0.6c-0.4,0.1-1.1,0.2-2.2,0.2h-1.1
		l0.6-2.7h2.2c0.6,0,1,0.1,1.2,0.2c0.3,0.2,0.4,0.4,0.4,0.8C234.6,110.9,234.5,111.2,234.3,111.5z"/>
	<path class="st0" d="M249,110.5c0-0.6-0.1-1.1-0.4-1.5c-0.2-0.4-0.6-0.6-1-0.8c-0.4-0.1-1-0.2-1.7-0.2h-4.3l-2,9.8h2l0.7-4.2h0.8
		c0.5,0,0.8,0.1,1,0.2c0.3,0.2,0.6,0.7,0.9,1.3c0.5,1.2,0.8,2,1,2.6h2.2c-0.5-1.4-1.1-2.4-1.5-3.2c-0.2-0.4-0.4-0.7-0.7-0.9
		c1-0.1,1.8-0.5,2.3-1C248.8,112,249,111.3,249,110.5z M246.9,111.5c-0.2,0.3-0.4,0.5-0.8,0.6c-0.4,0.1-1.1,0.2-2.2,0.2h-1.1
		l0.6-2.7h2.2c0.6,0,1,0.1,1.2,0.2c0.3,0.2,0.4,0.4,0.4,0.8C247.2,110.9,247.1,111.2,246.9,111.5z"/>
	<polygon class="st0" points="252.2,117.8 252.2,117.7 252.2,117.7 	"/>
	<polygon class="st0" points="261.2,109.6 261.5,108 254.2,108 252.2,117.7 260,117.7 260.3,116.1 254.6,116.1 255.2,113.4 
		260.3,113.4 260.6,111.8 255.5,111.8 256,109.6 	"/>
	<polygon class="st0" points="268.3,117.8 270,109.6 272.8,109.6 273.1,108 265.4,108 265.1,109.6 268,109.6 266.3,117.8 	"/>
	<path class="st0" d="M275.8,112.2c-0.2,0.6-0.3,1.2-0.3,1.8c0,0.6,0.1,1.2,0.4,1.9c0.2,0.6,0.7,1.1,1.3,1.5
		c0.6,0.4,1.4,0.6,2.3,0.6c1,0,2-0.3,2.8-0.8c0.9-0.5,1.5-1.2,2-2.2s0.7-2,0.7-3c0-1.3-0.4-2.2-1.1-3c-0.7-0.7-1.7-1.1-2.9-1.1
		c-0.9,0-1.7,0.2-2.4,0.6c-0.7,0.4-1.3,0.9-1.8,1.5C276.4,110.6,276,111.3,275.8,112.2z M278.4,111.1c0.6-0.9,1.4-1.4,2.4-1.4
		c0.7,0,1.2,0.3,1.6,0.7c0.4,0.4,0.6,1,0.6,1.8c0,0.7-0.2,1.4-0.5,2.1c-0.3,0.7-0.7,1.2-1.2,1.6c-0.5,0.3-1.1,0.5-1.6,0.5
		c-0.7,0-1.2-0.2-1.6-0.7c-0.4-0.5-0.6-1-0.6-1.7C277.5,112.9,277.8,111.9,278.4,111.1z"/>
	<path class="st0" d="M297.8,110.5c0-0.6-0.1-1.1-0.4-1.5c-0.2-0.4-0.6-0.6-1-0.8c-0.4-0.1-1-0.2-1.7-0.2h-4.3l-2.1,9.8h2l0.8-4.2
		h0.8c0.5,0,0.8,0.1,1,0.2c0.3,0.2,0.6,0.7,0.9,1.3c0.5,1.2,0.8,2,1,2.6h2.2c-0.5-1.4-1.1-2.4-1.5-3.2c-0.2-0.4-0.4-0.7-0.7-0.9
		c1-0.1,1.8-0.5,2.3-1C297.6,112,297.8,111.3,297.8,110.5z M295.5,111.5c-0.2,0.3-0.4,0.5-0.8,0.6s-1.1,0.2-2.2,0.2h-1.1l0.6-2.7
		h2.2c0.6,0,1,0.1,1.2,0.2c0.3,0.2,0.4,0.4,0.4,0.8C295.8,110.9,295.7,111.2,295.5,111.5z"/>
	<path class="st0" d="M300,117.9h2.1l1.2-2.2h3.9l0.2,2.2h1.9l-1.6-9.8h-2.2L300,117.9z M307,114h-3l2.4-3.9L307,114z"/>
	<path class="st0" d="M327.5,108.7c-0.3-0.2-0.6-0.4-0.9-0.5c-0.3-0.1-0.7-0.2-1.1-0.2c-0.2,0-0.7,0-1.4,0h-2.6l-2,9.6h3.5
		c0.8,0,1.5,0,1.9-0.1c0.7-0.2,1.3-0.4,1.8-0.8c0.6-0.4,1.1-1.1,1.5-1.9c0.4-0.8,0.6-1.7,0.6-2.8c0-0.5-0.1-1-0.2-1.4
		c-0.1-0.4-0.2-0.8-0.4-1.1C328,109.2,327.8,108.9,327.5,108.7z M326.4,114.3c-0.3,0.6-0.6,1-1,1.4c-0.3,0.2-0.6,0.4-0.9,0.5
		c-0.3,0.1-0.9,0.1-1.6,0.1h-1l1.4-6.5h1.2c0.6,0,1,0,1.2,0.1c0.3,0.1,0.6,0.4,0.8,0.7c0.2,0.4,0.3,0.9,0.3,1.6
		C326.8,113,326.7,113.7,326.4,114.3z"/>
	<polygon class="st0" points="319.5,117.8 319.5,117.6 319.5,117.6 	"/>
	<polygon class="st0" points="332.1,117.8 332.1,117.7 332.1,117.7 	"/>
	<polygon class="st0" points="341.1,109.6 341.4,108 334.1,108 332.1,117.7 339.8,117.7 340.1,116.1 334.4,116.1 335,113.4 
		340.2,113.4 340.5,111.8 335.4,111.8 335.9,109.6 	"/>
	<path class="st0" d="M355.3,109.4c0.6,0,1,0.2,1.3,0.4c0.3,0.3,0.5,0.6,0.5,1.1l1.9-0.1c0-0.9-0.4-1.7-1-2.2
		c-0.7-0.5-1.6-0.8-2.7-0.8c-1.1,0-2,0.3-2.6,0.8c-0.6,0.6-0.9,1.3-0.9,2.1c0,0.4,0.1,0.8,0.3,1.2s0.4,0.7,0.8,0.9
		c0.4,0.2,0.9,0.5,1.7,0.8s1.2,0.6,1.4,0.7c0.3,0.2,0.4,0.4,0.4,0.7c0,0.4-0.1,0.7-0.4,0.9c-0.3,0.3-0.7,0.4-1.4,0.4
		c-0.8,0-1.3-0.2-1.6-0.5c-0.2-0.2-0.3-0.6-0.3-1.2l-1.9,0.1c0,0.6,0.1,1.2,0.1,1.6c0.2,0.5,0.7,0.9,1.3,1.2
		c0.6,0.3,1.4,0.4,2.2,0.4c1.3,0,2.2-0.3,2.9-0.9c0.7-0.6,1-1.3,1-2.2c0-0.7-0.2-1.3-0.7-1.7c-0.4-0.3-1.1-0.7-2.2-1.2
		c-0.7-0.4-1.2-0.6-1.4-0.8c-0.2-0.2-0.3-0.4-0.3-0.7s0.2-0.5,0.4-0.7S354.7,109.4,355.3,109.4z"/>
	<polygon class="st0" points="362.3,117.7 370,117.7 370.3,116.1 364.6,116.1 365.2,113.4 370.3,113.4 370.6,111.8 365.5,111.8 
		366,109.6 371.3,109.6 371.6,108 364.3,108 	"/>
	<polygon class="st0" points="362.3,117.8 362.3,117.7 362.3,117.7 	"/>
	<path class="st0" d="M378.5,110c0.6-0.3,1.2-0.5,1.8-0.5c0.6,0,1,0.1,1.4,0.4c0.4,0.2,0.6,0.6,0.8,1.2l1.9-0.2
		c-0.3-1-0.7-1.8-1.4-2.3s-1.6-0.8-2.7-0.8c-1.2,0-2.2,0.3-3,0.9c-0.8,0.5-1.4,1.3-1.9,2.4c-0.4,0.8-0.6,1.7-0.6,2.7
		c0,1.5,0.4,2.6,1.3,3.3c0.7,0.5,1.6,0.8,2.8,0.8c0.8,0,1.6-0.1,2.3-0.3c0.8-0.2,1.4-0.5,1.9-0.8l0.9-4.2h-4.4l-0.4,1.6h2.5
		l-0.3,1.5c-0.4,0.1-0.7,0.3-1.2,0.4c-0.4,0.1-0.9,0.2-1.3,0.2c-0.7,0-1.2-0.2-1.6-0.6c-0.4-0.4-0.6-1-0.6-1.8s0.2-1.6,0.5-2.3
		S378,110.3,378.5,110z"/>
	<path class="st0" d="M390.5,113.3l1.1-5.3h-2l-1.3,5.4c-0.1,0.7-0.2,1.1-0.2,1.2c0,0.2,0,0.4,0,0.6c0,0.9,0.3,1.6,0.9,2.2
		c0.6,0.5,1.5,0.8,2.6,0.8c1,0,1.8-0.2,2.4-0.6c0.6-0.4,1.1-0.9,1.4-1.5c0.3-0.6,0.6-1.5,0.8-2.6l1.1-5.4h-2l-1.1,5.3
		c-0.2,0.8-0.3,1.4-0.5,1.8c-0.1,0.3-0.4,0.6-0.7,0.8c-0.3,0.2-0.7,0.3-1.2,0.3s-0.9-0.1-1.2-0.4s-0.4-0.6-0.4-1c0-0.1,0-0.2,0-0.3
		L390.5,113.3z"/>
	<path class="st0" d="M409.7,110.5c0-0.6-0.1-1.1-0.4-1.5c-0.2-0.4-0.6-0.6-1-0.8c-0.4-0.1-1-0.2-1.7-0.2h-4.3l-2.1,9.8h2l0.8-4.2
		h0.8c0.5,0,0.8,0.1,1,0.2c0.3,0.2,0.6,0.7,0.9,1.3c0.5,1.2,0.8,2,1,2.6h2.2c-0.5-1.4-1.1-2.4-1.5-3.2c-0.2-0.4-0.4-0.7-0.7-0.9
		c1-0.1,1.8-0.5,2.3-1C409.5,112,409.7,111.3,409.7,110.5z M407.5,111.5c-0.2,0.3-0.4,0.5-0.8,0.6s-1.1,0.2-2.2,0.2h-1.1l0.6-2.7
		h2.2c0.6,0,1,0.1,1.2,0.2c0.3,0.2,0.4,0.4,0.4,0.8C407.8,110.9,407.7,111.2,407.5,111.5z"/>
	<path class="st0" d="M416.5,108.5c-0.7,0.4-1.3,0.9-1.8,1.5c-0.4,0.6-0.8,1.3-1,2.2c-0.2,0.6-0.3,1.2-0.3,1.8
		c0,0.6,0.1,1.2,0.4,1.9c0.2,0.6,0.7,1.1,1.3,1.5s1.4,0.6,2.3,0.6c1,0,2-0.3,2.8-0.8c0.9-0.5,1.5-1.2,2-2.2s0.7-2,0.7-3
		c0-1.3-0.4-2.2-1.1-3c-0.7-0.7-1.7-1.1-2.9-1.1C418,107.9,417.2,108.1,416.5,108.5z M420.9,112.2c0,0.7-0.2,1.4-0.5,2.1
		c-0.3,0.7-0.7,1.2-1.2,1.6c-0.5,0.3-1.1,0.5-1.6,0.5c-0.7,0-1.2-0.2-1.6-0.7c-0.4-0.5-0.6-1-0.6-1.7c0-1.1,0.3-2.1,0.9-2.9
		c0.6-0.9,1.4-1.4,2.4-1.4c0.7,0,1.2,0.3,1.6,0.7C420.7,110.8,420.9,111.4,420.9,112.2z"/>
	<path class="st0" d="M431,109.4c0.6,0,1,0.2,1.3,0.4c0.3,0.3,0.5,0.6,0.5,1.1l1.9-0.1c0-0.9-0.4-1.7-1-2.2
		c-0.7-0.5-1.6-0.8-2.7-0.8c-1.1,0-2,0.3-2.6,0.8c-0.6,0.6-0.9,1.3-0.9,2.1c0,0.4,0.1,0.8,0.3,1.2s0.4,0.7,0.8,0.9
		c0.4,0.2,0.9,0.5,1.7,0.8s1.2,0.6,1.4,0.7c0.3,0.2,0.4,0.4,0.4,0.7c0,0.4-0.1,0.7-0.4,0.9c-0.3,0.3-0.7,0.4-1.4,0.4
		c-0.8,0-1.3-0.2-1.6-0.5c-0.2-0.2-0.3-0.6-0.3-1.2l-1.9,0.1c-0.1,0.6,0.1,1.2,0.1,1.6c0.2,0.5,0.7,0.9,1.3,1.2
		c0.6,0.3,1.4,0.4,2.2,0.4c1.3,0,2.2-0.3,2.9-0.9c0.7-0.6,1-1.3,1-2.2c0-0.7-0.2-1.3-0.7-1.7c-0.4-0.3-1.1-0.7-2.2-1.2
		c-0.7-0.4-1.2-0.6-1.4-0.8c-0.2-0.2-0.3-0.4-0.3-0.7s0.2-0.5,0.4-0.7S430.4,109.4,431,109.4z"/>
	<polygon class="st0" points="439.9,117.8 440.3,116 438.4,116 438,117.8 	"/>
	<polygon class="st0" points="225.6,92.1 237.4,50.1 245.5,50.1 248.4,39.6 218.5,39.6 215.6,50.1 223.7,50.1 211.9,92.1 	"/>
	<path class="st0" d="M238.1,92.1h14.1l3.5-9.4h4.9l-1.9,9.4h14l6.9-52.5h-19.8L238.1,92.1z M262.9,73.3h-4.7
		c1.7-4.7,4.6-12,8.8-22.1C265.2,60,263.9,67.4,262.9,73.3z"/>
	<path class="st0" d="M310.5,39.5h-13.7l-8.7,31.1c-1.6,6-2.6,9.9-2.9,11.7c-0.3,1.9-0.1,3.6,0.6,5.3s2.1,3.1,4.2,4.1
		c2.1,1.1,4.8,1.6,7.9,1.6c2.8,0,5.4-0.4,7.7-1.3c2.3-0.9,4.3-2.2,6.1-3.9s3-3.4,3.7-5c0.7-1.6,1.6-4.4,2.7-8.4l9.8-35.1v-0.1h-13.5
		l-10.8,38.7c-0.8,2.6-1.4,4.3-1.8,5c-0.5,0.7-1.1,1.1-2,1.1c-0.7,0-1.1-0.4-1.2-1c0-0.6,0.3-2.1,0.9-4.4L310.5,39.5z"/>
	<path class="st0" d="M363,40.3c-2.2-0.5-6.5-0.7-12.9-0.7h-9.7l-14.6,52.5h13.7l6.6-23.7c1.9,0,2.9,0.3,3.2,1
		c0.3,0.6,0,2.4-0.8,5.2L343.6,92h12.7l3.9-13.8c1.2-4.3,1.8-6.9,1.8-7.8s-0.3-2-0.9-3.1c-0.6-1.1-2.2-2-4.7-2.7
		c3.1-0.3,5.3-1.1,6.7-2.5c1.4-1.4,2.7-4.1,3.8-8.2c1.3-4.5,1.5-7.8,0.6-9.8C366.6,42.1,365.1,40.8,363,40.3z M354.5,52.7l-0.8,2.9
		c-0.7,2.3-1.4,3.7-2.1,4.1c-0.7,0.4-1.9,0.6-3.4,0.6l3.3-11.7c1.6,0,2.6,0.2,3,0.8C355,49.9,355,51,354.5,52.7z"/>
	<path class="st0" d="M397,39.5h-13.7l-8.7,31.1c-1.6,6-2.6,9.9-2.9,11.7c-0.3,1.9-0.1,3.6,0.6,5.3s2.1,3.1,4.2,4.1
		c2.1,1.1,4.8,1.6,7.9,1.6c2.8,0,5.4-0.4,7.7-1.3c2.3-0.9,4.3-2.2,6.1-3.9s3-3.4,3.7-5c0.7-1.6,1.6-4.4,2.7-8.4l9.8-35.1v-0.1h-13.5
		l-10.8,38.7c-0.8,2.6-1.4,4.3-1.8,5c-0.5,0.7-1.1,1.1-2,1.1c-0.7,0-1.1-0.4-1.2-1c0-0.6,0.3-2.1,0.9-4.4L397,39.5z"/>
	<path class="st0" d="M429.5,73.4h-12.7l-1,3.4c-1.1,3.9-1.6,7-1.4,9.1c0.2,2.2,1.4,3.9,3.6,5.3c2.2,1.4,5.1,2.1,8.8,2.1
		c3.4,0,6.5-0.6,9.3-1.8c2.8-1.2,4.9-2.7,6.3-4.5c1.3-1.8,2.6-4.6,3.6-8.3c1.5-5.2,1.7-8.9,0.8-11.2c-0.9-2.3-3.9-5.3-9-8.9
		c-1.8-1.2-2.8-2.3-3-3.2s-0.1-2.2,0.4-4c0.4-1.3,0.9-2.3,1.5-3c0.6-0.7,1.3-1,2.1-1c0.7,0,1.2,0.2,1.4,0.7s0,1.7-0.5,3.5l-1.1,3.9
		h12.7l0.5-2.2c1.2-4.2,1.6-7.2,1.3-8.9c-0.3-1.7-1.5-3.2-3.7-4.3s-5.1-1.7-8.6-1.7c-3.2,0-6.1,0.6-8.7,1.6
		c-2.6,1.1-4.7,2.5-6.2,4.4c-1.5,1.8-2.9,4.8-4,8.8c-0.7,2.8-1,5.1-0.8,6.9c0.3,1.8,0.8,3.2,1.6,4.2s2.6,2.7,5.4,4.9
		c2.8,2.3,4.5,3.8,5.1,4.8c0.6,1,0.5,3-0.4,6.1c-0.4,1.4-1,2.5-1.6,3.2s-1.4,1.1-2.3,1.1c-0.9,0-1.5-0.2-1.7-0.8
		c-0.2-0.6-0.1-1.8,0.5-3.8L429.5,73.4z"/>
</g>
</svg>
