<?xml version="1.0" encoding="utf-8"?>
<!-- Generator: Adobe Illustrator 23.0.1, SVG Export Plug-In . SVG Version: 6.00 Build 0)  -->
<svg version="1.1" id="Layer_1" xmlns="http://www.w3.org/2000/svg" xmlns:xlink="http://www.w3.org/1999/xlink" x="0px" y="0px"
	 viewBox="0 0 406.8 264.4" style="enable-background:new 0 0 406.8 264.4;" xml:space="preserve">
<style type="text/css">
	.st0{fill:url(#SVGID_1_);}
	.st1{fill:url(#SVGID_2_);}
	.st2{fill:url(#SVGID_3_);}
	.st3{fill:url(#SVGID_4_);}
	.st4{fill:url(#SVGID_5_);}
	.st5{fill:url(#SVGID_6_);}
	.st6{fill:url(#SVGID_7_);}
	.st7{fill:url(#SVGID_8_);}
	.st8{fill:url(#SVGID_9_);}
	.st9{fill:url(#SVGID_10_);}
	.st10{fill:url(#SVGID_11_);}
	.st11{fill:url(#SVGID_12_);}
	.st12{fill:#09192C;}
	.st13{fill:#194789;}
	.st14{fill:#195795;}
	.st15{fill:url(#SVGID_13_);}
	.st16{fill:url(#SVGID_14_);}
	.st17{fill:url(#SVGID_15_);}
	.st18{fill:url(#SVGID_16_);}
	.st19{fill:url(#SVGID_17_);}
	.st20{fill:url(#SVGID_18_);}
	.st21{fill:url(#SVGID_19_);}
	.st22{fill:url(#SVGID_20_);}
	.st23{fill:url(#SVGID_21_);}
	.st24{fill:url(#SVGID_22_);}
	.st25{fill:#FFFFFF;}
</style>
<g>
	<linearGradient id="SVGID_1_" gradientUnits="userSpaceOnUse" x1="179.2355" y1="171.2944" x2="186.2355" y2="171.2944">
		<stop  offset="0" style="stop-color:#194789"/>
		<stop  offset="1" style="stop-color:#130E40"/>
	</linearGradient>
	<path class="st0" d="M183.4,165.6c-0.2,0-0.1-0.2-0.1-0.2s0.4-0.3,0.7-0.6c0.3-0.4,0.3-0.8,0.2-1.5c-0.1-0.6-0.8-1-1.3-1
		c-0.6-0.1-1.3,0.5-1.3,0.5s-0.7,0.8-0.4,1.8c0.1,0.3,0.5,0.6,0.7,0.7c-0.1,0-0.3,0-0.6,0c-0.8,0-0.8,0-1.3,0.2
		c-0.5,0.3-0.8,1.2-0.8,1.2v5c0,0,0,0.3,0.1,0.5c0.2,0.2,0.3,0.4,0.7,0.4c0.4,0,0.6-0.5,0.6-0.5v-4.2h0.3c0,0-0.1,11.6-0.1,11.7
		c0,0.1,0.2,0.4,0.3,0.5c0.1,0.1,0.2,0.1,0.6,0.1c0.3,0,0.7-0.5,0.7-0.5v-6.9h0.4v6.9c0,0,0,0.1,0.2,0.3c0.2,0.2,0.4,0.3,0.8,0.3
		c0.4,0,0.7-0.5,0.7-0.5v-11.7h0.3v3.9c0,0,0,0.2,0.1,0.4c0.1,0.3,0.5,0.4,0.8,0.4c0.3-0.1,0.5-0.6,0.5-0.6s0-3.5,0-4.6
		c0-1.1-0.3-1.2-0.7-1.7C185.1,165.4,183.5,165.6,183.4,165.6z"/>
	<linearGradient id="SVGID_2_" gradientUnits="userSpaceOnUse" x1="170.9355" y1="171.2944" x2="177.9355" y2="171.2944">
		<stop  offset="0" style="stop-color:#194789"/>
		<stop  offset="1" style="stop-color:#130E40"/>
	</linearGradient>
	<path class="st1" d="M175.1,165.6c-0.2,0-0.1-0.2-0.1-0.2s0.4-0.3,0.7-0.6c0.3-0.4,0.3-0.8,0.2-1.5c-0.1-0.6-0.8-1-1.3-1
		c-0.6-0.1-1.3,0.5-1.3,0.5s-0.7,0.8-0.4,1.8c0.1,0.3,0.5,0.6,0.7,0.7c-0.1,0-0.3,0-0.6,0c-0.8,0-0.8,0-1.3,0.2
		c-0.5,0.3-0.8,1.2-0.8,1.2v5c0,0,0,0.3,0.1,0.5c0.2,0.2,0.3,0.4,0.7,0.4c0.4,0,0.6-0.5,0.6-0.5v-4.2h0.3c0,0-0.1,11.6-0.1,11.7
		c0,0.1,0.2,0.4,0.3,0.5c0.1,0.1,0.2,0.1,0.6,0.1c0.3,0,0.7-0.5,0.7-0.5v-6.9h0.4v6.9c0,0,0,0.1,0.2,0.3c0.2,0.2,0.4,0.3,0.8,0.3
		c0.4,0,0.7-0.5,0.7-0.5v-11.7h0.3v3.9c0,0,0,0.2,0.1,0.4c0.1,0.3,0.5,0.4,0.8,0.4c0.3-0.1,0.5-0.6,0.5-0.6s0-3.5,0-4.6
		c0-1.1-0.3-1.2-0.7-1.7C176.8,165.4,175.2,165.6,175.1,165.6z"/>
	<linearGradient id="SVGID_3_" gradientUnits="userSpaceOnUse" x1="187.5355" y1="171.2944" x2="194.5355" y2="171.2944">
		<stop  offset="0" style="stop-color:#194789"/>
		<stop  offset="1" style="stop-color:#130E40"/>
	</linearGradient>
	<path class="st2" d="M191.7,165.6c-0.2,0-0.1-0.2-0.1-0.2s0.4-0.3,0.7-0.6c0.3-0.4,0.3-0.8,0.2-1.5c-0.1-0.6-0.8-1-1.3-1
		c-0.6-0.1-1.3,0.5-1.3,0.5s-0.7,0.8-0.4,1.8c0.1,0.3,0.5,0.6,0.7,0.7c-0.1,0-0.3,0-0.6,0c-0.8,0-0.8,0-1.3,0.2
		c-0.5,0.3-0.8,1.2-0.8,1.2v5c0,0,0,0.3,0.1,0.5c0.2,0.2,0.3,0.4,0.7,0.4s0.6-0.5,0.6-0.5v-4.2h0.3c0,0-0.1,11.6-0.1,11.7
		c0,0.1,0.2,0.4,0.3,0.5c0.1,0.1,0.2,0.1,0.6,0.1c0.3,0,0.7-0.5,0.7-0.5v-6.9h0.4v6.9c0,0,0,0.1,0.2,0.3c0.2,0.2,0.4,0.3,0.8,0.3
		c0.4,0,0.7-0.5,0.7-0.5v-11.7h0.3v3.9c0,0,0,0.2,0.1,0.4c0.1,0.3,0.5,0.4,0.8,0.4c0.3-0.1,0.5-0.6,0.5-0.6s0-3.5,0-4.6
		c0-1.1-0.3-1.2-0.7-1.7S191.8,165.6,191.7,165.6z"/>
	<linearGradient id="SVGID_4_" gradientUnits="userSpaceOnUse" x1="195.5355" y1="171.2944" x2="202.5355" y2="171.2944">
		<stop  offset="0" style="stop-color:#194789"/>
		<stop  offset="1" style="stop-color:#130E40"/>
	</linearGradient>
	<path class="st3" d="M199.7,165.6c-0.2,0-0.1-0.2-0.1-0.2s0.4-0.3,0.7-0.6c0.3-0.4,0.3-0.8,0.2-1.5c-0.1-0.6-0.8-1-1.3-1
		c-0.6-0.1-1.3,0.5-1.3,0.5s-0.7,0.8-0.4,1.8c0.1,0.3,0.5,0.6,0.7,0.7c-0.1,0-0.3,0-0.6,0c-0.8,0-0.8,0-1.3,0.2
		c-0.5,0.3-0.8,1.2-0.8,1.2v5c0,0,0,0.3,0.1,0.5c0.2,0.2,0.3,0.4,0.7,0.4s0.6-0.5,0.6-0.5v-4.2h0.3c0,0-0.1,11.6-0.1,11.7
		c0,0.1,0.2,0.4,0.3,0.5c0.1,0.1,0.2,0.1,0.6,0.1c0.3,0,0.7-0.5,0.7-0.5v-6.9h0.4v6.9c0,0,0,0.1,0.2,0.3c0.2,0.2,0.4,0.3,0.8,0.3
		c0.4,0,0.7-0.5,0.7-0.5v-11.7h0.3v3.9c0,0,0,0.2,0.1,0.4c0.1,0.3,0.5,0.4,0.8,0.4c0.3-0.1,0.5-0.6,0.5-0.6s0-3.5,0-4.6
		c0-1.1-0.3-1.2-0.7-1.7S199.8,165.6,199.7,165.6z"/>
	<linearGradient id="SVGID_5_" gradientUnits="userSpaceOnUse" x1="203.9355" y1="171.2944" x2="210.7355" y2="171.2944">
		<stop  offset="0" style="stop-color:#194789"/>
		<stop  offset="1" style="stop-color:#130E40"/>
	</linearGradient>
	<path class="st4" d="M207.9,165.6c-0.2,0-0.1-0.2-0.1-0.2s0.4-0.3,0.7-0.6c0.3-0.4,0.3-0.8,0.2-1.5c-0.1-0.6-0.8-1-1.3-1
		c-0.6-0.1-1.3,0.5-1.3,0.5s-0.7,0.8-0.4,1.8c0.1,0.3,0.5,0.6,0.7,0.7c-0.1,0-0.2,0-0.4,0c-0.8,0-0.8,0-1.3,0.2
		c-0.5,0.3-0.8,1.2-0.8,1.2v5c0,0,0,0.3,0.1,0.5c0.2,0.2,0.3,0.4,0.7,0.4c0.4,0,0.6-0.5,0.6-0.5v-4.2h0.3c0,0-0.1,11.6-0.1,11.7
		c0,0.1,0.2,0.4,0.3,0.5c0.1,0.1,0.2,0.1,0.6,0.1c0.3,0,0.7-0.5,0.7-0.5v-6.9h0.3v6.9c0,0,0,0.1,0.2,0.3c0.2,0.2,0.4,0.3,0.8,0.3
		c0.4,0,0.7-0.5,0.7-0.5v-11.7h0.2v3.9c0,0,0,0.2,0.1,0.4c0.1,0.3,0.5,0.4,0.8,0.4c0.3-0.1,0.5-0.6,0.5-0.6s0-3.5,0-4.6
		c0-1.1-0.3-1.2-0.7-1.7C209.6,165.4,208,165.6,207.9,165.6z"/>
	<linearGradient id="SVGID_6_" gradientUnits="userSpaceOnUse" x1="211.8355" y1="171.2944" x2="218.7355" y2="171.2944">
		<stop  offset="0" style="stop-color:#194789"/>
		<stop  offset="1" style="stop-color:#130E40"/>
	</linearGradient>
	<path class="st5" d="M215.9,165.6c-0.2,0-0.1-0.2-0.1-0.2s0.4-0.3,0.7-0.6c0.3-0.4,0.3-0.8,0.2-1.5c-0.1-0.6-0.8-1-1.3-1
		c-0.6-0.1-1.3,0.5-1.3,0.5s-0.7,0.8-0.4,1.8c0.1,0.3,0.5,0.6,0.7,0.7c-0.1,0-0.3,0-0.5,0c-0.8,0-0.8,0-1.3,0.2
		c-0.5,0.3-0.8,1.2-0.8,1.2v5c0,0,0,0.3,0.1,0.5c0.2,0.2,0.3,0.4,0.7,0.4c0.4,0,0.6-0.5,0.6-0.5v-4.2h0.3c0,0-0.1,11.6-0.1,11.7
		c0,0.1,0.2,0.4,0.3,0.5c0.1,0.1,0.2,0.1,0.6,0.1c0.3,0,0.7-0.5,0.7-0.5v-6.9h0.4v6.9c0,0,0,0.1,0.2,0.3c0.2,0.2,0.4,0.3,0.8,0.3
		c0.4,0,0.7-0.5,0.7-0.5v-11.7h0.2v3.9c0,0,0,0.2,0.1,0.4c0.1,0.3,0.5,0.4,0.8,0.4c0.3-0.1,0.5-0.6,0.5-0.6s0-3.5,0-4.6
		c0-1.1-0.3-1.2-0.7-1.7S216,165.6,215.9,165.6z"/>
	<linearGradient id="SVGID_7_" gradientUnits="userSpaceOnUse" x1="219.8355" y1="171.2944" x2="226.7355" y2="171.2944">
		<stop  offset="0" style="stop-color:#194789"/>
		<stop  offset="1" style="stop-color:#130E40"/>
	</linearGradient>
	<path class="st6" d="M226,165.9c-0.4-0.5-2-0.3-2.1-0.3c-0.2,0-0.1-0.2-0.1-0.2s0.4-0.3,0.7-0.6c0.3-0.4,0.3-0.8,0.2-1.5
		c-0.1-0.6-0.8-1-1.3-1c-0.6-0.1-1.3,0.5-1.3,0.5s-0.7,0.8-0.4,1.8c0.1,0.3,0.5,0.6,0.7,0.7c-0.1,0-0.3,0-0.5,0
		c-0.8,0-0.8,0-1.3,0.2c-0.5,0.3-0.8,1.2-0.8,1.2v5c0,0,0,0.3,0.1,0.5c0.2,0.2,0.3,0.4,0.7,0.4c0.4,0,0.6-0.5,0.6-0.5v-4.2h0.3
		c0,0-0.1,11.6-0.1,11.7c0,0.1,0.2,0.4,0.3,0.5c0.1,0.1,0.2,0.1,0.6,0.1c0.3,0,0.7-0.5,0.7-0.5v-6.9h0.4v6.9c0,0,0,0.1,0.2,0.3
		c0.2,0.2,0.4,0.3,0.8,0.3c0.4,0,0.7-0.5,0.7-0.5v-11.7h0.2v3.9c0,0,0,0.2,0.1,0.4c0.1,0.3,0.5,0.4,0.8,0.4c0.3-0.1,0.5-0.6,0.5-0.6
		s0-3.5,0-4.6C226.7,166.5,226.4,166.4,226,165.9z"/>
	<linearGradient id="SVGID_8_" gradientUnits="userSpaceOnUse" x1="176.4355" y1="162.15" x2="178.4355" y2="162.15">
		<stop  offset="0" style="stop-color:#194789"/>
		<stop  offset="1" style="stop-color:#130E40"/>
	</linearGradient>
	<polygon class="st7" points="176.4,163 178.4,162.5 177.1,161.3 	"/>
	<linearGradient id="SVGID_9_" gradientUnits="userSpaceOnUse" x1="177.6355" y1="161.7" x2="178.5355" y2="161.7">
		<stop  offset="0" style="stop-color:#194789"/>
		<stop  offset="1" style="stop-color:#130E40"/>
	</linearGradient>
	<path class="st8" d="M177.6,161.2c0.7,0.3,0.9,1,0.9,1s0-0.2-0.1-0.5C178.3,161.4,177.6,161.2,177.6,161.2z"/>
	<linearGradient id="SVGID_10_" gradientUnits="userSpaceOnUse" x1="177.8355" y1="161.5" x2="179.0605" y2="161.5">
		<stop  offset="0" style="stop-color:#194789"/>
		<stop  offset="1" style="stop-color:#130E40"/>
	</linearGradient>
	<path class="st9" d="M177.8,160.8c1,0.5,1.2,1.4,1.2,1.4s0.1-0.3-0.1-0.7C178.8,161.1,177.8,160.8,177.8,160.8z"/>
	<linearGradient id="SVGID_11_" gradientUnits="userSpaceOnUse" x1="177.9355" y1="161.2" x2="179.8355" y2="161.2">
		<stop  offset="0" style="stop-color:#194789"/>
		<stop  offset="1" style="stop-color:#130E40"/>
	</linearGradient>
	<path class="st10" d="M179.8,162.2c0,0,0-0.4-0.2-1c-0.3-0.6-1.7-1-1.7-1C179.4,160.9,179.8,162.2,179.8,162.2z"/>
	<linearGradient id="SVGID_12_" gradientUnits="userSpaceOnUse" x1="178.0355" y1="160.9" x2="180.7855" y2="160.9">
		<stop  offset="0" style="stop-color:#194789"/>
		<stop  offset="1" style="stop-color:#130E40"/>
	</linearGradient>
	<path class="st11" d="M180.7,162.4c0,0,0.2-0.7-0.2-1.5c-0.4-0.9-2.5-1.5-2.5-1.5C180.1,160.5,180.7,162.4,180.7,162.4z"/>
</g>
<g>
	<path class="st12" d="M186.3,109.5c-0.6-0.8-1-1.5-1.4-2.2v3.1C185.4,110.1,185.9,109.8,186.3,109.5z"/>
	<path class="st12" d="M221.7,94.8c6.7-6.9,13.4-13.9,13.4-25.6c0-6.9-4.7-20.4-26-21.3c-0.1-0.5-0.4-0.8-1.4-0.8
		c-1.2,0-2.3-0.1-5-0.7c-3.5-0.8-7.6-1.4-13.2-1.4c-5.6,0-10.5,1-14.7,2.8c-1.5,0-2.1,0.2-2.1,1c-8,4.3-12.6,12.1-12.6,21.8
		c0,9.7,3.4,18.5,18.5,31l6,5c-0.8-1.7-1.1-3.3-1.1-5c0-4.5,4.6-10.4,12.1-10.4c0.3,0,0.6,0,0.9,0V54.2c0-0.9,0.4-1.3,1.7-1.6
		c0.2-0.1,0.5-0.1,0.7-0.2c3.6,1.8,5.1,4.1,5.6,5.1c0.9,1.5,1.8,5.4,1.9,7.1c0.1,1.2,0.2,1.9,1.1,1.9c0.7,0,1-1,1-3.3
		c0-4.9,0.2-8.5,0.3-11c11.1,2.1,15.4,13.5,15.4,24.2c0,5.9-2.1,11-5.1,14.4c-3,3.4-5,3.7-13,3.7c-1.1,0-2.1,0-3-0.1
		c0,1-0.1,2.6-0.2,3.9c2.2,0,4.4,0.1,5.4,0.3c3.4,0.4,7,0.8,11.8,4.1c11,7.6,13.8,20,13.8,28.5c0,16.1-12.4,20.2-20.1,20.2
		c-2.5,0-8.7-0.2-12.5-2.1c-0.1,0-0.1-0.1-0.2-0.1c5.7-4.8,8.4-10.9,9.6-16.1c-1.4-0.8-3-2-5.3-3.8c-0.6,0.6-1.9,2-4,3.3
		c0,0,0,0,0,0c0,4.2-1.4,8.5-4.3,12c-0.4-1.5-0.5-3.5-0.6-6.4c0-0.5,0-1.7-0.1-3.5c-1.5,0.4-3.2,0.7-5.1,0.7
		c-2.6,0.1-4.7-0.4-6.5-1.3c-0.1,4.5-0.3,8.3-0.6,11c-0.3,2.7-0.8,5-1.9,6.4c-0.4,0-0.9,0-1.3,0c-9.6,0-19-4-21.1-14.5
		c-0.4-2-0.4-4-0.4-5.3c0-1.2-0.1-1.6-1-1.6c-0.7,0-1,0.7-1.1,2.3c-0.1,2.3-0.7,8-0.7,15.1c0,3.8,0.1,4.4,2.1,5.4
		c5.8,2.8,12.4,3.8,19,3.7c4,0,8-0.5,11.7-1.5c0.8,0,1.4,0,1.5,0c0.6,0,4.6,0.1,8.7,0.4c4.2,0.1,8.7,0.4,10.3,0.4
		c24.3,0,36.3-15.8,36.3-31C246.3,108.2,232.2,98.1,221.7,94.8z M185,89.1c-12.3-9.8-15.8-14.8-15.8-22.6c0-8.2,4.8-13.7,11.5-15.7
		c2.9,1.2,3.7,3.5,4,7.5C185,62.9,185,66.9,185,89.1L185,89.1z"/>
	<path class="st12" d="M211.4,128.5c0-0.5,0.1-1,0.1-1.5c0-1.8-0.1-3.5-0.3-5.1c-0.9,1.6-1.9,3.1-2.8,4.1
		C209.5,127,210.5,127.8,211.4,128.5z"/>
	<path class="st12" d="M187.3,100.6c0,4.4,3,8.1,8.9,14.4c1.9,2.1,8.9,8.6,10.7,10.1c1.5-2,2.7-5.5,2.9-8.8c-0.4-1.3-1-2.5-1.6-3.8
		c-0.7-0.4-1.6-0.5-2.2-0.5c-0.3,0-0.7-0.1-0.7-0.4c0-0.3,0.5-0.4,0.9-0.4c0.4,0,0.8,0,1.4,0c-2.3-4-5.8-8.1-10.9-12.7
		c0.1-0.1,0.3-0.2,0.6-0.2c0.8,0,2.5,0,4.3,0c-0.2-0.9-0.7-1.8-1.4-2.6c-0.6-0.7-1.4-1.3-2.4-1.8c-0.1,0-0.2,0-0.3,0
		c-0.2-0.1-0.4-0.2-0.5-0.3c-0.7-0.3-1.5-0.4-2.4-0.4C191.1,93.2,187.3,95.3,187.3,100.6z"/>
	<path class="st12" d="M184.9,112.9v1.3c0,5.3,0,10.1,0,14.5c2.1,2.4,5.1,3.9,8.4,3.9c1.1,0,2.2-0.1,3.1-0.3c0-3,0-6.8,0-10.8
		c-1.2-1.1-2.1-2.1-2.6-2.6c-1.5-1.6-5.1-5.6-6.7-7.9C186.3,111.5,185.6,112.1,184.9,112.9z"/>
	<path class="st12" d="M204,128.4c-1-0.9-2.3-2-3.7-3.2c0.5,1.7,0.9,3.4,1,5.3C202.5,129.9,203.4,129.1,204,128.4z"/>
</g>
<polygon class="st13" points="166.3,68.3 168.7,69.6 166.3,70.9 165,73.3 163.6,70.9 161.3,69.6 163.6,68.3 165,65.9 "/>
<polygon class="st13" points="240.7,133.1 243.4,134.6 240.7,136 239.3,138.7 237.8,136 235.2,134.6 237.8,133.1 239.3,130.5 "/>
<path class="st14" d="M220.1,10.5l2,11.2c0,0-5,0.5-12.3,3.7c0,0,13.1,26.6,32.6,23.2c0,0,8.1,24.7,21.2,28.3c0,0-2.6,16,3.9,26
	c0,0-12.1,16.3-7.8,29.1c0,0-26.9,11.2-21.6,42.6c0,0-19.5,9.4-25.4,9.6c-6,0.2-39.7,0-54-11.1c0,0,8.3-33.9-25-47
	c0,0,0.3-16.9-9.5-27.1c0,0,15.5-19.1,11.1-30.1c0,0,16.7-6.1,18.2-22.8c0,0,25,0.7,30.1-18.6c0,0-0.9-2.2-11.1-5.1
	c0,0,4.1-9.7,1-10.4c-3.1-0.7-26.7-1.5-34.2,16c0,0-21.8,4.4-26,29.6l-2.4-0.5c0,0-18.4,23-4.8,43.9c0,0-7.8-3.6-8.7-1.9
	c-0.9,1.7-4.8,32,18.6,42.9c0,0,4.3,31.1,39.1,33.7c0,0,22.3,11.1,30,11.4c0,0-11.4,0.2-18.2,4.6c-6.8,4.4-12.1,4.6-12.1,4.6
	l-0.9,4.3c0,0,3.4,0,9.5-2.7c6.1-2.7,12.4-6.8,24.5-7.5c0,0,0.3,1.7,12.1-0.5s18.6,0.7,24.5,3.2s13.8,7.8,13.8,7.8l3.1,0.2l1.2-3.4
	c0,0-9.9-3.6-23.3-11.7c0,0,15.7-3.9,22-8.3c0,0,36.9-0.5,40.5-35.4c0,0,18.2-9.4,11.6-38.5c0,0,8.7-23.1-7.1-37.3l-4.1,2.2
	c0,0-2.6-30-26.6-35.6C255.5,33.2,245,7.6,220.1,10.5z"/>
<g>
	
		<linearGradient id="SVGID_13_" gradientUnits="userSpaceOnUse" x1="130.0012" y1="64.75" x2="159.4103" y2="64.75" gradientTransform="matrix(1 0 0 -1 0 216)">
		<stop  offset="0" style="stop-color:#194789"/>
		<stop  offset="0.1212" style="stop-color:#1A5B98"/>
		<stop  offset="0.3897" style="stop-color:#278EC5"/>
		<stop  offset="0.5076" style="stop-color:#2AAAE2"/>
		<stop  offset="0.5487" style="stop-color:#2A9ED4"/>
		<stop  offset="0.7076" style="stop-color:#2376AF"/>
		<stop  offset="0.841" style="stop-color:#1B5D9A"/>
		<stop  offset="0.9425" style="stop-color:#184D8E"/>
		<stop  offset="1" style="stop-color:#194789"/>
	</linearGradient>
	<path class="st15" d="M131,125.8c0,0-1.9,12.2-0.5,20.3c1.4,8.1,7.3,18.4,10.8,21.2s16.6,9.4,16.6,9.4s3.5-16.8-0.4-26
		S143.4,130,131,125.8z"/>
	
		<linearGradient id="SVGID_14_" gradientUnits="userSpaceOnUse" x1="109.0782" y1="133.9388" x2="135.73" y2="133.9388" gradientTransform="matrix(1 0 0 -1 0 216)">
		<stop  offset="0" style="stop-color:#194789"/>
		<stop  offset="0.1212" style="stop-color:#1A5B98"/>
		<stop  offset="0.3897" style="stop-color:#278EC5"/>
		<stop  offset="0.5076" style="stop-color:#2AAAE2"/>
		<stop  offset="0.5487" style="stop-color:#2A9ED4"/>
		<stop  offset="0.7076" style="stop-color:#2376AF"/>
		<stop  offset="0.841" style="stop-color:#1B5D9A"/>
		<stop  offset="0.9425" style="stop-color:#184D8E"/>
		<stop  offset="1" style="stop-color:#194789"/>
	</linearGradient>
	<path class="st16" d="M109.9,103.1c0,0-2.5-16.1,0.7-25.1c3.2-9,21.6-17,21.6-17s7.3,11,0.7,24.4c-6.5,13.4-8.7,14.9-8.7,14.9
		s-5.5-4.4-7.3-5.1c-1.6-0.7-1.6-0.7-1.6-0.7s0-0.7-2.3,4.2C110.7,103.7,109.9,103.1,109.9,103.1z"/>
	
		<linearGradient id="SVGID_15_" gradientUnits="userSpaceOnUse" x1="118.4493" y1="161.3632" x2="154.6992" y2="161.3632" gradientTransform="matrix(1 0 0 -1 0 216)">
		<stop  offset="0" style="stop-color:#194789"/>
		<stop  offset="0.1212" style="stop-color:#1A5B98"/>
		<stop  offset="0.3897" style="stop-color:#278EC5"/>
		<stop  offset="0.5076" style="stop-color:#2AAAE2"/>
		<stop  offset="0.5487" style="stop-color:#2A9ED4"/>
		<stop  offset="0.7076" style="stop-color:#2376AF"/>
		<stop  offset="0.841" style="stop-color:#1B5D9A"/>
		<stop  offset="0.9425" style="stop-color:#184D8E"/>
		<stop  offset="1" style="stop-color:#194789"/>
	</linearGradient>
	<path class="st17" d="M118.6,65.8c0,0,3.5-14.9,11.1-19.6c7.5-4.7,9.4-6.1,16.5-6.8c7.1-0.7,8-0.5,8-0.5s1.9,4-2.1,12.6
		s-5.3,10.4-9.1,13.6c-3.8,3.2-7.4,5.3-7.4,5.3s-1.9-7.4-2.9-8.5c-0.9-1.1-0.5-0.9-0.5-0.9s-7.2,3.6-9.3,5s-4.2,2.4-4.2,2.4
		S118.1,66.7,118.6,65.8z"/>
	
		<linearGradient id="SVGID_16_" gradientUnits="userSpaceOnUse" x1="142.0742" y1="180.8337" x2="183.8252" y2="180.8337" gradientTransform="matrix(1 0 0 -1 0 216)">
		<stop  offset="0" style="stop-color:#194789"/>
		<stop  offset="0.1212" style="stop-color:#1A5B98"/>
		<stop  offset="0.3897" style="stop-color:#278EC5"/>
		<stop  offset="0.5076" style="stop-color:#2AAAE2"/>
		<stop  offset="0.5487" style="stop-color:#2A9ED4"/>
		<stop  offset="0.7076" style="stop-color:#2376AF"/>
		<stop  offset="0.841" style="stop-color:#1B5D9A"/>
		<stop  offset="0.9425" style="stop-color:#184D8E"/>
		<stop  offset="1" style="stop-color:#194789"/>
	</linearGradient>
	<path class="st18" d="M144.3,32.4c0,0,6.3-8.1,15.1-8.8c8.8-0.7,9.9-1.8,16.3,0.6s8.1,4.2,8.1,4.2s-3.4,6.7-7,10.5
		c-3.5,3.8-9.6,6.6-14.4,7.7c-4.8,1.1-8.8,1-8.8,1s1.5-2.8,1-5.7s-0.5-2.9-0.5-2.9s-2.9-0.7-7.1,0.2c-4.1,0.9-5.1,0.5-5.1,0.5
		S141.9,36.9,144.3,32.4z"/>
	
		<linearGradient id="SVGID_17_" gradientUnits="userSpaceOnUse" x1="238.2494" y1="61.4" x2="270.099" y2="61.4" gradientTransform="matrix(1 0 0 -1 0 216)">
		<stop  offset="0" style="stop-color:#194789"/>
		<stop  offset="0.1212" style="stop-color:#1A5B98"/>
		<stop  offset="0.3897" style="stop-color:#278EC5"/>
		<stop  offset="0.5076" style="stop-color:#2AAAE2"/>
		<stop  offset="0.5487" style="stop-color:#2A9ED4"/>
		<stop  offset="0.7076" style="stop-color:#2376AF"/>
		<stop  offset="0.841" style="stop-color:#1B5D9A"/>
		<stop  offset="0.9425" style="stop-color:#184D8E"/>
		<stop  offset="1" style="stop-color:#194789"/>
	</linearGradient>
	<path class="st19" d="M239.7,177.8c0,0,8.6-1.7,17.5-9c8.8-7.3,9.8-6.3,11.7-18.3s1.1-19.1,1.1-19.1s-6.5,0.2-14,5.2
		s-13.6,8.8-15.7,18.2c-2.1,9.4-1.9,21.1-1.9,21.1L239.7,177.8z"/>
	
		<linearGradient id="SVGID_18_" gradientUnits="userSpaceOnUse" x1="259.1965" y1="94.55" x2="284.5463" y2="94.55" gradientTransform="matrix(1 0 0 -1 0 216)">
		<stop  offset="0" style="stop-color:#194789"/>
		<stop  offset="0.1212" style="stop-color:#1A5B98"/>
		<stop  offset="0.3897" style="stop-color:#278EC5"/>
		<stop  offset="0.5076" style="stop-color:#2AAAE2"/>
		<stop  offset="0.5487" style="stop-color:#2A9ED4"/>
		<stop  offset="0.7076" style="stop-color:#2376AF"/>
		<stop  offset="0.841" style="stop-color:#1B5D9A"/>
		<stop  offset="0.9425" style="stop-color:#184D8E"/>
		<stop  offset="1" style="stop-color:#194789"/>
	</linearGradient>
	<path class="st20" d="M277.7,142.2c0,0,8-10.3,6.7-22.5c-1.3-12.3-8.6-21.3-8.6-21.3s-5.7,0.1-10,9.8c-4.4,9.7-7.2,13.6-6.5,19.3
		c0.7,5.7,0.8,6.5,0.8,6.5s5.5-2.2,7.7-2.4c2.1-0.1,2.1-0.1,2.1-0.1s0.5,6.3,0.1,9.3c-0.4,3.1-0.4,3.7-0.4,3.7s3.2-1.4,5.2-1.3
		C276.8,143.3,277.7,142.2,277.7,142.2z"/>
	
		<linearGradient id="SVGID_19_" gradientUnits="userSpaceOnUse" x1="263.7772" y1="126.9236" x2="289.427" y2="126.9236" gradientTransform="matrix(1 0 0 -1 0 216)">
		<stop  offset="0" style="stop-color:#194789"/>
		<stop  offset="0.1212" style="stop-color:#1A5B98"/>
		<stop  offset="0.3897" style="stop-color:#278EC5"/>
		<stop  offset="0.5076" style="stop-color:#2AAAE2"/>
		<stop  offset="0.5487" style="stop-color:#2A9ED4"/>
		<stop  offset="0.7076" style="stop-color:#2376AF"/>
		<stop  offset="0.841" style="stop-color:#1B5D9A"/>
		<stop  offset="0.9425" style="stop-color:#184D8E"/>
		<stop  offset="1" style="stop-color:#194789"/>
	</linearGradient>
	<path class="st21" d="M264.9,76.8c0,0,2.4-5.4,4.4-7.1s10.3,5.7,13.9,12.1c3.7,6.5,5.9,11,6.1,15.6s-0.5,6.5-0.5,6.5
		s-4,1.4-5.3,2.6c-1.3,1.2-1.9,2.2-1.9,2.2s-1.7-4.6-4.1-7.9c-2.5-3.3-2.8-2.7-2.8-2.7s-3.5,1.3-4.5,2.8c-0.9,1.5-2.9,3.8-2.9,3.8
		s-2.8-7.3-3.4-13.4C263.3,85.1,264.9,76.8,264.9,76.8z"/>
	
		<linearGradient id="SVGID_20_" gradientUnits="userSpaceOnUse" x1="242.794" y1="154.4683" x2="279.2364" y2="154.4683" gradientTransform="matrix(1 0 0 -1 0 216)">
		<stop  offset="0" style="stop-color:#194789"/>
		<stop  offset="0.1212" style="stop-color:#1A5B98"/>
		<stop  offset="0.3897" style="stop-color:#278EC5"/>
		<stop  offset="0.5076" style="stop-color:#2AAAE2"/>
		<stop  offset="0.5487" style="stop-color:#2A9ED4"/>
		<stop  offset="0.7076" style="stop-color:#2376AF"/>
		<stop  offset="0.841" style="stop-color:#1B5D9A"/>
		<stop  offset="0.9425" style="stop-color:#184D8E"/>
		<stop  offset="1" style="stop-color:#194789"/>
	</linearGradient>
	<path class="st22" d="M279.2,71c0,0-0.8-6.4-7.4-13.2s-7.7-8.4-15.7-11.1c-8-2.7-13.3-2.2-13.3-2.2s1.5,11.2,4.8,16.3
		s10.3,13.6,13.4,15.7c3.2,2.1,3.2,2.1,3.2,2.1s3.7-7.3,4.6-8.1c0.9-0.8,4.7-0.1,6.8,1.9s2.6,2.7,2.6,2.7S279.2,74.6,279.2,71z"/>
	
		<linearGradient id="SVGID_21_" gradientUnits="userSpaceOnUse" x1="209.9483" y1="179.2" x2="253.9845" y2="179.2" gradientTransform="matrix(1 0 0 -1 0 216)">
		<stop  offset="0" style="stop-color:#194789"/>
		<stop  offset="0.1212" style="stop-color:#1A5B98"/>
		<stop  offset="0.3897" style="stop-color:#278EC5"/>
		<stop  offset="0.5076" style="stop-color:#2AAAE2"/>
		<stop  offset="0.5487" style="stop-color:#2A9ED4"/>
		<stop  offset="0.7076" style="stop-color:#2376AF"/>
		<stop  offset="0.841" style="stop-color:#1B5D9A"/>
		<stop  offset="0.9425" style="stop-color:#184D8E"/>
		<stop  offset="1" style="stop-color:#194789"/>
	</linearGradient>
	<path class="st23" d="M253.7,44.3c0,0,1.3-4.1-2.2-8.6s-4.6-6.7-13.4-9.3c-8.8-2.6-15.1-3.2-15.1-3.2s-4.2,0.5-8.3,1.8
		c-4,1.3-4.8,1.9-4.8,1.9s6.9,11.8,13.7,16.7c6.8,5,12,6,15.2,6.3c3.2,0.2,5,0.5,5,0.5l-1.1-5.9c0,0,6.3,0.1,8.4,0.9
		C253.2,46.2,253.7,44.3,253.7,44.3z"/>
	
		<linearGradient id="SVGID_22_" gradientUnits="userSpaceOnUse" x1="108.3573" y1="98.15" x2="133.9049" y2="98.15" gradientTransform="matrix(1 0 0 -1 0 216)">
		<stop  offset="0" style="stop-color:#194789"/>
		<stop  offset="0.1212" style="stop-color:#1A5B98"/>
		<stop  offset="0.3897" style="stop-color:#278EC5"/>
		<stop  offset="0.5076" style="stop-color:#2AAAE2"/>
		<stop  offset="0.5487" style="stop-color:#2A9ED4"/>
		<stop  offset="0.7076" style="stop-color:#2376AF"/>
		<stop  offset="0.841" style="stop-color:#1B5D9A"/>
		<stop  offset="0.9425" style="stop-color:#184D8E"/>
		<stop  offset="1" style="stop-color:#194789"/>
	</linearGradient>
	<path class="st24" d="M115.3,137.4c0,0-7.6-10.4-6.9-20.7c0.7-10.3,6.9-22.3,6.9-22.3s5.8,1.9,9,5.8c3.2,3.9,7.3,9.2,8.5,16.5
		s1.1,10.4,1.1,10.4l-2.8-1.4c0,0-1.8,4.2-1.4,9.9c0.4,5.7,0.4,5.7,0.4,5.7l-10.1-4.1C119.9,137.3,118.8,136.9,115.3,137.4z"/>
</g>
<g>
	<path d="M11.7,245.1c-0.4-0.2-0.5-0.3-0.5-1.2c0-1.5,0.1-2.8,0.2-3.3c0-0.3,0.1-0.5,0.2-0.5c0.2,0,0.2,0.1,0.2,0.3
		c0,0.3,0,0.7,0.1,1.1c0.5,2.3,2.5,3.1,4.6,3.1c3,0,4.4-2.1,4.4-4.1c0-2.1-0.9-3.4-3.5-5.5L16,234c-3.3-2.7-4-4.6-4-6.7
		c0-3.3,2.5-5.5,6.4-5.5c1.2,0,2.1,0.1,2.9,0.3c0.6,0.1,0.8,0.2,1.1,0.2c0.2,0,0.3,0.1,0.3,0.2c0,0.2-0.1,1.2-0.1,3.3
		c0,0.5-0.1,0.7-0.2,0.7c-0.2,0-0.2-0.2-0.2-0.4c0-0.4-0.2-1.2-0.4-1.5c-0.2-0.3-1-1.6-3.8-1.6c-2.1,0-3.8,1.3-3.8,3.6
		c0,1.8,0.8,2.9,3.8,5.2l0.9,0.7c3.6,2.9,4.5,4.8,4.5,7.2c0,1.3-0.5,3.6-2.6,5.1c-1.3,0.9-3,1.3-4.6,1.3
		C14.4,245.9,13,245.7,11.7,245.1z"/>
	<path d="M31.2,231.1c0-4.8,0-5.7-0.1-6.6c-0.1-1-0.3-1.5-1.3-1.8c-0.2-0.1-0.8-0.1-1-0.1c-0.1,0-0.2-0.1-0.2-0.2
		c0-0.2,0.2-0.2,0.5-0.2c0.7,0,1.5,0,2.2,0l1.3,0.1c0.2,0,6.3,0,7,0c0.6,0,1.1-0.1,1.3-0.2c0.2,0,0.3-0.2,0.4-0.2
		c0.1,0,0.1,0.1,0.1,0.3c0,0.2-0.2,0.6-0.2,1.4c0,0.3-0.1,1.7-0.2,2c0,0.2-0.1,0.3-0.2,0.3c-0.2,0-0.2-0.2-0.2-0.4
		c0-0.2,0-0.7-0.2-1.1c-0.2-0.5-0.5-0.9-2.2-1c-0.5-0.1-3.9-0.1-4.2-0.1c-0.1,0-0.2,0.1-0.2,0.3v8.5c0,0.2,0,0.3,0.2,0.3
		c0.4,0,4.2,0,4.9-0.1c0.7-0.1,1.2-0.1,1.4-0.4c0.2-0.2,0.3-0.4,0.5-0.4c0.1,0,0.2,0.1,0.2,0.2s-0.2,0.7-0.2,1.7
		c-0.1,0.6-0.1,1.8-0.1,2c0,0.2,0,0.6-0.2,0.6c-0.2,0-0.2-0.1-0.2-0.3c0-0.3,0-0.6-0.1-1c-0.1-0.4-0.4-1-1.6-1.1
		c-0.8-0.1-3.9-0.2-4.4-0.2c-0.2,0-0.2,0.1-0.2,0.2v2.7c0,1,0,4.6,0,5.3c0.1,2.1,0.6,2.5,3.6,2.5c0.8,0,2.2,0,3-0.3
		c0.8-0.3,1.2-1,1.4-2.2c0.1-0.3,0.1-0.5,0.3-0.5c0.2,0,0.2,0.2,0.2,0.5c0,0.2-0.2,2.3-0.4,3c-0.2,0.8-0.5,0.8-1.7,0.8
		c-2.3,0-4-0.1-5.2-0.1c-1.2-0.1-1.9-0.1-2.4-0.1c-0.1,0-0.6,0-1.2,0c-0.6,0-1.3,0.1-1.8,0.1c-0.3,0-0.5-0.1-0.5-0.2
		c0-0.1,0.1-0.2,0.2-0.2c0.3,0,0.6-0.1,0.9-0.1c0.6-0.1,0.8-0.8,0.9-1.7c0.2-1.3,0.2-3.7,0.2-6.7V231.1z"/>
	<path d="M64.6,237.6c0-2.5-0.2-2.8-1.4-3.2c-0.2-0.1-0.8-0.1-1-0.1c-0.1,0-0.2-0.1-0.2-0.2c0-0.2,0.2-0.2,0.5-0.2
		c1.4,0,3.3,0.1,3.5,0.1s2.1-0.1,3-0.1c0.3,0,0.5,0.1,0.5,0.2c0,0.1-0.1,0.2-0.2,0.2c-0.2,0-0.4,0-0.8,0.1c-0.8,0.2-1.1,0.7-1.1,1.8
		c-0.1,1-0.1,1.9-0.1,3.2v3.4c0,1.4,0,1.4-0.4,1.7c-2,1-4.7,1.4-6.5,1.4c-2.3,0-6.7-0.3-10.1-3.3c-1.9-1.6-3.7-4.9-3.7-8.8
		c0-4.9,2.4-8.4,5.1-10.1c2.8-1.7,5.8-1.9,8.2-1.9c1.9,0,4.1,0.4,4.7,0.5c0.6,0.2,1.7,0.3,2.5,0.3c0.3,0,0.4,0.2,0.4,0.3
		c0,0.4-0.2,1.3-0.2,4.4c0,0.5-0.1,0.6-0.3,0.6c-0.2,0-0.2-0.2-0.2-0.5c0-0.4-0.2-1.3-0.6-2c-0.8-1.2-3.3-2.5-7.2-2.5
		c-1.9,0-4.2,0.2-6.6,2c-1.8,1.4-3,4.2-3,7.8c0,4.3,2.2,7.5,3.3,8.5c2.4,2.4,5.2,3.3,8.1,3.3c1.1,0,2.7-0.2,3.5-0.6
		c0.4-0.2,0.6-0.6,0.6-1.1V237.6z"/>
	<path d="M74.7,231.1c0-4.8,0-5.7-0.1-6.6c-0.1-1-0.3-1.5-1.3-1.8c-0.2-0.1-0.8-0.1-1-0.1c-0.1,0-0.2-0.1-0.2-0.2
		c0-0.2,0.2-0.2,0.5-0.2c1.4,0,3.3,0.1,3.5,0.1s2.1-0.1,3-0.1c0.3,0,0.5,0.1,0.5,0.2c0,0.1-0.1,0.2-0.2,0.2c-0.2,0-0.4,0-0.8,0.1
		c-0.8,0.1-1.1,0.7-1.1,1.8c-0.1,1-0.1,1.8-0.1,6.6v4.3c0,4.4,1,6.3,2.3,7.6c1.5,1.4,2.9,1.7,4.6,1.7c1.9,0,3.7-0.9,4.8-2.2
		c1.4-1.8,1.8-4.4,1.8-7.5v-3.8c0-4.8,0-5.7-0.1-6.6c-0.1-1-0.3-1.5-1.3-1.8c-0.2-0.1-0.8-0.1-1-0.1c-0.1,0-0.2-0.1-0.2-0.2
		c0-0.2,0.2-0.2,0.5-0.2c1.4,0,3.1,0.1,3.3,0.1c0.2,0,1.7-0.1,2.6-0.1c0.3,0,0.5,0.1,0.5,0.2c0,0.1-0.1,0.2-0.2,0.2
		c-0.2,0-0.4,0-0.8,0.1c-0.8,0.2-1.1,0.7-1.1,1.8c-0.1,1-0.1,1.8-0.1,6.6v3.3c0,3.3-0.4,7-2.8,9.2c-2.2,2-4.5,2.3-6.3,2.3
		c-1,0-4.2-0.1-6.3-2.2c-1.5-1.4-2.7-3.6-2.7-8.1V231.1z"/>
	<path d="M102,231.1c0-4.8,0-5.7-0.1-6.6c-0.1-1-0.3-1.5-1.3-1.8c-0.2-0.1-0.8-0.1-1-0.1c-0.1,0-0.2-0.1-0.2-0.2
		c0-0.2,0.2-0.2,0.5-0.2c1.4,0,3.3,0.1,3.5,0.1c0.3,0,2.7-0.1,3.6-0.1c1.9,0,4,0.2,5.6,1.4c0.8,0.6,2.1,2.1,2.1,4.2
		c0,2.3-1,4.6-3.7,7.1c2.5,3.2,4.6,6,6.4,7.9c1.7,1.8,3,2.1,3.8,2.2c0.6,0.1,1,0.1,1.2,0.1c0.2,0,0.3,0.1,0.3,0.2
		c0,0.2-0.2,0.2-0.7,0.2h-2.2c-1.7,0-2.5-0.2-3.3-0.6c-1.3-0.7-2.4-2.2-4.2-4.5c-1.3-1.7-2.7-3.8-3.4-4.6c-0.1-0.1-0.2-0.2-0.4-0.2
		l-3.8-0.1c-0.2,0-0.2,0.1-0.2,0.2v0.7c0,3,0,5.4,0.2,6.7c0.1,0.9,0.3,1.6,1.2,1.7c0.4,0.1,1.1,0.1,1.4,0.1c0.2,0,0.2,0.1,0.2,0.2
		c0,0.2-0.2,0.2-0.5,0.2c-1.7,0-3.6-0.1-3.8-0.1c0,0-2,0.1-2.9,0.1c-0.3,0-0.5-0.1-0.5-0.2c0-0.1,0.1-0.2,0.2-0.2
		c0.3,0,0.6-0.1,0.9-0.1c0.6-0.1,0.8-0.8,0.9-1.7c0.2-1.3,0.2-3.7,0.2-6.7V231.1z M104.4,233.8c0,0.2,0.1,0.3,0.2,0.4
		c0.5,0.3,1.9,0.5,3.2,0.5c0.7,0,1.6-0.1,2.3-0.6c1.1-0.7,1.9-2.4,1.9-4.7c0-3.8-2-6.1-5.3-6.1c-0.9,0-1.8,0.1-2.1,0.2
		c-0.2,0.1-0.2,0.2-0.2,0.4V233.8z"/>
	<path d="M134.2,221.8c6.9,0,12.1,4.4,12.1,11.5c0,6.9-4.9,12.6-12.3,12.6c-8.4,0-11.9-6.5-11.9-12.1
		C122.1,228.8,125.7,221.8,134.2,221.8z M134.9,244.7c2.8,0,8.5-1.6,8.5-10.5c0-7.4-4.5-11.3-9.3-11.3c-5.1,0-9,3.4-9,10.1
		C125,240.1,129.3,244.7,134.9,244.7z"/>
	<path d="M159.8,239.1c0-3.6,2.3-6,4.7-7.4c-1.1-1.6-1.5-2.9-1.5-4.2c0-2.4,2.5-5.7,6.6-5.7c1.6,0,2.9,0.3,3.7,0.8
		c0.4,0.2,0.4,0.4,0.4,0.8c0,0.9-0.1,3.1-0.2,3.5c-0.1,0.5-0.2,0.5-0.3,0.5c-0.2,0-0.2-0.1-0.2-0.6c0-0.8-0.2-1.8-1-2.6
		c-0.7-0.7-1.7-1.4-3.1-1.4c-1.8,0-3.9,1.1-3.9,4c0,2.4,1.7,4.4,4.9,7.9c1,1.1,4.8,4.7,5.8,5.5c0.9-1.2,1.6-3.2,1.6-5.1
		c0-0.5-0.1-1-0.6-1.5c-0.4-0.4-1-0.5-1.5-0.5c-0.2,0-0.4-0.1-0.4-0.2c0-0.2,0.2-0.2,0.5-0.2c0.7,0,2,0,3.7,0.2
		c0.5,0.1,0.6,0.3,0.6,0.6c0,2.5-1.7,5.6-3,7.3c2,1.7,3.4,2.6,4.2,3c1,0.6,2.6,1.2,3.7,1.2c0.3,0,0.4,0,0.4,0.2
		c0,0.1-0.2,0.2-0.5,0.2h-3c-2.3,0-3-0.2-6.4-2.9c-0.7,0.7-3.1,3.3-7.7,3.3C161.9,245.9,159.8,241.8,159.8,239.1z M174.2,242
		c-1.7-1.4-4.8-4.3-5.6-5.2c-0.8-0.9-2.8-3-3.6-4.3c-1.6,1-2.8,2.7-2.8,5.2c0,3.8,2.7,6.6,6.1,6.6
		C171.2,244.3,173.1,243.1,174.2,242z"/>
	<path d="M197.6,231.1c0-4.8,0-5.7-0.1-6.6c-0.1-1-0.3-1.5-1.3-1.8c-0.2-0.1-0.8-0.1-1-0.1c-0.1,0-0.2-0.1-0.2-0.2
		c0-0.2,0.2-0.2,0.5-0.2c1.4,0,3.3,0.1,3.5,0.1c0.7,0,1.9-0.1,3.4-0.1c5,0,6.1,3.1,6.1,4.6c0,2.5-1.4,4-2.9,5.5
		c2.3,0.7,5.3,2.9,5.3,6.5c0,3.3-2.6,6.7-7.8,6.7c-0.3,0-1.3-0.1-2.2-0.1c-0.9-0.1-1.8-0.1-1.9-0.1c-0.1,0-0.6,0-1.2,0
		c-0.6,0-1.3,0.1-1.8,0.1c-0.3,0-0.5-0.1-0.5-0.2c0-0.1,0.1-0.2,0.2-0.2c0.3,0,0.6-0.1,0.9-0.1c0.6-0.1,0.8-0.8,0.9-1.7
		c0.2-1.3,0.2-3.7,0.2-6.7V231.1z M200,231.8c0,0.2,0.1,0.3,0.2,0.3c0.2,0,0.7,0.1,1.9,0.1c1.7,0,2.2-0.1,2.8-0.8s1.1-1.8,1.1-3.1
		c0-2.6-1.1-5.3-4.2-5.3c-0.3,0-1,0-1.5,0.2c-0.3,0.1-0.4,0.2-0.4,0.3V231.8z M200,235.1c0,2.4,0,6.2,0,6.6c0.1,1.5,0.1,1.9,1,2.4
		c0.8,0.4,2.2,0.5,2.7,0.5c1.7,0,4.3-0.9,4.3-4.4c0-1.8-0.6-4.5-3-6.1c-1-0.7-1.8-0.8-2.6-0.9c-0.4-0.1-1.9-0.1-2.4-0.1
		c-0.1,0-0.2,0.1-0.2,0.2V235.1z"/>
	<path d="M223,223c0.4-1,0.5-1.2,0.7-1.2s0.3,0.2,0.7,1.1c0.5,1.2,5.3,13.9,7.2,18.5c1.1,2.7,2,3.2,2.6,3.4c0.5,0.2,0.9,0.2,1.2,0.2
		c0.2,0,0.3,0,0.3,0.2c0,0.2-0.3,0.2-0.6,0.2c-0.5,0-2.7,0-4.8-0.1c-0.6,0-0.9,0-0.9-0.2c0-0.1,0.1-0.2,0.2-0.2
		c0.2-0.1,0.4-0.3,0.2-0.8l-2.9-7.6c-0.1-0.1-0.1-0.2-0.3-0.2H220c-0.2,0-0.2,0.1-0.3,0.2l-1.8,5.4c-0.3,0.8-0.4,1.5-0.4,2.1
		c0,0.6,0.6,0.9,1.2,0.9h0.3c0.2,0,0.3,0.1,0.3,0.2c0,0.2-0.2,0.2-0.5,0.2c-0.7,0-2.1-0.1-2.4-0.1c-0.3,0-2,0.1-3.5,0.1
		c-0.4,0-0.6-0.1-0.6-0.2c0-0.1,0.1-0.2,0.3-0.2c0.2,0,0.6,0,0.9-0.1c1.4-0.2,2-1.4,2.6-2.9L223,223z M226.2,235.3
		c0.2,0,0.2-0.1,0.1-0.2l-2.9-8.3c-0.2-0.5-0.3-0.5-0.5,0l-2.7,8.3c-0.1,0.2,0,0.2,0.1,0.2H226.2z"/>
	<path d="M238.4,245.1c-0.4-0.2-0.5-0.3-0.5-1.2c0-1.5,0.1-2.8,0.2-3.3c0-0.3,0.1-0.5,0.2-0.5c0.2,0,0.2,0.1,0.2,0.3
		c0,0.3,0,0.7,0.1,1.1c0.5,2.3,2.5,3.1,4.6,3.1c3,0,4.4-2.1,4.4-4.1c0-2.1-0.9-3.4-3.5-5.5l-1.4-1.1c-3.3-2.7-4-4.6-4-6.7
		c0-3.3,2.5-5.5,6.4-5.5c1.2,0,2.1,0.1,2.9,0.3c0.6,0.1,0.8,0.2,1.1,0.2c0.2,0,0.3,0.1,0.3,0.2c0,0.2-0.1,1.2-0.1,3.3
		c0,0.5-0.1,0.7-0.2,0.7c-0.2,0-0.2-0.2-0.2-0.4c0-0.4-0.2-1.2-0.4-1.5c-0.2-0.3-1-1.6-3.8-1.6c-2.1,0-3.8,1.3-3.8,3.6
		c0,1.8,0.8,2.9,3.8,5.2l0.9,0.7c3.6,2.9,4.5,4.8,4.5,7.2c0,1.3-0.5,3.6-2.6,5.1c-1.3,0.9-3,1.3-4.6,1.3
		C241.1,245.9,239.7,245.7,238.4,245.1z"/>
	<path d="M264.5,236.6c0,3,0,5.4,0.2,6.7c0.1,0.9,0.3,1.6,1.2,1.7c0.4,0.1,1.1,0.1,1.4,0.1c0.2,0,0.2,0.1,0.2,0.2
		c0,0.2-0.2,0.2-0.5,0.2c-1.7,0-3.6-0.1-3.8-0.1s-2.1,0.1-3,0.1c-0.3,0-0.5-0.1-0.5-0.2c0-0.1,0.1-0.2,0.2-0.2
		c0.3,0,0.6-0.1,0.9-0.1c0.6-0.1,0.8-0.8,0.9-1.7c0.2-1.3,0.2-3.7,0.2-6.7v-13l-4.6,0.1c-1.9,0-2.6,0.2-3.1,1
		c-0.3,0.5-0.4,0.7-0.5,1c-0.1,0.2-0.2,0.3-0.3,0.3c-0.1,0-0.2-0.1-0.2-0.3c0-0.3,0.6-3,0.7-3.2c0.1-0.2,0.2-0.6,0.3-0.6
		c0.2,0,0.5,0.3,1.4,0.4c0.9,0.1,2.1,0.2,2.4,0.2h11.5c1,0,1.7-0.1,2.2-0.2c0.5-0.1,0.7-0.2,0.9-0.2c0.2,0,0.2,0.2,0.2,0.4
		c0,0.9-0.1,3-0.1,3.4c0,0.3-0.1,0.4-0.2,0.4c-0.2,0-0.2-0.1-0.2-0.5l0-0.3c-0.1-0.9-0.8-1.6-3.8-1.7l-3.9-0.1V236.6z"/>
	<path d="M281.7,236.6c0,3,0,5.4,0.2,6.7c0.1,0.9,0.3,1.6,1.2,1.7c0.4,0.1,1.1,0.1,1.4,0.1c0.2,0,0.2,0.1,0.2,0.2
		c0,0.2-0.2,0.2-0.5,0.2c-1.7,0-3.6-0.1-3.8-0.1s-2.1,0.1-3,0.1c-0.3,0-0.5-0.1-0.5-0.2c0-0.1,0.1-0.2,0.2-0.2
		c0.3,0,0.6-0.1,0.9-0.1c0.6-0.1,0.8-0.8,0.9-1.7c0.2-1.3,0.2-3.7,0.2-6.7v-5.4c0-4.8,0-5.7-0.1-6.6c-0.1-1-0.4-1.6-1-1.7
		c-0.3-0.1-0.7-0.1-1-0.1c-0.1,0-0.2-0.1-0.2-0.2c0-0.2,0.2-0.2,0.5-0.2c1,0,3,0.1,3.1,0.1s2.1-0.1,3-0.1c0.3,0,0.5,0.1,0.5,0.2
		c0,0.1-0.1,0.2-0.2,0.2c-0.2,0-0.4,0-0.8,0.1c-0.8,0.2-1.1,0.7-1.1,1.8c-0.1,1-0.1,1.8-0.1,6.6V236.6z"/>
	<path d="M292.7,231.1c0-4.8,0-5.7-0.1-6.6c-0.1-1-0.3-1.5-1.3-1.8c-0.2-0.1-0.8-0.1-1-0.1c-0.1,0-0.2-0.1-0.2-0.2
		c0-0.2,0.2-0.2,0.5-0.2c1.4,0,3.3,0.1,3.5,0.1c0.4,0,2.3-0.1,4.2-0.1c3,0,8.7-0.3,12.3,3.5c1.5,1.6,3,4.2,3,7.8
		c0,3.9-1.6,6.9-3.3,8.7c-1.3,1.4-4.1,3.5-9.3,3.5c-1.3,0-3-0.1-4.3-0.2c-1.4-0.1-2.4-0.2-2.6-0.2c-0.1,0-0.6,0-1.2,0
		c-0.6,0-1.3,0.1-1.8,0.1c-0.3,0-0.5-0.1-0.5-0.2c0-0.1,0.1-0.2,0.2-0.2c0.3,0,0.6-0.1,0.9-0.1c0.6-0.1,0.8-0.8,0.9-1.7
		c0.2-1.3,0.2-3.7,0.2-6.7V231.1z M295.3,234.5c0,3.3,0,6.1,0.1,6.7c0,0.8,0.1,2,0.3,2.3c0.4,0.6,1.6,1.2,5.2,1.2
		c2.9,0,5.5-1,7.3-2.9c1.6-1.6,2.5-4.5,2.5-7.3c0-3.9-1.7-6.4-3-7.7c-2.9-3-6.4-3.5-10.1-3.5c-0.6,0-1.8,0.1-2,0.2
		c-0.3,0.1-0.4,0.3-0.4,0.6c0,1,0,4.2,0,6.5V234.5z"/>
	<path d="M329.5,221.8c6.9,0,12.1,4.4,12.1,11.5c0,6.9-4.9,12.6-12.3,12.6c-8.4,0-11.9-6.5-11.9-12.1
		C317.4,228.8,321,221.8,329.5,221.8z M330.1,244.7c2.8,0,8.5-1.6,8.5-10.5c0-7.4-4.5-11.3-9.3-11.3c-5.1,0-9,3.4-9,10.1
		C320.3,240.1,324.6,244.7,330.1,244.7z"/>
	<path d="M348.1,231.1c0-4.8,0-5.7-0.1-6.6c-0.1-1-0.3-1.5-1.3-1.8c-0.2-0.1-0.8-0.1-1-0.1c-0.1,0-0.2-0.1-0.2-0.2
		c0-0.2,0.2-0.2,0.5-0.2c1.4,0,3.3,0.1,3.5,0.1c0.3,0,2.7-0.1,3.6-0.1c1.9,0,4,0.2,5.6,1.4c0.8,0.6,2.1,2.1,2.1,4.2
		c0,2.3-1,4.6-3.7,7.1c2.5,3.2,4.6,6,6.4,7.9c1.7,1.8,3,2.1,3.8,2.2c0.6,0.1,1,0.1,1.2,0.1c0.2,0,0.3,0.1,0.3,0.2
		c0,0.2-0.2,0.2-0.7,0.2h-2.2c-1.7,0-2.5-0.2-3.3-0.6c-1.3-0.7-2.4-2.2-4.2-4.5c-1.3-1.7-2.7-3.8-3.4-4.6c-0.1-0.1-0.2-0.2-0.4-0.2
		l-3.8-0.1c-0.2,0-0.2,0.1-0.2,0.2v0.7c0,3,0,5.4,0.2,6.7c0.1,0.9,0.3,1.6,1.2,1.7c0.4,0.1,1.1,0.1,1.4,0.1c0.2,0,0.2,0.1,0.2,0.2
		c0,0.2-0.2,0.2-0.5,0.2c-1.7,0-3.6-0.1-3.8-0.1c0,0-2,0.1-2.9,0.1c-0.3,0-0.5-0.1-0.5-0.2c0-0.1,0.1-0.2,0.2-0.2
		c0.3,0,0.6-0.1,0.9-0.1c0.6-0.1,0.8-0.8,0.9-1.7c0.2-1.3,0.2-3.7,0.2-6.7V231.1z M350.6,233.8c0,0.2,0.1,0.3,0.2,0.4
		c0.5,0.3,1.9,0.5,3.2,0.5c0.7,0,1.6-0.1,2.3-0.6c1.1-0.7,1.9-2.4,1.9-4.7c0-3.8-2-6.1-5.3-6.1c-0.9,0-1.8,0.1-2.1,0.2
		c-0.2,0.1-0.2,0.2-0.2,0.4V233.8z"/>
	<path d="M371.3,231.1c0-4.8,0-5.7-0.1-6.6c-0.1-1-0.3-1.5-1.3-1.8c-0.2-0.1-0.8-0.1-1-0.1c-0.1,0-0.2-0.1-0.2-0.2
		c0-0.2,0.2-0.2,0.5-0.2c0.7,0,1.5,0,2.2,0l1.3,0.1c0.2,0,6.3,0,7,0c0.6,0,1.1-0.1,1.3-0.2c0.2,0,0.3-0.2,0.4-0.2
		c0.1,0,0.1,0.1,0.1,0.3c0,0.2-0.2,0.6-0.2,1.4c0,0.3-0.1,1.7-0.2,2c0,0.2-0.1,0.3-0.2,0.3c-0.2,0-0.2-0.2-0.2-0.4
		c0-0.2,0-0.7-0.2-1.1c-0.2-0.5-0.5-0.9-2.2-1c-0.5-0.1-3.9-0.1-4.2-0.1c-0.1,0-0.2,0.1-0.2,0.3v8.5c0,0.2,0,0.3,0.2,0.3
		c0.4,0,4.2,0,4.9-0.1c0.7-0.1,1.2-0.1,1.4-0.4c0.2-0.2,0.3-0.4,0.5-0.4c0.1,0,0.2,0.1,0.2,0.2s-0.2,0.7-0.2,1.7
		c-0.1,0.6-0.1,1.8-0.1,2c0,0.2,0,0.6-0.2,0.6c-0.2,0-0.2-0.1-0.2-0.3c0-0.3,0-0.6-0.1-1c-0.1-0.4-0.4-1-1.6-1.1
		c-0.8-0.1-3.9-0.2-4.4-0.2c-0.2,0-0.2,0.1-0.2,0.2v2.7c0,1,0,4.6,0,5.3c0.1,2.1,0.6,2.5,3.6,2.5c0.8,0,2.2,0,3-0.3
		c0.8-0.3,1.2-1,1.4-2.2c0.1-0.3,0.1-0.5,0.3-0.5c0.2,0,0.2,0.2,0.2,0.5c0,0.2-0.2,2.3-0.4,3c-0.2,0.8-0.5,0.8-1.7,0.8
		c-2.3,0-4-0.1-5.2-0.1c-1.2-0.1-1.9-0.1-2.4-0.1c-0.1,0-0.6,0-1.2,0c-0.6,0-1.3,0.1-1.8,0.1c-0.3,0-0.5-0.1-0.5-0.2
		c0-0.1,0.1-0.2,0.2-0.2c0.3,0,0.6-0.1,0.9-0.1c0.6-0.1,0.8-0.8,0.9-1.7c0.2-1.3,0.2-3.7,0.2-6.7V231.1z"/>
	<path d="M388.1,245.1c-0.4-0.2-0.5-0.3-0.5-1.2c0-1.5,0.1-2.8,0.2-3.3c0-0.3,0.1-0.5,0.2-0.5c0.2,0,0.2,0.1,0.2,0.3
		c0,0.3,0,0.7,0.1,1.1c0.5,2.3,2.5,3.1,4.6,3.1c3,0,4.4-2.1,4.4-4.1c0-2.1-0.9-3.4-3.5-5.5l-1.4-1.1c-3.3-2.7-4-4.6-4-6.7
		c0-3.3,2.5-5.5,6.4-5.5c1.2,0,2.1,0.1,2.9,0.3c0.6,0.1,0.8,0.2,1.1,0.2c0.2,0,0.3,0.1,0.3,0.2c0,0.2-0.1,1.2-0.1,3.3
		c0,0.5-0.1,0.7-0.2,0.7c-0.2,0-0.2-0.2-0.2-0.4c0-0.4-0.2-1.2-0.4-1.5c-0.2-0.3-1-1.6-3.8-1.6c-2.1,0-3.8,1.3-3.8,3.6
		c0,1.8,0.8,2.9,3.8,5.2l0.9,0.7c3.6,2.9,4.5,4.8,4.5,7.2c0,1.3-0.5,3.6-2.6,5.1c-1.3,0.9-3,1.3-4.6,1.3
		C390.8,245.9,389.3,245.7,388.1,245.1z"/>
</g>
<g>
	<path class="st25" d="M10.3,244c-0.4-0.2-0.5-0.3-0.5-1.2c0-1.5,0.1-2.8,0.2-3.3c0-0.3,0.1-0.5,0.2-0.5c0.2,0,0.2,0.1,0.2,0.3
		c0,0.3,0,0.7,0.1,1.1c0.5,2.3,2.5,3.1,4.6,3.1c3,0,4.4-2.1,4.4-4.1c0-2.1-0.9-3.4-3.5-5.5l-1.4-1.1c-3.3-2.7-4-4.6-4-6.7
		c0-3.3,2.5-5.5,6.4-5.5c1.2,0,2.1,0.1,2.9,0.3c0.6,0.1,0.8,0.2,1.1,0.2c0.2,0,0.3,0.1,0.3,0.2c0,0.2-0.1,1.2-0.1,3.3
		c0,0.5-0.1,0.7-0.2,0.7c-0.2,0-0.2-0.2-0.2-0.4c0-0.4-0.2-1.2-0.4-1.5c-0.2-0.3-1-1.6-3.8-1.6c-2.1,0-3.8,1.3-3.8,3.6
		c0,1.8,0.8,2.9,3.8,5.2l0.9,0.7c3.6,2.9,4.5,4.8,4.5,7.2c0,1.3-0.5,3.6-2.6,5.1c-1.3,0.9-3,1.3-4.6,1.3
		C13,244.9,11.6,244.7,10.3,244z"/>
	<path class="st25" d="M29.8,230.1c0-4.8,0-5.7-0.1-6.6c-0.1-1-0.3-1.5-1.3-1.8c-0.2-0.1-0.8-0.1-1-0.1c-0.1,0-0.2-0.1-0.2-0.2
		c0-0.2,0.2-0.2,0.5-0.2c0.7,0,1.5,0,2.2,0l1.3,0.1c0.2,0,6.3,0,7,0c0.6,0,1.1-0.1,1.3-0.2c0.2,0,0.3-0.2,0.4-0.2
		c0.1,0,0.1,0.1,0.1,0.3c0,0.2-0.2,0.6-0.2,1.4c0,0.3-0.1,1.7-0.2,2c0,0.2-0.1,0.3-0.2,0.3c-0.2,0-0.2-0.2-0.2-0.4
		c0-0.2,0-0.7-0.2-1.1c-0.2-0.5-0.5-0.9-2.2-1c-0.5-0.1-3.9-0.1-4.2-0.1c-0.1,0-0.2,0.1-0.2,0.3v8.5c0,0.2,0,0.3,0.2,0.3
		c0.4,0,4.2,0,4.9-0.1c0.7-0.1,1.2-0.1,1.4-0.4c0.2-0.2,0.3-0.4,0.5-0.4c0.1,0,0.2,0.1,0.2,0.2s-0.2,0.7-0.2,1.7
		c-0.1,0.6-0.1,1.8-0.1,2c0,0.2,0,0.6-0.2,0.6c-0.2,0-0.2-0.1-0.2-0.3c0-0.3,0-0.6-0.1-1c-0.1-0.4-0.4-1-1.6-1.1
		c-0.8-0.1-3.9-0.2-4.4-0.2c-0.2,0-0.2,0.1-0.2,0.2v2.7c0,1,0,4.6,0,5.3c0.1,2.1,0.6,2.5,3.6,2.5c0.8,0,2.2,0,3-0.3
		c0.8-0.3,1.2-1,1.4-2.2c0.1-0.3,0.1-0.5,0.3-0.5c0.2,0,0.2,0.2,0.2,0.5c0,0.2-0.2,2.3-0.4,3c-0.2,0.8-0.5,0.8-1.7,0.8
		c-2.3,0-4-0.1-5.2-0.1c-1.2-0.1-1.9-0.1-2.4-0.1c-0.1,0-0.6,0-1.2,0c-0.6,0-1.3,0.1-1.8,0.1c-0.3,0-0.5-0.1-0.5-0.2
		c0-0.1,0.1-0.2,0.2-0.2c0.3,0,0.6-0.1,0.9-0.1c0.6-0.1,0.8-0.8,0.9-1.7c0.2-1.3,0.2-3.7,0.2-6.7V230.1z"/>
	<path class="st25" d="M63.2,236.6c0-2.5-0.2-2.8-1.4-3.2c-0.2-0.1-0.8-0.1-1-0.1c-0.1,0-0.2-0.1-0.2-0.2c0-0.2,0.2-0.2,0.5-0.2
		c1.4,0,3.3,0.1,3.5,0.1s2.1-0.1,3-0.1c0.3,0,0.5,0.1,0.5,0.2c0,0.1-0.1,0.2-0.2,0.2c-0.2,0-0.4,0-0.8,0.1c-0.8,0.2-1.1,0.7-1.1,1.8
		c-0.1,1-0.1,1.9-0.1,3.2v3.4c0,1.4,0,1.4-0.4,1.7c-2,1-4.7,1.4-6.5,1.4c-2.3,0-6.7-0.3-10.1-3.3c-1.9-1.6-3.7-4.9-3.7-8.8
		c0-4.9,2.4-8.4,5.1-10.1c2.8-1.7,5.8-1.9,8.2-1.9c1.9,0,4.1,0.4,4.7,0.5c0.6,0.2,1.7,0.3,2.5,0.3c0.3,0,0.4,0.2,0.4,0.3
		c0,0.4-0.2,1.3-0.2,4.4c0,0.5-0.1,0.6-0.3,0.6c-0.2,0-0.2-0.2-0.2-0.5c0-0.4-0.2-1.3-0.6-2c-0.8-1.2-3.3-2.5-7.2-2.5
		c-1.9,0-4.2,0.2-6.6,2c-1.8,1.4-3,4.2-3,7.8c0,4.3,2.2,7.5,3.3,8.5c2.4,2.4,5.2,3.3,8.1,3.3c1.1,0,2.7-0.2,3.5-0.6
		c0.4-0.2,0.6-0.6,0.6-1.1V236.6z"/>
	<path class="st25" d="M73.3,230.1c0-4.8,0-5.7-0.1-6.6c-0.1-1-0.3-1.5-1.3-1.8c-0.2-0.1-0.8-0.1-1-0.1c-0.1,0-0.2-0.1-0.2-0.2
		c0-0.2,0.2-0.2,0.5-0.2c1.4,0,3.3,0.1,3.5,0.1s2.1-0.1,3-0.1c0.3,0,0.5,0.1,0.5,0.2c0,0.1-0.1,0.2-0.2,0.2c-0.2,0-0.4,0-0.8,0.1
		c-0.8,0.1-1.1,0.7-1.1,1.8c-0.1,1-0.1,1.8-0.1,6.6v4.3c0,4.4,1,6.3,2.3,7.6c1.5,1.4,2.9,1.7,4.6,1.7c1.9,0,3.7-0.9,4.8-2.2
		c1.4-1.8,1.8-4.4,1.8-7.5v-3.8c0-4.8,0-5.7-0.1-6.6c-0.1-1-0.3-1.5-1.3-1.8c-0.2-0.1-0.8-0.1-1-0.1c-0.1,0-0.2-0.1-0.2-0.2
		c0-0.2,0.2-0.2,0.5-0.2c1.4,0,3.1,0.1,3.3,0.1c0.2,0,1.7-0.1,2.6-0.1c0.3,0,0.5,0.1,0.5,0.2c0,0.1-0.1,0.2-0.2,0.2
		c-0.2,0-0.4,0-0.8,0.1c-0.8,0.2-1.1,0.7-1.1,1.8c-0.1,1-0.1,1.8-0.1,6.6v3.3c0,3.3-0.4,7-2.8,9.2c-2.2,2-4.5,2.3-6.3,2.3
		c-1,0-4.2-0.1-6.3-2.2c-1.5-1.4-2.7-3.6-2.7-8.1V230.1z"/>
	<path class="st25" d="M100.6,230.1c0-4.8,0-5.7-0.1-6.6c-0.1-1-0.3-1.5-1.3-1.8c-0.2-0.1-0.8-0.1-1-0.1c-0.1,0-0.2-0.1-0.2-0.2
		c0-0.2,0.2-0.2,0.5-0.2c1.4,0,3.3,0.1,3.5,0.1c0.3,0,2.7-0.1,3.6-0.1c1.9,0,4,0.2,5.6,1.4c0.8,0.6,2.1,2.1,2.1,4.2
		c0,2.3-1,4.6-3.7,7.1c2.5,3.2,4.6,6,6.4,7.9c1.7,1.8,3,2.1,3.8,2.2c0.6,0.1,1,0.1,1.2,0.1c0.2,0,0.3,0.1,0.3,0.2
		c0,0.2-0.2,0.2-0.7,0.2h-2.2c-1.7,0-2.5-0.2-3.3-0.6c-1.3-0.7-2.4-2.2-4.2-4.5c-1.3-1.7-2.7-3.8-3.4-4.6c-0.1-0.1-0.2-0.2-0.4-0.2
		l-3.8-0.1c-0.2,0-0.2,0.1-0.2,0.2v0.7c0,3,0,5.4,0.2,6.7c0.1,0.9,0.3,1.6,1.2,1.7c0.4,0.1,1.1,0.1,1.4,0.1c0.2,0,0.2,0.1,0.2,0.2
		c0,0.2-0.2,0.2-0.5,0.2c-1.7,0-3.6-0.1-3.8-0.1c0,0-2,0.1-2.9,0.1c-0.3,0-0.5-0.1-0.5-0.2c0-0.1,0.1-0.2,0.2-0.2
		c0.3,0,0.6-0.1,0.9-0.1c0.6-0.1,0.8-0.8,0.9-1.7c0.2-1.3,0.2-3.7,0.2-6.7V230.1z M103.1,232.8c0,0.2,0.1,0.3,0.2,0.4
		c0.5,0.3,1.9,0.5,3.2,0.5c0.7,0,1.6-0.1,2.3-0.6c1.1-0.7,1.9-2.4,1.9-4.7c0-3.8-2-6.1-5.3-6.1c-0.9,0-1.8,0.1-2.1,0.2
		c-0.2,0.1-0.2,0.2-0.2,0.4V232.8z"/>
	<path class="st25" d="M132.9,220.8c6.9,0,12.1,4.4,12.1,11.5c0,6.9-4.9,12.6-12.3,12.6c-8.4,0-11.9-6.5-11.9-12.1
		C120.8,227.8,124.4,220.8,132.9,220.8z M133.5,243.7c2.8,0,8.5-1.6,8.5-10.5c0-7.4-4.5-11.3-9.3-11.3c-5.1,0-9,3.4-9,10.1
		C123.7,239.1,128,243.7,133.5,243.7z"/>
	<path class="st25" d="M158.5,238.1c0-3.6,2.3-6,4.7-7.4c-1.1-1.6-1.5-2.9-1.5-4.2c0-2.4,2.5-5.7,6.6-5.7c1.6,0,2.9,0.3,3.7,0.8
		c0.4,0.2,0.4,0.4,0.4,0.8c0,0.9-0.1,3.1-0.2,3.5c-0.1,0.5-0.2,0.5-0.3,0.5c-0.2,0-0.2-0.1-0.2-0.6c0-0.8-0.2-1.8-1-2.6
		c-0.7-0.7-1.7-1.4-3.1-1.4c-1.8,0-3.9,1.1-3.9,4c0,2.4,1.7,4.4,4.9,7.9c1,1.1,4.8,4.7,5.8,5.5c0.9-1.2,1.6-3.2,1.6-5.1
		c0-0.5-0.1-1-0.6-1.5c-0.4-0.4-1-0.5-1.5-0.5c-0.2,0-0.4-0.1-0.4-0.2c0-0.2,0.2-0.2,0.5-0.2c0.7,0,2,0,3.7,0.2
		c0.5,0.1,0.6,0.3,0.6,0.6c0,2.5-1.7,5.6-3,7.3c2,1.7,3.4,2.6,4.2,3c1,0.6,2.6,1.2,3.7,1.2c0.3,0,0.4,0,0.4,0.2
		c0,0.1-0.2,0.2-0.5,0.2h-3c-2.3,0-3-0.2-6.4-2.9c-0.7,0.7-3.1,3.3-7.7,3.3C160.6,244.9,158.5,240.8,158.5,238.1z M172.8,241
		c-1.7-1.4-4.8-4.3-5.6-5.2c-0.8-0.9-2.8-3-3.6-4.3c-1.6,1-2.8,2.7-2.8,5.2c0,3.8,2.7,6.6,6.1,6.6C169.9,243.2,171.8,242,172.8,241z
		"/>
	<path class="st25" d="M196.2,230.1c0-4.8,0-5.7-0.1-6.6c-0.1-1-0.3-1.5-1.3-1.8c-0.2-0.1-0.8-0.1-1-0.1c-0.1,0-0.2-0.1-0.2-0.2
		c0-0.2,0.2-0.2,0.5-0.2c1.4,0,3.3,0.1,3.5,0.1c0.7,0,1.9-0.1,3.4-0.1c5,0,6.1,3.1,6.1,4.6c0,2.5-1.4,4-2.9,5.5
		c2.3,0.7,5.3,2.9,5.3,6.5c0,3.3-2.6,6.7-7.8,6.7c-0.3,0-1.3-0.1-2.2-0.1c-0.9-0.1-1.8-0.1-1.9-0.1c-0.1,0-0.6,0-1.2,0
		c-0.6,0-1.3,0.1-1.8,0.1c-0.3,0-0.5-0.1-0.5-0.2c0-0.1,0.1-0.2,0.2-0.2c0.3,0,0.6-0.1,0.9-0.1c0.6-0.1,0.8-0.8,0.9-1.7
		c0.2-1.3,0.2-3.7,0.2-6.7V230.1z M198.7,230.8c0,0.2,0.1,0.3,0.2,0.3c0.2,0,0.7,0.1,1.9,0.1c1.7,0,2.2-0.1,2.8-0.8s1.1-1.8,1.1-3.1
		c0-2.6-1.1-5.3-4.2-5.3c-0.3,0-1,0-1.5,0.2c-0.3,0.1-0.4,0.2-0.4,0.3V230.8z M198.7,234.1c0,2.4,0,6.2,0,6.6c0.1,1.5,0.1,1.9,1,2.4
		c0.8,0.4,2.2,0.5,2.7,0.5c1.7,0,4.3-0.9,4.3-4.4c0-1.8-0.6-4.5-3-6.1c-1-0.7-1.8-0.8-2.6-0.9c-0.4-0.1-1.9-0.1-2.4-0.1
		c-0.1,0-0.2,0.1-0.2,0.2V234.1z"/>
	<path class="st25" d="M221.6,222c0.4-1,0.5-1.2,0.7-1.2s0.3,0.2,0.7,1.1c0.5,1.2,5.3,13.9,7.2,18.5c1.1,2.7,2,3.2,2.6,3.4
		c0.5,0.2,0.9,0.2,1.2,0.2c0.2,0,0.3,0,0.3,0.2c0,0.2-0.3,0.2-0.6,0.2c-0.5,0-2.7,0-4.8-0.1c-0.6,0-0.9,0-0.9-0.2
		c0-0.1,0.1-0.2,0.2-0.2c0.2-0.1,0.4-0.3,0.2-0.8l-2.9-7.6c-0.1-0.1-0.1-0.2-0.3-0.2h-6.6c-0.2,0-0.2,0.1-0.3,0.2l-1.8,5.4
		c-0.3,0.8-0.4,1.5-0.4,2.1c0,0.6,0.6,0.9,1.2,0.9h0.3c0.2,0,0.3,0.1,0.3,0.2c0,0.2-0.2,0.2-0.5,0.2c-0.7,0-2.1-0.1-2.4-0.1
		c-0.3,0-2,0.1-3.5,0.1c-0.4,0-0.6-0.1-0.6-0.2c0-0.1,0.1-0.2,0.3-0.2c0.2,0,0.6,0,0.9-0.1c1.4-0.2,2-1.4,2.6-2.9L221.6,222z
		 M224.8,234.3c0.2,0,0.2-0.1,0.1-0.2l-2.9-8.3c-0.2-0.5-0.3-0.5-0.5,0l-2.7,8.3c-0.1,0.2,0,0.2,0.1,0.2H224.8z"/>
	<path class="st25" d="M237.1,244c-0.4-0.2-0.5-0.3-0.5-1.2c0-1.5,0.1-2.8,0.2-3.3c0-0.3,0.1-0.5,0.2-0.5c0.2,0,0.2,0.1,0.2,0.3
		c0,0.3,0,0.7,0.1,1.1c0.5,2.3,2.5,3.1,4.6,3.1c3,0,4.4-2.1,4.4-4.1c0-2.1-0.9-3.4-3.5-5.5l-1.4-1.1c-3.3-2.7-4-4.6-4-6.7
		c0-3.3,2.5-5.5,6.4-5.5c1.2,0,2.1,0.1,2.9,0.3c0.6,0.1,0.8,0.2,1.1,0.2c0.2,0,0.3,0.1,0.3,0.2c0,0.2-0.1,1.2-0.1,3.3
		c0,0.5-0.1,0.7-0.2,0.7c-0.2,0-0.2-0.2-0.2-0.4c0-0.4-0.2-1.2-0.4-1.5c-0.2-0.3-1-1.6-3.8-1.6c-2.1,0-3.8,1.3-3.8,3.6
		c0,1.8,0.8,2.9,3.8,5.2l0.9,0.7c3.6,2.9,4.5,4.8,4.5,7.2c0,1.3-0.5,3.6-2.6,5.1c-1.3,0.9-3,1.3-4.6,1.3
		C239.7,244.9,238.3,244.7,237.1,244z"/>
	<path class="st25" d="M263.1,235.5c0,3,0,5.4,0.2,6.7c0.1,0.9,0.3,1.6,1.2,1.7c0.4,0.1,1.1,0.1,1.4,0.1c0.2,0,0.2,0.1,0.2,0.2
		c0,0.2-0.2,0.2-0.5,0.2c-1.7,0-3.6-0.1-3.8-0.1s-2.1,0.1-3,0.1c-0.3,0-0.5-0.1-0.5-0.2c0-0.1,0.1-0.2,0.2-0.2
		c0.3,0,0.6-0.1,0.9-0.1c0.6-0.1,0.8-0.8,0.9-1.7c0.2-1.3,0.2-3.7,0.2-6.7v-13l-4.6,0.1c-1.9,0-2.6,0.2-3.1,1
		c-0.3,0.5-0.4,0.7-0.5,1c-0.1,0.2-0.2,0.3-0.3,0.3c-0.1,0-0.2-0.1-0.2-0.3c0-0.3,0.6-3,0.7-3.2c0.1-0.2,0.2-0.6,0.3-0.6
		c0.2,0,0.5,0.3,1.4,0.4c0.9,0.1,2.1,0.2,2.4,0.2h11.5c1,0,1.7-0.1,2.2-0.2c0.5-0.1,0.7-0.2,0.9-0.2c0.2,0,0.2,0.2,0.2,0.4
		c0,0.9-0.1,3-0.1,3.4c0,0.3-0.1,0.4-0.2,0.4c-0.2,0-0.2-0.1-0.2-0.5l0-0.3c-0.1-0.9-0.8-1.6-3.8-1.7l-3.9-0.1V235.5z"/>
	<path class="st25" d="M280.4,235.5c0,3,0,5.4,0.2,6.7c0.1,0.9,0.3,1.6,1.2,1.7c0.4,0.1,1.1,0.1,1.4,0.1c0.2,0,0.2,0.1,0.2,0.2
		c0,0.2-0.2,0.2-0.5,0.2c-1.7,0-3.6-0.1-3.8-0.1s-2.1,0.1-3,0.1c-0.3,0-0.5-0.1-0.5-0.2c0-0.1,0.1-0.2,0.2-0.2
		c0.3,0,0.6-0.1,0.9-0.1c0.6-0.1,0.8-0.8,0.9-1.7c0.2-1.3,0.2-3.7,0.2-6.7v-5.4c0-4.8,0-5.7-0.1-6.6c-0.1-1-0.4-1.6-1-1.7
		c-0.3-0.1-0.7-0.1-1-0.1c-0.1,0-0.2-0.1-0.2-0.2c0-0.2,0.2-0.2,0.5-0.2c1,0,3,0.1,3.1,0.1s2.1-0.1,3-0.1c0.3,0,0.5,0.1,0.5,0.2
		c0,0.1-0.1,0.2-0.2,0.2c-0.2,0-0.4,0-0.8,0.1c-0.8,0.2-1.1,0.7-1.1,1.8c-0.1,1-0.1,1.8-0.1,6.6V235.5z"/>
	<path class="st25" d="M291.3,230.1c0-4.8,0-5.7-0.1-6.6c-0.1-1-0.3-1.5-1.3-1.8c-0.2-0.1-0.8-0.1-1-0.1c-0.1,0-0.2-0.1-0.2-0.2
		c0-0.2,0.2-0.2,0.5-0.2c1.4,0,3.3,0.1,3.5,0.1c0.4,0,2.3-0.1,4.2-0.1c3,0,8.7-0.3,12.3,3.5c1.5,1.6,3,4.2,3,7.8
		c0,3.9-1.6,6.9-3.3,8.7c-1.3,1.4-4.1,3.5-9.3,3.5c-1.3,0-3-0.1-4.3-0.2c-1.4-0.1-2.4-0.2-2.6-0.2c-0.1,0-0.6,0-1.2,0
		c-0.6,0-1.3,0.1-1.8,0.1c-0.3,0-0.5-0.1-0.5-0.2c0-0.1,0.1-0.2,0.2-0.2c0.3,0,0.6-0.1,0.9-0.1c0.6-0.1,0.8-0.8,0.9-1.7
		c0.2-1.3,0.2-3.7,0.2-6.7V230.1z M293.9,233.4c0,3.3,0,6.1,0.1,6.7c0,0.8,0.1,2,0.3,2.3c0.4,0.6,1.6,1.2,5.2,1.2
		c2.9,0,5.5-1,7.3-2.9c1.6-1.6,2.5-4.5,2.5-7.3c0-3.9-1.7-6.4-3-7.7c-2.9-3-6.4-3.5-10.1-3.5c-0.6,0-1.8,0.1-2,0.2
		c-0.3,0.1-0.4,0.3-0.4,0.6c0,1,0,4.2,0,6.5V233.4z"/>
	<path class="st25" d="M328.1,220.8c6.9,0,12.1,4.4,12.1,11.5c0,6.9-4.9,12.6-12.3,12.6c-8.4,0-11.9-6.5-11.9-12.1
		C316,227.8,319.7,220.8,328.1,220.8z M328.8,243.7c2.8,0,8.5-1.6,8.5-10.5c0-7.4-4.5-11.3-9.3-11.3c-5.1,0-9,3.4-9,10.1
		C318.9,239.1,323.2,243.7,328.8,243.7z"/>
	<path class="st25" d="M346.7,230.1c0-4.8,0-5.7-0.1-6.6c-0.1-1-0.3-1.5-1.3-1.8c-0.2-0.1-0.8-0.1-1-0.1c-0.1,0-0.2-0.1-0.2-0.2
		c0-0.2,0.2-0.2,0.5-0.2c1.4,0,3.3,0.1,3.5,0.1c0.3,0,2.7-0.1,3.6-0.1c1.9,0,4,0.2,5.6,1.4c0.8,0.6,2.1,2.1,2.1,4.2
		c0,2.3-1,4.6-3.7,7.1c2.5,3.2,4.6,6,6.4,7.9c1.7,1.8,3,2.1,3.8,2.2c0.6,0.1,1,0.1,1.2,0.1c0.2,0,0.3,0.1,0.3,0.2
		c0,0.2-0.2,0.2-0.7,0.2h-2.2c-1.7,0-2.5-0.2-3.3-0.6c-1.3-0.7-2.4-2.2-4.2-4.5c-1.3-1.7-2.7-3.8-3.4-4.6c-0.1-0.1-0.2-0.2-0.4-0.2
		l-3.8-0.1c-0.2,0-0.2,0.1-0.2,0.2v0.7c0,3,0,5.4,0.2,6.7c0.1,0.9,0.3,1.6,1.2,1.7c0.4,0.1,1.1,0.1,1.4,0.1c0.2,0,0.2,0.1,0.2,0.2
		c0,0.2-0.2,0.2-0.5,0.2c-1.7,0-3.6-0.1-3.8-0.1c0,0-2,0.1-2.9,0.1c-0.3,0-0.5-0.1-0.5-0.2c0-0.1,0.1-0.2,0.2-0.2
		c0.3,0,0.6-0.1,0.9-0.1c0.6-0.1,0.8-0.8,0.9-1.7c0.2-1.3,0.2-3.7,0.2-6.7V230.1z M349.2,232.8c0,0.2,0.1,0.3,0.2,0.4
		c0.5,0.3,1.9,0.5,3.2,0.5c0.7,0,1.6-0.1,2.3-0.6c1.1-0.7,1.9-2.4,1.9-4.7c0-3.8-2-6.1-5.3-6.1c-0.9,0-1.8,0.1-2.1,0.2
		c-0.2,0.1-0.2,0.2-0.2,0.4V232.8z"/>
	<path class="st25" d="M369.9,230.1c0-4.8,0-5.7-0.1-6.6c-0.1-1-0.3-1.5-1.3-1.8c-0.2-0.1-0.8-0.1-1-0.1c-0.1,0-0.2-0.1-0.2-0.2
		c0-0.2,0.2-0.2,0.5-0.2c0.7,0,1.5,0,2.2,0l1.3,0.1c0.2,0,6.3,0,7,0c0.6,0,1.1-0.1,1.3-0.2c0.2,0,0.3-0.2,0.4-0.2
		c0.1,0,0.1,0.1,0.1,0.3c0,0.2-0.2,0.6-0.2,1.4c0,0.3-0.1,1.7-0.2,2c0,0.2-0.1,0.3-0.2,0.3c-0.2,0-0.2-0.2-0.2-0.4
		c0-0.2,0-0.7-0.2-1.1c-0.2-0.5-0.5-0.9-2.2-1c-0.5-0.1-3.9-0.1-4.2-0.1c-0.1,0-0.2,0.1-0.2,0.3v8.5c0,0.2,0,0.3,0.2,0.3
		c0.4,0,4.2,0,4.9-0.1c0.7-0.1,1.2-0.1,1.4-0.4c0.2-0.2,0.3-0.4,0.5-0.4c0.1,0,0.2,0.1,0.2,0.2s-0.2,0.7-0.2,1.7
		c-0.1,0.6-0.1,1.8-0.1,2c0,0.2,0,0.6-0.2,0.6c-0.2,0-0.2-0.1-0.2-0.3c0-0.3,0-0.6-0.1-1c-0.1-0.4-0.4-1-1.6-1.1
		c-0.8-0.1-3.9-0.2-4.4-0.2c-0.2,0-0.2,0.1-0.2,0.2v2.7c0,1,0,4.6,0,5.3c0.1,2.1,0.6,2.5,3.6,2.5c0.8,0,2.2,0,3-0.3
		c0.8-0.3,1.2-1,1.4-2.2c0.1-0.3,0.1-0.5,0.3-0.5c0.2,0,0.2,0.2,0.2,0.5c0,0.2-0.2,2.3-0.4,3c-0.2,0.8-0.5,0.8-1.7,0.8
		c-2.3,0-4-0.1-5.2-0.1c-1.2-0.1-1.9-0.1-2.4-0.1c-0.1,0-0.6,0-1.2,0c-0.6,0-1.3,0.1-1.8,0.1c-0.3,0-0.5-0.1-0.5-0.2
		c0-0.1,0.1-0.2,0.2-0.2c0.3,0,0.6-0.1,0.9-0.1c0.6-0.1,0.8-0.8,0.9-1.7c0.2-1.3,0.2-3.7,0.2-6.7V230.1z"/>
	<path class="st25" d="M386.7,244c-0.4-0.2-0.5-0.3-0.5-1.2c0-1.5,0.1-2.8,0.2-3.3c0-0.3,0.1-0.5,0.2-0.5c0.2,0,0.2,0.1,0.2,0.3
		c0,0.3,0,0.7,0.1,1.1c0.5,2.3,2.5,3.1,4.6,3.1c3,0,4.4-2.1,4.4-4.1c0-2.1-0.9-3.4-3.5-5.5L391,233c-3.3-2.7-4-4.6-4-6.7
		c0-3.3,2.5-5.5,6.4-5.5c1.2,0,2.1,0.1,2.9,0.3c0.6,0.1,0.8,0.2,1.1,0.2c0.2,0,0.3,0.1,0.3,0.2c0,0.2-0.1,1.2-0.1,3.3
		c0,0.5-0.1,0.7-0.2,0.7c-0.2,0-0.2-0.2-0.2-0.4c0-0.4-0.2-1.2-0.4-1.5c-0.2-0.3-1-1.6-3.8-1.6c-2.1,0-3.8,1.3-3.8,3.6
		c0,1.8,0.8,2.9,3.8,5.2l0.9,0.7c3.6,2.9,4.5,4.8,4.5,7.2c0,1.3-0.5,3.6-2.6,5.1c-1.3,0.9-3,1.3-4.6,1.3
		C389.4,244.9,388,244.7,386.7,244z"/>
</g>
</svg>
