<?xml version="1.0" encoding="utf-8"?>
<!-- Generator: Adobe Illustrator 23.0.1, SVG Export Plug-In . SVG Version: 6.00 Build 0)  -->
<svg version="1.1" id="Camada_1" xmlns="http://www.w3.org/2000/svg" xmlns:xlink="http://www.w3.org/1999/xlink" x="0px" y="0px"
	 viewBox="0 0 65 60" style="enable-background:new 0 0 65 60;" xml:space="preserve">
<style type="text/css">
	.st0{fill:#FFFFFF;}
</style>
<g>
	<g>
		<path class="st0" d="M43.6,0.1H21.8C18,0.1,15,3.1,15,6.9v46.3C15,57,18,60,21.8,60h21.8c3.8,0,6.8-3.1,6.8-6.8V6.9
			C50.4,3.1,47.4,0.1,43.6,0.1z M32.7,57.3c-2.3,0-4.1-1.8-4.1-4.1s1.8-4.1,4.1-4.1c2.3,0,4.1,1.8,4.1,4.1S35,57.3,32.7,57.3z
			 M45,46.4H20.4V8.2H45V46.4z"/>
	</g>
</g>
</svg>
