<?xml version="1.0" encoding="utf-8"?>
<!-- Generator: Adobe Illustrator 23.0.1, SVG Export Plug-In . SVG Version: 6.00 Build 0)  -->
<svg version="1.1" id="Camada_1" xmlns="http://www.w3.org/2000/svg" xmlns:xlink="http://www.w3.org/1999/xlink" x="0px" y="0px"
	 viewBox="0 0 65 60" style="enable-background:new 0 0 65 60;" xml:space="preserve">
<style type="text/css">
	.st0{fill:#263774;}
</style>
<g>
	<path class="st0" d="M40.3,22.7c-0.4-0.4-0.9-0.6-1.5-0.6c-0.6,0-1.1,0.2-1.5,0.6L30,30l-2.5-2.5c-0.4-0.4-0.9-0.6-1.5-0.6
		c-0.6,0-1.1,0.2-1.5,0.6c-0.4,0.4-0.6,0.9-0.6,1.5c0,0.6,0.2,1.1,0.6,1.5l4,4c0.4,0.4,0.9,0.6,1.5,0.6c0,0,0,0,0,0
		c0.6,0,1.1-0.2,1.5-0.6l8.8-8.8C41.1,24.8,41.1,23.5,40.3,22.7z"/>
	<path class="st0" d="M56.7,12.5c0-0.4-0.3-0.7-0.6-0.9L32.9,0.3c-0.3-0.1-0.6-0.1-0.9,0L8.6,11.6c-0.3,0.2-0.6,0.5-0.6,0.9
		c0,0.3-0.7,8.5,1.9,18.4c1.5,5.9,3.8,11.1,6.9,15.6c3.9,5.6,8.9,10.1,15,13.3c0.2,0.1,0.3,0.1,0.5,0.1c0.2,0,0.3,0,0.5-0.1
		c6.1-3.2,11.2-7.6,15-13.3c3.1-4.5,5.4-9.8,6.9-15.6C57.4,21,56.8,12.8,56.7,12.5z M32.4,42.2c-7.6,0-13.8-6.2-13.8-13.8
		s6.2-13.8,13.8-13.8s13.8,6.2,13.8,13.8S40,42.2,32.4,42.2z"/>
</g>
</svg>
